<svg width="267" height="881" viewBox="0 0 267 881" fill="none" xmlns="http://www.w3.org/2000/svg">
<g clip-path="url(#clip0_2_14)">
<path d="M128.581 586.429C140.771 606.677 207.873 598.865 278.688 590.634C361.037 581.056 454.023 570.238 473.967 603.403L466.407 590.825C446.448 557.669 353.479 568.483 271.113 578.065C200.321 586.323 133.202 594.102 121.024 573.856L128.581 586.429Z" fill="#7C6EE1"/>
<path d="M115.78 565.127C127.941 585.36 195.071 577.567 265.866 569.318C348.218 559.758 441.204 548.94 461.15 582.101L454.211 570.568C434.271 537.42 341.297 548.221 258.932 557.799C188.122 566.06 121.02 573.839 108.846 553.608L115.78 565.127Z" fill="#7C6EE1"/>
<path d="M103.587 544.881C115.761 565.112 182.882 557.305 253.69 549.072C336.038 539.494 429.024 528.675 448.969 561.84L442.031 550.32C422.09 517.16 329.104 527.978 246.752 537.551C175.942 545.812 108.826 553.596 96.6665 533.344L103.587 544.881Z" fill="#7C6EE1"/>
<path d="M91.4045 524.618C103.598 544.854 170.697 537.054 241.49 528.825C323.855 519.248 416.829 508.43 436.787 541.59L429.849 530.057C409.891 496.897 316.918 507.71 234.57 517.288C163.76 525.55 96.6449 533.33 84.4664 513.085L91.4045 524.618Z" fill="#7C6EE1"/>
<path d="M79.2173 504.355C91.4074 524.603 158.509 516.794 229.307 508.563C311.673 498.982 404.645 488.168 424.586 521.332L417.67 509.809C397.711 476.653 304.739 487.466 222.369 497.03C151.576 505.288 84.4616 513.068 72.2839 492.835L79.2173 504.355Z" fill="#7C6EE1"/>
<path d="M129.033 587.74C128.239 586.444 127.668 585.024 127.343 583.539C127.081 582.368 126.952 581.17 126.96 579.97C126.987 559.99 160.99 527.163 228.147 482.266C286.779 443.119 594.938 273.59 705.643 216.167L697.989 203.615C587.285 261.034 279.188 430.466 220.51 469.71C153.336 514.61 119.354 547.422 119.308 567.409C119.308 568.608 119.437 569.804 119.692 570.975C120.034 572.455 120.603 573.872 121.381 575.176L128.956 587.745" fill="#E0F49B"/>
<path d="M116.216 566.442C115.43 565.142 114.86 563.724 114.527 562.241C114.264 561.071 114.135 559.875 114.142 558.675C114.188 538.692 148.174 505.864 215.343 460.95C273.975 421.803 582.103 252.27 692.827 194.869L685.892 183.353C575.184 240.759 267.091 410.208 208.405 449.434C141.24 494.315 107.257 527.16 107.21 547.152C107.201 548.346 107.329 549.538 107.59 550.704C107.931 552.184 108.501 553.601 109.279 554.905L116.216 566.442Z" fill="#E0F49B"/>
<path d="M104.034 546.18C103.239 544.885 102.668 543.465 102.345 541.979C102.081 540.815 101.953 539.625 101.964 538.431C101.992 518.447 135.994 485.595 203.128 440.705C261.763 401.559 569.924 232.026 680.633 174.621L673.695 163.088C562.99 220.511 254.896 389.96 196.211 429.186C129.042 474.083 95.0565 506.906 95.0112 526.89C95.004 528.09 95.1313 529.287 95.3907 530.458C95.7262 531.941 96.298 533.36 97.084 534.66L104.017 546.18" fill="#E0F49B"/>
<path d="M91.853 525.924C91.0592 524.628 90.4881 523.208 90.1636 521.723C89.8962 520.555 89.7626 519.36 89.7654 518.162C89.8117 498.174 123.797 465.351 190.963 420.436C249.594 381.288 557.758 211.761 668.449 154.359L661.528 142.822C550.821 200.241 242.714 369.695 184.028 408.92C116.859 453.818 82.8774 486.659 82.8653 506.643C82.8563 507.837 82.9837 509.029 83.2451 510.195C83.5696 511.68 84.1406 513.1 84.9344 514.396L91.8725 525.929" fill="#E0F49B"/>
<path d="M79.651 505.677C78.8731 504.373 78.3031 502.956 77.9617 501.476C77.7001 500.306 77.5724 499.11 77.5811 497.911C77.6264 477.927 111.612 445.104 178.782 400.203C237.414 361.055 545.561 191.528 656.264 134.109L649.331 122.589C538.623 179.995 230.525 349.443 171.844 388.669C104.683 433.565 70.6943 466.387 70.653 486.372C70.6502 487.572 70.7775 488.768 71.0325 489.94C71.3735 491.42 71.9435 492.838 72.7218 494.141L79.6552 505.661" fill="#E0F49B"/>
</g>
<defs>
<clipPath id="clip0_2_14">
<rect width="763.566" height="549.185" fill="white" transform="translate(0 738.438) rotate(-75)"/>
</clipPath>
</defs>
</svg>
