<svg width="301" height="712" viewBox="0 0 301 712" fill="none" xmlns="http://www.w3.org/2000/svg">
<g clip-path="url(#clip0_2_28)">
<path d="M-451.281 122.456C-293.175 294.821 -168.032 417.684 -79.309 487.604C-14.3177 538.836 32.4164 562.7 59.9974 558.814C64.0325 558.286 67.9271 556.981 71.4665 554.972C72.7275 554.245 73.9254 553.413 75.0474 552.486L87.4576 542.368C86.33 543.288 85.1328 544.119 83.8768 544.854C80.338 546.866 76.4393 548.165 72.4009 548.678C44.83 552.592 -1.90308 528.719 -66.8939 477.482C-155.611 407.549 -280.751 284.7 -438.865 112.322L-451.281 122.456Z" fill="white"/>
<path d="M-431.305 106.137C-430.614 106.873 -429.97 107.55 -429.274 108.362L-428.236 107.507C-271.086 278.714 -146.614 400.821 -58.2892 470.461C6.69484 521.679 53.4361 545.557 81.0055 541.657C85.0409 541.129 88.9357 539.824 92.4748 537.814C93.7334 537.087 94.9329 536.262 96.0623 535.346L107.427 526.066C106.301 526.987 105.104 527.817 103.847 528.548C100.305 530.551 96.4098 531.851 92.3748 532.376C64.7995 536.29 18.067 512.412 -46.9243 461.18C-135.623 391.24 -260.86 268.429 -418.84 95.9991L-431.254 106.117" fill="white"/>
<path d="M-391.304 73.5167C-390.632 74.2592 -389.987 74.9365 -389.28 75.723L-388.253 74.8927C-231.104 246.101 -106.557 368.252 -18.3134 437.829C46.6779 489.061 93.4118 512.925 120.986 509.025C125.023 508.509 128.92 507.209 132.458 505.196C133.715 504.465 134.912 503.635 136.038 502.714L147.421 493.427C146.298 494.353 145.101 495.184 143.841 495.913C140.303 497.923 136.406 499.222 132.369 499.737C104.781 503.649 58.0657 479.774 -6.92999 428.541C-95.6397 358.622 -220.783 235.76 -378.901 63.3803L-391.278 73.5994" fill="white"/>
<path d="M-371.317 57.2096C-370.651 57.938 -369.986 58.6266 -369.293 59.4203L-368.254 58.5647C-211.105 229.773 -86.6509 351.882 1.68793 421.519C66.6836 472.751 113.413 496.615 140.987 492.715C145.022 492.191 148.918 490.891 152.459 488.886C153.711 488.147 154.908 487.318 156.039 486.404L167.409 477.12C166.282 478.041 165.085 478.872 163.828 479.606C160.29 481.619 156.391 482.92 152.352 483.434C124.781 487.348 78.0485 463.47 13.0572 412.238C-75.6593 342.301 -200.796 219.461 -358.917 47.0727L-371.291 57.2924" fill="white"/>
<path d="M-411.287 89.8266C-410.614 90.5691 -409.951 91.2397 -409.263 92.0329L-408.217 91.1959C-251.068 262.404 -126.614 384.513 -38.2962 454.139C26.7306 505.37 73.4292 529.235 101.024 525.346C105.059 524.817 108.954 523.513 112.493 521.504C113.751 520.773 114.949 519.941 116.074 519.017L127.446 509.751C126.315 510.666 125.116 511.493 123.858 512.223C120.319 514.233 116.424 515.537 112.389 516.065C84.8178 519.979 38.0785 496.083 -26.9061 444.87C-115.649 374.929 -240.781 252.09 -398.89 79.7072L-411.287 89.8266Z" fill="white"/>
<path d="M41.1219 177.871C21.1383 194.187 39.9423 265.518 59.7716 340.797C82.8377 428.336 108.887 527.184 76.1519 553.884L88.567 543.762C121.29 517.047 95.2479 418.219 72.1751 330.661C52.3203 255.409 33.55 184.056 53.5321 167.753L41.1219 177.871" fill="#7C6EE1"/>
<path d="M62.1491 160.732C42.1783 177.014 60.9651 248.378 80.8106 323.633C103.858 411.179 129.907 510.026 97.1767 536.727L108.56 527.439C141.277 500.746 115.248 401.91 92.1799 314.353C72.3184 239.083 53.5504 167.747 73.5184 151.452L62.1491 160.732" fill="#7C6EE1"/>
<path d="M82.1316 144.413C62.1637 160.708 80.9652 232.061 100.796 307.332C123.862 394.871 149.911 493.718 117.176 520.418L128.546 511.134C161.276 484.437 135.227 385.59 112.165 298.047C92.3038 222.777 73.5286 151.427 93.5218 135.144L82.1316 144.413" fill="#7C6EE1"/>
<path d="M102.131 128.103C82.1602 144.421 100.951 215.75 120.774 291.007C143.843 378.564 169.889 477.397 137.161 504.112L148.545 494.824C181.272 468.11 155.23 369.277 132.164 281.738C112.303 206.468 93.532 135.118 113.514 118.816L102.131 128.103" fill="#7C6EE1"/>
<path d="M122.13 111.788C102.146 128.104 120.946 199.434 140.773 274.696C163.846 362.254 189.887 461.086 157.153 487.782L168.529 478.521C201.252 451.806 175.211 352.973 152.156 265.408C132.302 190.157 113.531 118.808 133.499 102.508L122.13 111.788Z" fill="#7C6EE1"/>
<path d="M39.7744 178.566C41.0512 177.507 42.4965 176.669 44.0503 176.088C45.2748 175.623 46.5482 175.298 47.8461 175.121C69.4272 172.055 110.131 203.727 168.992 269.37C220.326 326.688 451.013 633.555 530.129 744.335L542.502 734.115C463.391 623.336 232.817 316.521 181.371 259.169C122.504 193.507 81.8202 161.855 60.228 164.902C58.9333 165.089 57.6623 165.413 56.4366 165.87C54.8912 166.469 53.4486 167.304 52.1608 168.347L39.7572 178.484" fill="#E0F49B"/>
<path d="M60.7942 161.409C62.0765 160.358 63.5204 159.521 65.07 158.932C66.293 158.466 67.565 158.141 68.8615 157.964C90.4493 154.916 131.151 186.57 190.032 252.224C241.367 309.542 472.053 616.375 551.149 727.179L562.514 717.898C483.416 607.111 252.824 300.303 201.398 242.939C142.552 177.285 101.832 145.637 80.2352 148.684C78.9436 148.859 77.6762 149.182 76.4578 149.645C74.9123 150.243 73.4696 151.079 72.182 152.122L60.7942 161.409Z" fill="#E0F49B"/>
<path d="M80.7935 145.1C82.0697 144.041 83.5152 143.203 85.0693 142.623C86.2855 142.158 87.5517 141.835 88.8422 141.662C110.428 138.596 151.159 170.263 210.009 235.882C261.343 293.204 492.034 600.073 571.132 710.859L582.515 701.572C503.399 590.792 272.807 283.984 221.38 226.62C162.517 160.963 121.82 129.31 100.232 132.357C98.9349 132.535 97.6619 132.859 96.4368 133.32C94.8874 133.913 93.4435 134.751 92.1604 135.802L80.7911 145.082" fill="#E0F49B"/>
<path d="M100.788 128.794C102.065 127.735 103.51 126.897 105.064 126.316C106.284 125.846 107.553 125.517 108.848 125.334C130.44 122.287 171.137 153.941 230.019 219.59C281.354 276.908 512.04 583.78 591.131 694.548L602.521 685.279C523.41 574.496 292.811 267.674 241.384 210.31C182.521 144.653 141.805 113.006 120.222 116.09C118.93 116.265 117.663 116.587 116.445 117.051C114.891 117.632 113.446 118.469 112.169 119.528L100.785 128.815" fill="#E0F49B"/>
<path d="M120.767 112.464C122.055 111.421 123.497 110.585 125.043 109.987C126.266 109.523 127.538 109.199 128.834 109.023C150.422 105.975 191.119 137.629 249.986 203.286C301.321 260.604 532.005 567.458 611.117 678.238L622.486 668.957C543.389 558.171 312.797 251.358 261.37 193.999C202.51 128.351 161.813 96.6933 140.225 99.7453C138.929 99.9283 137.656 100.251 136.43 100.709C134.884 101.307 133.441 102.142 132.154 103.186L120.785 112.466" fill="#E0F49B"/>
</g>
<defs>
<clipPath id="clip0_2_28">
<rect width="969.93" height="599.78" fill="white" transform="translate(-662.455) rotate(6.85085)"/>
</clipPath>
</defs>
</svg>
