<svg width="144" height="48" viewBox="0 0 144 48" fill="none" xmlns="http://www.w3.org/2000/svg">
<path d="M0 12.6C0 8.68609 0 6.72914 0.639412 5.18546C1.49196 3.12722 3.12722 1.49196 5.18546 0.639412C6.72914 0 8.68609 0 12.6 0H131.4C135.314 0 137.271 0 138.815 0.639412C140.873 1.49196 142.508 3.12722 143.361 5.18546C144 6.72914 144 8.68609 144 12.6V35.4C144 39.3139 144 41.2709 143.361 42.8145C142.508 44.8728 140.873 46.508 138.815 47.3606C137.271 48 135.314 48 131.4 48H12.6C8.68609 48 6.72914 48 5.18546 47.3606C3.12722 46.508 1.49196 44.8728 0.639412 42.8145C0 41.2709 0 39.3139 0 35.4V12.6Z" fill="black"/>
<path d="M97.8311 23.0411V25.7903H96.1079V27.5933H97.8311V33.7192C97.8311 35.811 98.7774 36.6478 101.158 36.6478C101.576 36.6478 101.975 36.598 102.324 36.5382V34.7552C102.025 34.7851 101.835 34.805 101.507 34.805C100.441 34.805 99.9727 34.3069 99.9727 33.1714V27.5933H102.324V25.7903H99.9727V23.0411H97.8311Z" fill="white"/>
<path d="M108.388 36.7972C111.556 36.7972 113.498 34.6755 113.498 31.1593C113.498 27.663 111.546 25.5314 108.388 25.5314C105.221 25.5314 103.268 27.663 103.268 31.1593C103.268 34.6755 105.211 36.7972 108.388 36.7972ZM108.388 34.8946C106.525 34.8946 105.48 33.53 105.48 31.1593C105.48 28.8085 106.525 27.4339 108.388 27.4339C110.241 27.4339 111.297 28.8085 111.297 31.1593C111.297 33.52 110.241 34.8946 108.388 34.8946Z" fill="white"/>
<path d="M115.16 36.588H117.302V30.1831C117.302 28.6591 118.447 27.6331 120.071 27.6331C120.449 27.6331 121.087 27.7028 121.266 27.7626V25.6509C121.037 25.5911 120.629 25.5612 120.31 25.5612C118.895 25.5612 117.69 26.3382 117.381 27.404H117.222V25.7405H115.16V36.588Z" fill="white"/>
<path d="M126.584 27.3542C128.167 27.3542 129.203 28.4599 129.253 30.1632H123.775C123.894 28.4698 125 27.3542 126.584 27.3542ZM129.243 33.6595C128.845 34.5062 127.958 34.9743 126.663 34.9743C124.95 34.9743 123.844 33.769 123.775 31.8665V31.747H131.435V30.9999C131.435 27.5933 129.612 25.5314 126.594 25.5314C123.536 25.5314 121.593 27.7327 121.593 31.1991C121.593 34.6655 123.496 36.7972 126.604 36.7972C129.084 36.7972 130.817 35.6019 131.305 33.6595H129.243Z" fill="white"/>
<path d="M83.7868 32.5822C83.952 35.2458 86.1717 36.9493 89.4755 36.9493C93.0064 36.9493 95.2157 35.1633 95.2157 32.3138C95.2157 30.0734 93.9562 28.8345 90.9002 28.1221L89.2587 27.7195C87.3177 27.2652 86.5331 26.6561 86.5331 25.5927C86.5331 24.2506 87.7513 23.373 89.5787 23.373C91.3132 23.373 92.5108 24.2299 92.7276 25.603H94.9783C94.8441 23.0942 92.6347 21.3288 89.6097 21.3288C86.3576 21.3288 84.1895 23.0942 84.1895 25.7476C84.1895 27.9363 85.4181 29.2371 88.1127 29.8669L90.033 30.3315C92.0049 30.7961 92.8722 31.4775 92.8722 32.6132C92.8722 33.9347 91.5094 34.8948 89.651 34.8948C87.6584 34.8948 86.275 33.9966 86.0788 32.5822H83.7868Z" fill="white"/>
<path d="M61.602 25.5612C60.1278 25.5612 58.8528 26.2983 58.1954 27.5335H58.036V25.7405H55.9741V40.1939H58.1157V34.9444H58.285C58.8528 36.0899 60.078 36.7673 61.622 36.7673C64.3612 36.7673 66.1044 34.6058 66.1044 31.1593C66.1044 27.7128 64.3612 25.5612 61.602 25.5612ZM60.9944 34.8448C59.2015 34.8448 58.0759 33.4304 58.0759 31.1692C58.0759 28.8981 59.2015 27.4837 61.0044 27.4837C62.8173 27.4837 63.903 28.8683 63.903 31.1593C63.903 33.4603 62.8173 34.8448 60.9944 34.8448Z" fill="white"/>
<path d="M73.5982 25.5612C72.124 25.5612 70.849 26.2983 70.1916 27.5335H70.0322V25.7405H67.9703V40.1939H70.1119V34.9444H70.2812C70.849 36.0899 72.0742 36.7673 73.6181 36.7673C76.3574 36.7673 78.1005 34.6058 78.1005 31.1593C78.1005 27.7128 76.3574 25.5612 73.5982 25.5612ZM72.9906 34.8448C71.1976 34.8448 70.072 33.4304 70.072 31.1692C70.072 28.8981 71.1976 27.4837 73.0005 27.4837C74.8134 27.4837 75.8992 28.8683 75.8992 31.1593C75.8992 33.4603 74.8134 34.8448 72.9906 34.8448Z" fill="white"/>
<path d="M52.1317 36.588H54.5889L49.21 21.6901H46.7218L41.3429 36.588H43.7175L45.0906 32.6338H50.7689L52.1317 36.588ZM47.8472 24.3951H48.0227L50.1804 30.6929H45.6791L47.8472 24.3951Z" fill="white"/>
<path d="M42.7814 10.4531V17.6399H45.3762C47.5178 17.6399 48.7579 16.3201 48.7579 14.0241C48.7579 11.763 47.5078 10.4531 45.3762 10.4531H42.7814ZM43.897 11.4691H45.2517C46.7408 11.4691 47.6224 12.4154 47.6224 14.0391C47.6224 15.6876 46.7558 16.6239 45.2517 16.6239H43.897V11.4691Z" fill="white"/>
<path d="M52.556 17.7445C54.1398 17.7445 55.111 16.6837 55.111 14.9256C55.111 13.1774 54.1348 12.1116 52.556 12.1116C50.9723 12.1116 49.9961 13.1774 49.9961 14.9256C49.9961 16.6837 50.9673 17.7445 52.556 17.7445ZM52.556 16.7933C51.6247 16.7933 51.1017 16.1109 51.1017 14.9256C51.1017 13.7502 51.6247 13.0629 52.556 13.0629C53.4824 13.0629 54.0103 13.7502 54.0103 14.9256C54.0103 16.106 53.4824 16.7933 52.556 16.7933Z" fill="white"/>
<path d="M63.3816 12.2162H62.3108L61.3446 16.355H61.2599L60.1443 12.2162H59.1183L58.0027 16.355H57.923L56.9518 12.2162H55.8661L57.3602 17.6399H58.4609L59.5765 13.6456H59.6612L60.7818 17.6399H61.8924L63.3816 12.2162Z" fill="white"/>
<path d="M64.6147 17.6399H65.6856V14.4674C65.6856 13.6207 66.1886 13.0928 66.9805 13.0928C67.7724 13.0928 68.1509 13.5261 68.1509 14.3977V17.6399H69.2217V14.1287C69.2217 12.8388 68.5543 12.1116 67.344 12.1116C66.5273 12.1116 65.9894 12.4752 65.7254 13.0778H65.6457V12.2162H64.6147V17.6399Z" fill="white"/>
<path d="M70.9081 17.6399H71.9789V10.0995H70.9081V17.6399Z" fill="white"/>
<path d="M76.0061 17.7445C77.5899 17.7445 78.5611 16.6837 78.5611 14.9256C78.5611 13.1774 77.5849 12.1116 76.0061 12.1116C74.4223 12.1116 73.4461 13.1774 73.4461 14.9256C73.4461 16.6837 74.4173 17.7445 76.0061 17.7445ZM76.0061 16.7933C75.0747 16.7933 74.5518 16.1109 74.5518 14.9256C74.5518 13.7502 75.0747 13.0629 76.0061 13.0629C76.9324 13.0629 77.4604 13.7502 77.4604 14.9256C77.4604 16.106 76.9324 16.7933 76.0061 16.7933Z" fill="white"/>
<path d="M81.7515 16.8281C81.1688 16.8281 80.7455 16.5442 80.7455 16.0562C80.7455 15.578 81.0842 15.324 81.8312 15.2742L83.156 15.1895V15.6428C83.156 16.3151 82.5584 16.8281 81.7515 16.8281ZM81.4776 17.7296C82.1898 17.7296 82.7825 17.4208 83.1062 16.8779H83.1909V17.6399H84.2219V13.9345C84.2219 12.789 83.4549 12.1116 82.0952 12.1116C80.865 12.1116 79.9885 12.7093 79.8789 13.6406H80.9148C81.0344 13.2571 81.4477 13.038 82.0454 13.038C82.7775 13.038 83.156 13.3617 83.156 13.9345V14.4026L81.6868 14.4873C80.3969 14.567 79.6697 15.1298 79.6697 16.106C79.6697 17.0971 80.4317 17.7296 81.4776 17.7296Z" fill="white"/>
<path d="M87.8556 17.7296C88.6027 17.7296 89.2352 17.376 89.5589 16.7833H89.6436V17.6399H90.6696V10.0995H89.5988V13.0778H89.5191C89.2252 12.4802 88.5977 12.1266 87.8556 12.1266C86.486 12.1266 85.6044 13.2123 85.6044 14.9256C85.6044 16.6438 86.476 17.7296 87.8556 17.7296ZM88.1594 13.0878C89.0559 13.0878 89.6187 13.8 89.6187 14.9306C89.6187 16.0661 89.0609 16.7684 88.1594 16.7684C87.253 16.7684 86.7101 16.0761 86.7101 14.9256C86.7101 13.7851 87.258 13.0878 88.1594 13.0878Z" fill="white"/>
<path d="M97.6133 17.7445C99.1971 17.7445 100.168 16.6837 100.168 14.9256C100.168 13.1774 99.1922 12.1116 97.6133 12.1116C96.0296 12.1116 95.0534 13.1774 95.0534 14.9256C95.0534 16.6837 96.0246 17.7445 97.6133 17.7445ZM97.6133 16.7933C96.682 16.7933 96.159 16.1109 96.159 14.9256C96.159 13.7502 96.682 13.0629 97.6133 13.0629C98.5397 13.0629 99.0676 13.7502 99.0676 14.9256C99.0676 16.106 98.5397 16.7933 97.6133 16.7933Z" fill="white"/>
<path d="M101.586 17.6399H102.657V14.4674C102.657 13.6207 103.16 13.0928 103.951 13.0928C104.743 13.0928 105.122 13.5261 105.122 14.3977V17.6399H106.193V14.1287C106.193 12.8388 105.525 12.1116 104.315 12.1116C103.498 12.1116 102.96 12.4752 102.696 13.0778H102.617V12.2162H101.586V17.6399Z" fill="white"/>
<path d="M111.124 10.8665V12.2411H110.263V13.1426H111.124V16.2056C111.124 17.2515 111.598 17.6698 112.788 17.6698C112.997 17.6698 113.196 17.6449 113.371 17.615V16.7235C113.221 16.7385 113.127 16.7484 112.962 16.7484C112.429 16.7484 112.195 16.4994 112.195 15.9316V13.1426H113.371V12.2411H112.195V10.8665H111.124Z" fill="white"/>
<path d="M114.808 17.6399H115.879V14.4724C115.879 13.6506 116.367 13.0978 117.243 13.0978C118 13.0978 118.404 13.536 118.404 14.4026V17.6399H119.475V14.1387C119.475 12.8487 118.762 12.1166 117.607 12.1166C116.79 12.1166 116.217 12.4802 115.953 13.0878H115.869V10.0995H114.808V17.6399Z" fill="white"/>
<path d="M123.337 13.023C124.129 13.023 124.647 13.5759 124.672 14.4275H121.933C121.993 13.5809 122.546 13.023 123.337 13.023ZM124.667 16.1757C124.468 16.599 124.025 16.8331 123.377 16.8331C122.521 16.8331 121.968 16.2305 121.933 15.2792V15.2194H125.763V14.8459C125.763 13.1426 124.852 12.1116 123.342 12.1116C121.813 12.1116 120.842 13.2123 120.842 14.9455C120.842 16.6787 121.794 17.7445 123.347 17.7445C124.588 17.7445 125.454 17.1469 125.698 16.1757H124.667Z" fill="white"/>
<path d="M29.7228 24.361C29.7488 22.3438 30.8321 20.4351 32.5507 19.3785C31.4665 17.8301 29.6505 16.8484 27.7613 16.7893C25.7462 16.5778 23.7926 17.9951 22.7658 17.9951C21.7191 17.9951 20.1381 16.8103 18.4356 16.8453C16.2165 16.917 14.1477 18.1787 13.0681 20.1188C10.7473 24.1369 12.4784 30.0421 14.7015 33.2901C15.8138 34.8805 17.1137 36.657 18.8147 36.594C20.4791 36.525 21.1008 35.5326 23.11 35.5326C25.1005 35.5326 25.6837 36.594 27.4192 36.554C29.2052 36.525 30.3305 34.9565 31.4038 33.351C32.2029 32.2178 32.8179 30.9653 33.2259 29.64C31.1269 28.7522 29.7252 26.6399 29.7228 24.361Z" fill="white"/>
<path d="M26.4448 14.6533C27.4186 13.4842 27.8984 11.9816 27.7822 10.4646C26.2944 10.6208 24.9201 11.3319 23.9331 12.4561C22.968 13.5545 22.4657 15.0307 22.5607 16.4898C24.049 16.5051 25.5121 15.8133 26.4448 14.6533Z" fill="white"/>
<path d="M5.18546 47.3606L5.64468 46.2519L5.18546 47.3606ZM0.639412 42.8145L-0.469244 43.2738L0.639412 42.8145ZM143.361 42.8145L144.469 43.2738L143.361 42.8145ZM138.815 47.3606L138.355 46.2519L138.815 47.3606ZM138.815 0.639412L139.274 -0.469244L138.815 0.639412ZM143.361 5.18546L142.252 5.64468L143.361 5.18546ZM5.18546 0.639412L4.72624 -0.469244L5.18546 0.639412ZM0.639412 5.18546L-0.469244 4.72624L0.639412 5.18546ZM12.6 1.2H131.4V-1.2H12.6V1.2ZM142.8 12.6V35.4H145.2V12.6H142.8ZM131.4 46.8H12.6V49.2H131.4V46.8ZM1.2 35.4V12.6H-1.2V35.4H1.2ZM12.6 46.8C10.6266 46.8 9.2067 46.7994 8.08558 46.7229C6.97524 46.6471 6.24593 46.501 5.64468 46.2519L4.72624 48.4692C5.66867 48.8596 6.68967 49.0332 7.92221 49.1173C9.14397 49.2006 10.6595 49.2 12.6 49.2V46.8ZM-1.2 35.4C-1.2 37.3405 -1.20065 38.856 -1.11729 40.0778C-1.03319 41.3103 -0.85961 42.3313 -0.469244 43.2738L1.74807 42.3553C1.49902 41.7541 1.3529 41.0248 1.27714 39.9144C1.20065 38.7933 1.2 37.3734 1.2 35.4H-1.2ZM5.64468 46.2519C3.88048 45.5212 2.47882 44.1195 1.74807 42.3553L-0.469244 43.2738C0.505099 45.626 2.37397 47.4949 4.72624 48.4692L5.64468 46.2519ZM142.8 35.4C142.8 37.3734 142.799 38.7933 142.723 39.9144C142.647 41.0248 142.501 41.7541 142.252 42.3553L144.469 43.2738C144.86 42.3313 145.033 41.3103 145.117 40.0778C145.201 38.856 145.2 37.3405 145.2 35.4H142.8ZM131.4 49.2C133.341 49.2 134.856 49.2006 136.078 49.1173C137.31 49.0332 138.331 48.8596 139.274 48.4692L138.355 46.2519C137.754 46.501 137.025 46.6471 135.914 46.7229C134.793 46.7994 133.373 46.8 131.4 46.8V49.2ZM142.252 42.3553C141.521 44.1195 140.12 45.5212 138.355 46.2519L139.274 48.4692C141.626 47.4949 143.495 45.626 144.469 43.2738L142.252 42.3553ZM131.4 1.2C133.373 1.2 134.793 1.20065 135.914 1.27714C137.025 1.3529 137.754 1.49902 138.355 1.74807L139.274 -0.469244C138.331 -0.85961 137.31 -1.03319 136.078 -1.11729C134.856 -1.20065 133.341 -1.2 131.4 -1.2V1.2ZM145.2 12.6C145.2 10.6595 145.201 9.14396 145.117 7.92221C145.033 6.68967 144.86 5.66867 144.469 4.72624L142.252 5.64468C142.501 6.24593 142.647 6.97524 142.723 8.08558C142.799 9.2067 142.8 10.6266 142.8 12.6H145.2ZM138.355 1.74807C140.12 2.47882 141.521 3.88048 142.252 5.64468L144.469 4.72624C143.495 2.37397 141.626 0.505099 139.274 -0.469244L138.355 1.74807ZM12.6 -1.2C10.6595 -1.2 9.14396 -1.20065 7.92221 -1.11729C6.68967 -1.03319 5.66867 -0.85961 4.72624 -0.469244L5.64468 1.74807C6.24593 1.49902 6.97524 1.3529 8.08558 1.27714C9.2067 1.20065 10.6266 1.2 12.6 1.2V-1.2ZM1.2 12.6C1.2 10.6266 1.20065 9.20669 1.27714 8.08558C1.3529 6.97524 1.49902 6.24593 1.74807 5.64468L-0.469244 4.72624C-0.85961 5.66867 -1.03319 6.68967 -1.11729 7.92221C-1.20065 9.14396 -1.2 10.6595 -1.2 12.6H1.2ZM4.72624 -0.469244C2.37397 0.505099 0.505099 2.37397 -0.469244 4.72624L1.74807 5.64468C2.47882 3.88048 3.88048 2.47882 5.64468 1.74807L4.72624 -0.469244Z" fill="#A6A6A6"/>
</svg>
