<svg width="67" height="53" viewBox="0 0 67 53" fill="none" xmlns="http://www.w3.org/2000/svg">
<path d="M57.0966 24.5494L57.2953 24.8769C58.6596 27.1255 59.27 29.2603 58.9913 31.2224C58.7107 33.1978 57.5423 34.906 55.541 36.3166C53.1897 38.0034 50.5412 39.2312 47.7345 39.9355L47.7306 39.9364C43.3186 41.006 38.8026 41.5889 34.2636 41.6747L34.2541 41.6749L34.2541 41.6748C28.2587 41.6739 22.266 41.3301 16.2905 40.9873C14.0374 40.858 11.7867 40.7289 9.5392 40.6183L9.53737 40.6182C8.8793 40.5835 8.20668 40.4653 7.43069 40.329C7.0466 40.2615 6.6372 40.1896 6.1917 40.1211L5.2614 39.9781L5.90066 39.2873C7.18352 37.901 8.7515 37.0316 10.1843 36.2373C10.3596 36.14 10.5329 36.044 10.7034 35.9482C12.2233 35.0945 13.526 34.2653 14.3506 32.9111C14.0569 32.2258 13.6944 31.9969 13.3599 31.9216C12.9332 31.8257 12.4091 31.9426 11.7962 32.1556L11.7879 32.1585L11.7795 32.1611C8.03082 33.3181 4.67121 35.4809 2.06605 38.4141C1.49607 39.0898 1.10269 39.6275 0.862789 40.0869C0.625592 40.541 0.555057 40.8871 0.589513 41.1922C0.624317 41.5003 0.773977 41.8356 1.10821 42.2528C1.44515 42.6734 1.94349 43.1452 2.6292 43.7252L2.62945 43.7254C4.90718 45.6545 7.15617 47.6566 9.38139 49.6375C10.2172 50.3816 11.0497 51.1227 11.8791 51.8558L11.8806 51.8571C11.9472 51.9165 12.0088 51.9812 12.0571 52.0326C12.0664 52.0424 12.0751 52.0517 12.0835 52.0606C12.1238 52.1035 12.1554 52.1373 12.1876 52.1687C12.209 52.1896 12.2251 52.2039 12.2367 52.2134C12.4502 52.2311 12.6671 52.2572 12.8743 52.2821L12.9194 52.2875C13.1643 52.3169 13.3963 52.3439 13.6205 52.3584C14.0355 52.3852 14.3675 52.3638 14.6277 52.2672C14.6357 52.2486 14.6452 52.2235 14.6555 52.1911C14.6969 52.0601 14.731 51.8708 14.7468 51.6514C14.7624 51.4344 14.7587 51.2071 14.7344 51.0045C14.7102 50.803 14.6691 50.6575 14.628 50.5732C13.6133 48.8608 12.5096 47.2026 11.3215 45.6056L10.7257 44.8047L11.7239 44.8071C12.0783 44.808 12.412 44.8075 12.7305 44.8069C13.5505 44.8056 14.2699 44.8045 14.9851 44.8278C14.9853 44.8278 14.9855 44.8278 14.9857 44.8278L14.9694 45.3275L57.0966 24.5494ZM57.0966 24.5494L56.7286 24.656M57.0966 24.5494L56.7286 24.656M56.7286 24.656C55.9273 24.8883 55.1356 25.1461 54.364 25.3974C53.9259 25.54 53.4944 25.6805 53.0712 25.8131C51.8882 26.1837 50.7397 26.5026 49.5792 26.6797L49.5792 26.6796M56.7286 24.656L49.5792 26.6796M49.5792 26.6796L49.5712 26.681M49.5792 26.6796L49.5712 26.681M49.5712 26.681C46.9662 27.1219 44.3116 27.1891 41.6876 26.8804C40.4479 26.7244 39.3156 26.0976 38.5254 25.1296C37.7348 24.161 37.3473 22.9253 37.4433 21.6788L37.4445 21.6639M49.5712 26.681L37.4445 21.6639M37.4445 21.6639L37.4447 21.649M37.4445 21.6639L37.4447 21.649M37.4447 21.649C37.469 20.2388 37.9399 19.0769 38.7591 18.2126C39.5811 17.3452 40.7859 16.7441 42.3309 16.5208L42.3321 16.5207M37.4447 21.649L42.3321 16.5207M42.3321 16.5207C46.4201 15.9203 50.263 16.992 54.0174 18.7436C54.6246 19.0294 55.1998 19.3414 55.7753 19.6536C56.0721 19.8147 56.3691 19.9757 56.6705 20.1333L56.8925 20.2493M42.3321 16.5207L56.8925 20.2493M56.8925 20.2493L57.1183 20.141M56.8925 20.2493L57.1183 20.141M57.1183 20.141C58.6055 19.4276 59.8049 18.7294 60.7167 17.838C61.6416 16.9338 62.2495 15.8522 62.5946 14.4101C62.9359 12.9838 63.0196 11.2072 62.9137 8.90517C62.812 6.69289 62.5333 3.96558 62.1228 0.555657C62.9026 0.399417 63.4227 0.581156 63.8232 0.904232C64.334 1.3164 64.7154 2.00873 65.0887 2.8514C66.2857 5.55913 66.5147 9.03968 65.9044 12.3979C65.2941 15.756 63.8567 18.9254 61.7963 21.0251C61.5066 21.3176 61.2131 21.5982 60.8886 21.9086C60.7269 22.0631 60.5576 22.2251 60.3772 22.3995L60.1131 22.6548M57.1183 20.141L60.1131 22.6548M60.1131 22.6548L60.2779 22.9832M60.1131 22.6548L60.2779 22.9832M60.2779 22.9832C60.4338 23.2938 60.5813 23.5757 60.7211 23.8427M60.2779 22.9832L60.7211 23.8427M60.7211 23.8427C60.9517 24.2834 61.1612 24.6836 61.3522 25.1061M60.7211 23.8427L61.3522 25.1061M61.3522 25.1061C63.4812 29.9176 62.6136 34.8827 58.5857 38.1782L61.3522 25.1061ZM14.6058 52.3098C14.6058 52.3097 14.6066 52.3085 14.6082 52.3064C14.6066 52.3088 14.6058 52.3099 14.6058 52.3098ZM49.4313 23.5262C50.1574 23.4139 50.8809 23.3019 51.598 23.201L52.2465 23.6194L52.2467 22.702L52.247 21.6793L52.2471 21.3867L51.992 21.2433C49.7187 19.9654 47.1557 19.2916 44.5479 19.2862C43.3268 19.2805 42.3074 19.4623 41.6017 19.8722C41.2417 20.0814 40.9487 20.3588 40.7667 20.7133C40.5833 21.0704 40.5316 21.4688 40.595 21.8844C40.676 22.4222 40.8565 22.864 41.1284 23.2145C41.4008 23.5656 41.7456 23.7999 42.1166 23.9514C42.838 24.246 43.6811 24.2349 44.3726 24.1828L44.3745 24.1826C46.042 24.0505 47.7435 23.7873 49.4313 23.5262Z" fill="#6C5DD3" stroke="#1E222A"/>
</svg>
