<svg width="175" height="72" viewBox="0 0 175 72" fill="none" xmlns="http://www.w3.org/2000/svg">
<path d="M8.31362 34.0008C9.39881 33.8676 10.2205 33.6122 10.7786 33.2347C11.3368 32.8572 11.5801 32.3773 11.5086 31.795C11.4452 31.2789 11.2122 30.8575 10.8093 30.5308C10.4049 30.1909 9.92175 29.9211 9.35989 29.7214C8.79804 29.5217 8.0386 29.2993 7.08159 29.0541C6.99893 29.0374 6.7981 28.9882 6.4791 28.9064C5.17336 28.5563 4.15215 28.1712 3.41547 27.7512C2.69203 27.3295 2.28156 26.7217 2.18406 25.9277C2.07519 25.041 2.34383 24.3296 2.98998 23.7935C3.63614 23.2575 4.50842 22.922 5.60684 22.7871C6.41411 22.688 7.16821 22.7029 7.86914 22.8317C8.58168 22.9458 9.1584 23.157 9.59929 23.4656C10.0534 23.7726 10.3081 24.151 10.3633 24.601C10.2143 24.6999 10.067 24.7583 9.9214 24.7761C9.76259 24.7956 9.59311 24.7829 9.41294 24.7378C9.24438 24.6779 8.99074 24.5814 8.652 24.4484C8.10175 24.2338 7.5919 24.0748 7.12245 23.9712C6.65137 23.8544 6.11145 23.8334 5.50268 23.9082C4.73512 24.0024 4.12937 24.2111 3.68545 24.5343C3.24152 24.8575 3.04881 25.2573 3.10731 25.7337C3.1528 26.1042 3.35305 26.4222 3.70803 26.6876C4.07626 26.9513 4.51982 27.1723 5.03873 27.3504C5.56924 27.5136 6.27086 27.7028 7.1436 27.9181C8.25269 28.1983 9.17325 28.4749 9.90529 28.7477C10.6373 29.0205 11.2757 29.4056 11.8204 29.9029C12.3766 30.3854 12.7011 31.0038 12.7937 31.7581C12.9026 32.6448 12.5636 33.385 11.7767 33.9786C10.9883 34.559 9.9654 34.9264 8.70818 35.0808C7.71563 35.2027 6.71845 35.1773 5.71662 35.0048C4.71479 34.8323 3.83486 34.5037 3.07682 34.0192C2.31716 33.5214 1.79513 32.8802 1.51074 32.0957C1.46686 31.7384 1.52875 31.4218 1.69638 31.146C1.86239 30.8569 2.09097 30.6945 2.38212 30.6588C2.48774 31.519 2.81613 32.2242 3.3673 32.7745C3.93008 33.3099 4.64041 33.6794 5.49828 33.883C6.3694 34.0851 7.30784 34.1243 8.31362 34.0008ZM19.1972 33.4302C18.3503 33.5342 17.5492 33.4646 16.7939 33.2215C16.0386 32.9784 15.4119 32.5785 14.9137 32.0217C14.4154 31.465 14.1176 30.7896 14.0201 29.9955C13.9112 29.1089 13.9751 28.2614 14.2117 27.4532C14.4466 26.6318 14.8533 25.9505 15.4317 25.4093C16.0216 24.8533 16.7467 24.5224 17.6069 24.4168C18.5068 24.3063 19.2241 24.5138 19.7588 25.0392C20.2919 25.5514 20.5988 26.2458 20.6796 27.1225C20.7754 27.9033 20.5376 28.537 19.9659 29.0237C19.4076 29.5087 18.6519 29.8097 17.6991 29.9267C17.5535 29.9445 17.3335 29.9581 17.0391 29.9674C16.5562 29.9729 16.2098 29.9416 15.9999 29.8733C15.79 29.8051 15.668 29.632 15.6339 29.3541C15.6225 29.2614 15.6409 29.192 15.689 29.1458C15.7354 29.0864 15.838 29.0469 15.9968 29.0274C16.1689 29.0063 16.4781 29.0086 16.9246 29.0344C17.3578 29.0618 17.7399 29.0552 18.0707 29.0146C19.2882 28.8651 19.832 28.261 19.702 27.2023C19.624 26.567 19.4432 26.0788 19.1594 25.7375C18.889 25.3945 18.4626 25.2588 17.8803 25.3303C17.2451 25.4083 16.6971 25.6502 16.2365 26.0561C15.7742 26.4486 15.4374 26.9333 15.2261 27.51C15.0281 28.0851 14.9664 28.677 15.0412 29.2858C15.1696 30.3313 15.5663 31.1557 16.2315 31.7592C16.895 32.3494 17.8356 32.5697 19.0531 32.4202C19.1987 32.4024 19.4419 32.3591 19.7827 32.2903C19.9266 32.2592 20.1004 32.1976 20.304 32.1054C20.5077 32.0133 20.6542 31.9483 20.7436 31.9104C21.2882 31.642 21.6929 31.4916 21.9576 31.4591C22.1561 31.4347 22.3148 31.469 22.4337 31.5618C22.1646 32.1054 21.7138 32.5368 21.0813 32.8563C20.4605 33.1609 19.8325 33.3522 19.1972 33.4302ZM27.9365 32.3572C27.0895 32.4611 26.2884 32.3916 25.5331 32.1485C24.7779 31.9054 24.1511 31.5055 23.6529 30.9487C23.1546 30.3919 22.8568 29.7165 22.7593 28.9225C22.6504 28.0358 22.7143 27.1884 22.9509 26.3802C23.1859 25.5588 23.5925 24.8775 24.1709 24.3363C24.7609 23.7802 25.4859 23.4494 26.3461 23.3438C27.2461 23.2333 27.9634 23.4407 28.498 23.9662C29.0311 24.4784 29.338 25.1728 29.4188 26.0495C29.5147 26.8303 29.2768 27.464 28.7052 27.9506C28.1468 28.4356 27.3912 28.7366 26.4383 28.8536C26.2927 28.8715 26.0728 28.8851 25.7784 28.8943C25.2954 28.8999 24.949 28.8686 24.7391 28.8003C24.5293 28.732 24.4073 28.5589 24.3731 28.281C24.3618 28.1884 24.3801 28.119 24.4282 28.0728C24.4746 28.0133 24.5772 27.9739 24.736 27.9544C24.9081 27.9332 25.2173 27.9356 25.6638 27.9614C26.097 27.9888 26.4791 27.9821 26.8099 27.9415C28.0275 27.792 28.5712 27.1879 28.4412 26.1292C28.3632 25.494 28.1824 25.0057 27.8987 24.6644C27.6282 24.3215 27.2018 24.1858 26.6195 24.2573C25.9843 24.3353 25.4363 24.5772 24.9757 24.983C24.5134 25.3756 24.1767 25.8603 23.9654 26.437C23.7673 27.0121 23.7057 27.604 23.7804 28.2128C23.9088 29.2582 24.3055 30.0827 24.9707 30.6861C25.6342 31.2763 26.5748 31.4967 27.7923 31.3472C27.9379 31.3293 28.1811 31.286 28.5219 31.2173C28.6659 31.1862 28.8396 31.1246 29.0433 31.0324C29.2469 30.9402 29.3934 30.8752 29.4828 30.8374C30.0275 30.569 30.4321 30.4186 30.6968 30.3861C30.8953 30.3617 31.054 30.3959 31.1729 30.4888C30.9038 31.0323 30.453 31.4638 29.8206 31.7833C29.1997 32.0879 28.5717 32.2792 27.9365 32.3572ZM41.8965 30.6431C40.5201 30.8121 39.2932 30.7209 38.2157 30.3696C37.1498 30.0034 36.5421 29.2116 36.3926 27.9941C36.339 27.5574 36.4193 27.1176 36.6336 26.6749C36.8479 26.2321 37.1977 25.8533 37.683 25.5385C38.1666 25.2105 38.779 25.0009 39.5201 24.91C40.0891 24.8401 40.5754 24.8072 40.9789 24.8114C41.3824 24.8156 41.8569 24.9051 42.4023 25.08C42.9476 25.2548 43.5299 25.5662 44.1491 26.014C43.8253 25.1269 43.4093 24.3652 42.9013 23.7291C42.3934 23.0929 41.8519 22.622 41.2771 22.3165C40.7138 21.9961 40.1808 21.8667 39.6779 21.9285C39.4397 21.9577 39.2204 22.0317 39.02 22.1503C38.8313 22.2541 38.6011 22.4033 38.3294 22.5978C38.0246 22.8502 37.7927 22.9861 37.6339 23.0056C37.5677 23.0137 37.5058 23.0012 37.4479 22.968C37.4017 22.9199 37.3746 22.8628 37.3665 22.7967C37.3015 22.2673 37.4827 21.8286 37.9101 21.4806C38.3508 21.1309 38.9102 20.9279 39.5884 20.8715C40.5213 20.8107 41.417 21.1037 42.2756 21.7506C43.1325 22.3842 43.846 23.2168 44.4159 24.2484C44.9991 25.2783 45.3549 26.316 45.4833 27.3615C45.5044 27.5335 45.5212 27.78 45.5338 28.1009L44.8937 28.1391C44.2656 27.1819 43.5286 26.5403 42.6826 26.2143C41.8482 25.8734 41.0339 25.7517 40.2399 25.8492C39.2209 25.9743 38.5117 26.2159 38.1123 26.5739C37.713 26.9319 37.5491 27.4021 37.6206 27.9844C37.6953 28.5931 38.0598 29.0454 38.7141 29.3412C39.3683 29.637 40.1719 29.7264 41.1247 29.6094C41.6541 29.5444 42.0743 29.466 42.3854 29.374C42.6949 29.2689 43.0152 29.1422 43.3463 28.9941C43.6128 28.8673 43.8495 28.7711 44.0564 28.7054C44.2633 28.6397 44.5321 28.5865 44.863 28.5459C45.2335 28.5004 45.4684 28.4985 45.5675 28.54C45.6799 28.5799 45.7475 28.6926 45.7702 28.8778C45.7865 29.0102 45.5355 29.2089 45.0173 29.474C44.499 29.7392 43.9122 29.9926 43.2568 30.2342C42.6013 30.4759 42.1479 30.6122 41.8965 30.6431ZM48.431 29.6997C47.9627 28.2929 47.5281 26.6134 47.1272 24.661C46.7379 22.6938 46.4295 20.7838 46.202 18.9311C46.0883 18.0047 46.0074 17.1817 45.9593 16.4622C45.9382 16.2902 46.06 16.1879 46.3246 16.1554C46.5364 16.1294 46.6752 16.1661 46.7412 16.2655C46.8203 16.3632 46.8737 16.5246 46.9014 16.7496C47.1646 18.8935 47.4293 20.7215 47.6956 22.2337C47.9603 23.7326 48.266 25.3474 48.6128 27.078C48.8304 28.1931 48.9767 28.9476 49.0519 29.3413C49.0912 29.5515 48.9917 29.6711 48.7535 29.7004C48.6741 29.7101 48.5666 29.7099 48.431 29.6997ZM51.6065 29.3098C51.1382 27.903 50.7037 26.2235 50.3027 24.2711C49.9134 22.3039 49.605 20.3939 49.3775 18.5412C49.2638 17.6148 49.1829 16.7918 49.1348 16.0723C49.1137 15.9003 49.2355 15.798 49.5002 15.7655C49.7119 15.7395 49.8508 15.7762 49.9167 15.8756C49.9959 15.9733 50.0493 16.1347 50.0769 16.3597C50.3401 18.5036 50.6049 20.3316 50.8711 21.8437C51.1358 23.3427 51.4415 24.9574 51.7884 26.6881C52.0059 27.8032 52.1522 28.5577 52.2275 28.9514C52.2667 29.1616 52.1672 29.2812 51.929 29.3105C51.8496 29.3202 51.7421 29.32 51.6065 29.3098ZM65.1033 37.3247C64.2034 37.4352 63.3725 37.3424 62.6108 37.0464C61.8622 36.7487 61.2454 36.3744 60.7601 35.9235C60.2749 35.4726 59.9863 35.0916 59.8944 34.7805C59.8057 34.4959 59.8442 34.2628 60.01 34.0812C60.189 33.898 60.4257 33.8018 60.7201 33.7925C61.2506 34.7215 61.8329 35.4157 62.467 35.8752C63.101 36.3347 63.949 36.5126 65.011 36.4091C65.7537 36.3313 66.2841 35.7826 66.6022 34.7629C66.9352 33.7548 67.109 32.5446 67.1237 31.1323C67.1399 29.7332 67.066 28.3654 66.9019 27.0287C66.8174 26.3406 66.7285 25.7806 66.6352 25.3487C65.7805 26.703 64.5724 27.476 63.0108 27.6677C61.6609 27.8335 60.5432 27.3192 59.6578 26.1248C58.7855 24.9289 58.1444 23.5367 57.7344 21.9481C57.6884 21.7925 57.6476 21.5692 57.6118 21.2781C57.5095 20.4443 57.7296 19.9941 58.2722 19.9275C58.3251 19.921 58.4385 20.2429 58.6124 20.8932C58.8863 21.9209 59.1804 22.8385 59.4945 23.6463C59.8086 24.454 60.2527 25.1719 60.8269 25.7999C61.4126 26.4131 62.1158 26.6693 62.9363 26.5686C63.5847 26.489 64.2204 26.196 64.8434 25.6896C65.4779 25.1684 65.9149 24.6244 66.1543 24.0577C66.0308 23.0519 65.7879 22.1683 65.4258 21.4067C65.0752 20.6303 64.89 20.2165 64.8703 20.1652C64.8081 19.8773 64.7721 19.6936 64.7624 19.6142C64.7299 19.3495 64.746 19.1528 64.8108 19.0239C64.8888 18.8934 65.0138 18.8176 65.1859 18.7965C65.3711 18.7738 65.6292 19.1249 65.96 19.85C66.2909 20.5751 66.6237 21.535 66.9584 22.7298C67.2932 23.9246 67.5749 25.1796 67.8036 26.4949C67.9145 27.1798 67.9903 27.6877 68.0309 28.0185C68.3429 30.5594 68.2837 32.7026 67.8532 34.4481C67.4359 36.192 66.5193 37.1508 65.1033 37.3247ZM74.0954 26.7097C73.3146 26.8056 72.5854 26.7205 71.908 26.4544C71.2421 26.1734 70.6923 25.7439 70.2586 25.1658C69.8366 24.5728 69.576 23.8727 69.4768 23.0654C69.3143 21.742 69.6763 20.6968 70.5628 19.9297C71.4625 19.161 72.6203 18.6897 74.0364 18.5158C74.6848 18.4362 75.3065 18.5211 75.9013 18.7704C76.5094 19.0182 77.022 19.4187 77.4392 19.972C77.8564 20.5252 78.1129 21.1923 78.2088 21.9731C78.3128 22.8201 78.1854 23.588 77.8267 24.2768C77.4664 24.9524 76.95 25.5062 76.2776 25.938C75.6168 26.355 74.8894 26.6122 74.0954 26.7097ZM73.7381 25.605C74.9689 25.4539 75.8677 25.0614 76.4347 24.4276C77.0017 23.7938 77.2194 22.9409 77.0878 21.8689C76.9984 21.1411 76.6698 20.5433 76.1019 20.0757C75.5472 19.6065 74.8266 19.4263 73.9399 19.5352C73.3443 19.6083 72.756 19.7947 72.1749 20.0944C71.5937 20.3942 71.1323 20.7934 70.7905 21.2921C70.4487 21.7908 70.3169 22.3577 70.3949 22.993C70.4598 23.5223 70.6531 24.0024 70.9747 24.433C71.2946 24.8505 71.6966 25.1706 72.1807 25.3932C72.6764 25.601 73.1955 25.6716 73.7381 25.605ZM89.2574 24.7271C89.0192 24.7564 88.8151 24.6807 88.6452 24.5001C88.4868 24.3046 88.3287 24.0016 88.1709 23.5911C88.0114 23.1674 87.7533 22.4333 87.3967 21.389C87.2806 22.3033 86.9441 23.0633 86.3871 23.6691C85.8285 24.2615 85.0992 24.613 84.1993 24.7235C83.3788 24.8243 82.6491 24.6251 82.0101 24.1259C81.3828 23.6118 80.8725 22.9021 80.4792 21.9966C80.0843 21.0779 79.8194 20.0693 79.6846 18.9709C79.6228 18.468 79.6163 18.0322 79.6651 17.6635C79.7255 17.2799 79.8171 16.9866 79.9399 16.7834C80.0759 16.5787 80.2176 16.474 80.3648 16.4693C80.5236 16.4498 80.616 16.5459 80.642 16.7577C80.6631 16.9297 80.6501 17.2067 80.6029 17.5886C80.5607 18.0103 80.5721 18.4858 80.637 19.0151C80.7345 19.8092 80.9421 20.5695 81.2597 21.2962C81.5905 22.0213 82.011 22.6011 82.521 23.0355C83.0427 23.455 83.6146 23.6266 84.2366 23.5502C84.7527 23.4869 85.2038 23.277 85.5899 22.9206C85.976 22.5642 86.2598 22.1398 86.4411 21.6474C86.6357 21.1533 86.7053 20.6813 86.6501 20.2314L86.2625 17.0751C86.374 16.7793 86.5554 16.616 86.8069 16.5851C87.0319 16.5575 87.2076 16.7307 87.3341 17.1047C87.4607 17.4787 87.567 18.0165 87.6531 18.7179C87.7262 19.3134 87.7757 19.7708 87.8014 20.09C87.9345 20.517 88.108 20.9457 88.3221 21.3761C88.5494 21.805 88.8237 22.2885 89.145 22.8267C89.5355 23.4907 89.7405 23.9021 89.76 24.0609C89.8087 24.4579 89.6412 24.68 89.2574 24.7271ZM93.0281 24.3649C92.3555 23.3728 91.7727 22.1816 91.2796 20.7914C90.7997 19.3995 90.4956 18.1808 90.3672 17.1353C90.3168 16.725 90.377 16.449 90.5476 16.3071C90.6454 16.228 90.7207 16.1851 90.7736 16.1786C90.8663 16.1673 90.9414 16.2319 90.999 16.3726C91.0698 16.5117 91.1552 16.7699 91.2553 17.1472L91.4423 17.8496C91.5001 17.1171 91.7089 16.5205 92.0688 16.0599C92.4403 15.5844 92.9304 15.3093 93.5392 15.2346C94.2141 15.1517 94.7333 15.2223 95.0966 15.4463C95.4583 15.6572 95.6758 16.0603 95.7489 16.6559C95.0482 16.4195 94.4265 16.3346 93.884 16.4012C93.3678 16.4646 92.9416 16.658 92.6051 16.9814C92.2687 17.3048 92.061 17.7468 91.9821 18.3072C91.9085 18.6924 91.892 19.0504 91.9326 19.3813C91.9765 19.7386 92.0642 20.0704 92.1958 20.3766C92.3391 20.668 92.5442 21.0256 92.8112 21.4496C93.0666 21.8884 93.2675 22.2668 93.414 22.5846C93.5737 22.9008 93.6838 23.25 93.7441 23.6322C93.7718 23.8572 93.7127 24.0323 93.5669 24.1577C93.4194 24.2698 93.2398 24.3389 93.0281 24.3649ZM106.957 22.6748C105.409 22.8649 104.162 22.662 103.215 22.0663C102.281 21.4556 101.722 20.4092 101.54 18.927C101.448 18.1727 101.545 17.4353 101.833 16.7149C102.132 15.9796 102.574 15.3678 103.159 14.8795C103.756 14.3764 104.424 14.0794 105.165 13.9884C105.92 13.8958 106.582 13.9824 107.152 14.2482C107.72 14.5009 108.042 14.9315 108.117 15.5403C108.169 15.9638 108.126 16.2779 107.99 16.4827C107.866 16.6726 107.711 16.7789 107.526 16.8017C107.448 16.1665 107.212 15.6715 106.82 15.3167C106.427 14.9619 105.913 14.8235 105.278 14.9015C104.642 14.9795 104.114 15.219 103.693 15.62C103.271 16.0077 102.968 16.4949 102.785 17.0816C102.613 17.6534 102.564 18.2371 102.637 18.8326C102.791 20.0899 103.32 20.8915 104.222 21.2374C105.137 21.5818 106.296 21.6678 107.699 21.4956C108.176 21.4371 108.794 21.3342 109.555 21.187C109.582 21.1838 109.645 21.2029 109.744 21.2445C109.843 21.2861 109.92 21.3102 109.974 21.317L109.989 21.4361C110.036 21.8198 109.728 22.0995 109.064 22.275C108.401 22.4505 107.698 22.5838 106.957 22.6748ZM115.835 21.5646C114.459 21.7336 113.232 21.6424 112.154 21.2911C111.088 20.9249 110.481 20.1331 110.331 18.9156C110.277 18.4789 110.358 18.0391 110.572 17.5964C110.786 17.1536 111.136 16.7748 111.621 16.46C112.105 16.132 112.717 15.9224 113.459 15.8314C114.028 15.7616 114.514 15.7287 114.917 15.7329C115.321 15.7371 115.795 15.8266 116.341 16.0015C116.886 16.1763 117.468 16.4877 118.088 16.9355C117.764 16.0484 117.348 15.2867 116.84 14.6506C116.332 14.0144 115.79 13.5435 115.216 13.238C114.652 12.9176 114.119 12.7882 113.616 12.85C113.378 12.8792 113.159 12.9532 112.959 13.0718C112.77 13.1756 112.54 13.3248 112.268 13.5193C111.963 13.7717 111.731 13.9076 111.572 13.9271C111.506 13.9352 111.444 13.9227 111.386 13.8895C111.34 13.8414 111.313 13.7843 111.305 13.7182C111.24 13.1888 111.421 12.7501 111.849 12.4021C112.289 12.0524 112.849 11.8494 113.527 11.793C114.46 11.7322 115.355 12.0252 116.214 12.6721C117.071 13.3057 117.784 14.1383 118.354 15.1699C118.938 16.1998 119.293 17.2375 119.422 18.283C119.443 18.455 119.46 18.7015 119.472 19.0223L118.832 19.0606C118.204 18.1034 117.467 17.4617 116.621 17.1358C115.787 16.7949 114.972 16.6732 114.178 16.7707C113.159 16.8958 112.45 17.1374 112.051 17.4954C111.651 17.8534 111.488 18.3236 111.559 18.9059C111.634 19.5146 111.998 19.9669 112.653 20.2627C113.307 20.5585 114.11 20.6479 115.063 20.5309C115.593 20.4659 116.013 20.3875 116.324 20.2955C116.633 20.1904 116.954 20.0637 117.285 19.9156C117.551 19.7888 117.788 19.6926 117.995 19.6269C118.202 19.5612 118.471 19.508 118.801 19.4674C119.172 19.4219 119.407 19.4199 119.506 19.4615C119.618 19.5014 119.686 19.614 119.709 19.7993C119.725 19.9317 119.474 20.1304 118.956 20.3955C118.438 20.6607 117.851 20.9141 117.195 21.1557C116.54 21.3974 116.086 21.5337 115.835 21.5646ZM122.369 20.6212C121.901 19.2144 121.467 17.5349 121.066 15.5825C120.676 13.6153 120.368 11.7053 120.14 9.85256C120.027 8.92618 119.946 8.10324 119.898 7.38373C119.877 7.21169 119.998 7.10942 120.263 7.07692C120.475 7.05092 120.614 7.08761 120.68 7.18698C120.759 7.28473 120.812 7.44609 120.84 7.67107C121.103 9.81497 121.368 11.643 121.634 13.1551C121.899 14.6541 122.204 16.2688 122.551 17.9995C122.769 19.1146 122.915 19.8691 122.99 20.2628C123.03 20.473 122.93 20.5926 122.692 20.6219C122.613 20.6316 122.505 20.6314 122.369 20.6212ZM129.155 19.9291C128.308 20.0331 127.507 19.9635 126.752 19.7204C125.996 19.4773 125.37 19.0774 124.872 18.5206C124.373 17.9638 124.075 17.2884 123.978 16.4944C123.869 15.6077 123.933 14.7603 124.17 13.9521C124.404 13.1307 124.811 12.4494 125.39 11.9082C125.979 11.3521 126.705 11.0213 127.565 10.9157C128.465 10.8052 129.182 11.0127 129.717 11.5381C130.25 12.0503 130.557 12.7447 130.637 13.6214C130.733 14.4022 130.495 15.0359 129.924 15.5225C129.365 16.0075 128.61 16.3085 127.657 16.4255C127.511 16.4434 127.291 16.457 126.997 16.4663C126.514 16.4718 126.168 16.4405 125.958 16.3722C125.748 16.3039 125.626 16.1309 125.592 15.8529C125.58 15.7603 125.599 15.6909 125.647 15.6447C125.693 15.5852 125.796 15.5458 125.955 15.5263C126.127 15.5052 126.436 15.5075 126.882 15.5333C127.316 15.5607 127.698 15.5541 128.029 15.5134C129.246 15.3639 129.79 14.7598 129.66 13.7011C129.582 13.0659 129.401 12.5776 129.117 12.2363C128.847 11.8934 128.42 11.7577 127.838 11.8292C127.203 11.9072 126.655 12.1491 126.194 12.5549C125.732 12.9475 125.395 13.4322 125.184 14.0089C124.986 14.584 124.924 15.1759 124.999 15.7847C125.127 16.8302 125.524 17.6546 126.189 18.258C126.853 18.8482 127.793 19.0686 129.011 18.9191C129.156 18.9012 129.4 18.8579 129.741 18.7892C129.884 18.7581 130.058 18.6965 130.262 18.6043C130.466 18.5121 130.612 18.4471 130.701 18.4093C131.246 18.1409 131.651 17.9905 131.915 17.958C132.114 17.9336 132.273 17.9678 132.392 18.0607C132.122 18.6042 131.672 19.0357 131.039 19.3552C130.418 19.6598 129.79 19.8511 129.155 19.9291ZM135.105 19.2791C134.926 19.3548 134.824 19.3943 134.797 19.3975C134.691 19.4105 134.572 19.3714 134.44 19.2801C133.924 18.6853 133.467 17.5928 133.071 16.0026C132.687 14.4108 132.424 13.0326 132.281 11.868C132.258 11.6828 132.379 11.5739 132.644 11.5414C133.041 11.4926 133.266 11.6866 133.32 12.1233C133.334 12.2424 133.34 12.3425 133.336 12.4235C133.421 12.131 133.611 11.8189 133.907 11.4871C134.202 11.1553 134.555 10.8634 134.968 10.6112C135.38 10.3591 135.811 10.2054 136.261 10.1502C137.677 9.9763 138.787 10.4782 139.589 11.6558C140.391 12.8201 140.905 14.3287 141.132 16.1815C141.21 16.8167 141.207 17.3343 141.122 17.7343C141.035 18.1211 140.879 18.3284 140.654 18.356C140.416 18.3852 140.288 18.3271 140.27 18.1815C140.276 17.4687 140.238 16.7749 140.155 16.0999C139.946 14.3928 139.489 13.139 138.787 12.3387C138.082 11.5251 137.24 11.1785 136.261 11.2987C135.785 11.3572 135.336 11.5332 134.915 11.8267C134.508 12.1185 134.191 12.4932 133.965 12.9508C133.753 13.4068 133.68 13.9061 133.746 14.4487C133.821 15.0575 133.919 15.5827 134.041 16.0246C134.162 16.4664 134.334 16.996 134.558 17.6134C134.793 18.2159 134.976 18.7711 135.105 19.2791ZM146.233 17.8121C145.611 17.8884 145.042 17.7433 144.527 17.3767C144.025 17.0085 143.613 16.5015 143.292 15.8558C142.984 15.2085 142.786 14.5209 142.696 13.7931C142.54 12.5226 142.673 11.4182 143.096 10.4797C143.531 9.53966 144.298 9.00219 145.396 8.86732C146.058 8.78607 146.648 8.8345 147.167 9.01258C147.698 9.17581 148.4 9.47917 149.274 9.92264L149.834 10.2166C149.714 9.78799 149.553 9.29728 149.351 8.74447C149.148 8.19166 149.015 7.81182 148.949 7.60495C148.597 6.60033 148.337 5.85307 148.17 5.36318C148.014 4.85843 147.911 4.40755 147.863 4.01053C147.777 3.30913 147.932 2.93406 148.329 2.88531C148.514 3.18505 148.769 3.84547 149.096 4.86658C149.421 5.87446 149.847 7.25961 150.372 9.02206C150.924 10.8887 151.393 12.4096 151.779 13.5847C152.165 14.7597 152.456 15.4897 152.652 15.7745C152.689 16.0789 152.483 16.2587 152.033 16.314C151.689 16.3562 151.427 16.187 151.245 15.8062C151.078 15.4238 150.919 14.738 150.771 13.7487L150.612 13.7682C150.18 14.8422 149.56 15.7579 148.753 16.5152C147.946 17.2725 147.106 17.7048 146.233 17.8121ZM146.371 16.8077C146.914 16.7411 147.468 16.4446 148.035 15.9183C148.614 15.3771 149.081 14.7554 149.438 14.0534C149.794 13.338 149.939 12.7157 149.874 12.1863L149.801 11.5908C148.262 10.3289 146.917 9.76865 145.766 9.91002C144.959 10.0091 144.373 10.3833 144.01 11.0324C143.644 11.6683 143.52 12.4627 143.637 13.4156L143.708 13.83C143.911 14.826 144.234 15.5924 144.676 16.1292C145.118 16.666 145.683 16.8922 146.371 16.8077ZM158.93 16.2732C157.554 16.4421 156.327 16.351 155.249 15.9997C154.183 15.6335 153.576 14.8417 153.426 13.6242C153.373 13.1874 153.453 12.7477 153.667 12.305C153.882 11.8622 154.231 11.4834 154.717 11.1686C155.2 10.8406 155.813 10.631 156.554 10.54C157.123 10.4702 157.609 10.4373 158.013 10.4415C158.416 10.4457 158.89 10.5352 159.436 10.71C159.981 10.8849 160.564 11.1962 161.183 11.6441C160.859 10.757 160.443 9.99532 159.935 9.35916C159.427 8.72299 158.886 8.25213 158.311 7.94657C157.747 7.62616 157.214 7.49683 156.711 7.55858C156.473 7.58782 156.254 7.66177 156.054 7.7804C155.865 7.88418 155.635 8.03335 155.363 8.2279C155.058 8.48027 154.826 8.6162 154.668 8.6357C154.601 8.64383 154.539 8.63129 154.482 8.59809C154.435 8.55002 154.408 8.49291 154.4 8.42674C154.335 7.89738 154.516 7.45869 154.944 7.11067C155.384 6.76103 155.944 6.558 156.622 6.5016C157.555 6.44079 158.451 6.73382 159.309 7.38067C160.166 8.01429 160.88 8.84689 161.45 9.87845C162.033 10.9084 162.389 11.9461 162.517 12.9916C162.538 13.1636 162.555 13.4101 162.567 13.7309L161.927 13.7692C161.299 12.812 160.562 12.1703 159.716 11.8443C158.882 11.5035 158.068 11.3818 157.273 11.4793C156.254 11.6044 155.545 11.846 155.146 12.204C154.747 12.562 154.583 13.0321 154.654 13.6144C154.729 14.2232 155.093 14.6755 155.748 14.9713C156.402 15.2671 157.206 15.3565 158.158 15.2395C158.688 15.1745 159.108 15.096 159.419 15.0041C159.729 14.8989 160.049 14.7723 160.38 14.6242C160.646 14.4974 160.883 14.4012 161.09 14.3355C161.297 14.2698 161.566 14.2166 161.897 14.176C162.267 14.1305 162.502 14.1285 162.601 14.1701C162.714 14.21 162.781 14.3226 162.804 14.5079C162.82 14.6402 162.569 14.839 162.051 15.1041C161.533 15.3692 160.946 15.6227 160.29 15.8643C159.635 16.106 159.182 16.2423 158.93 16.2732ZM166.137 15.3883C165.464 14.3962 164.881 13.205 164.388 11.8147C163.908 10.4229 163.604 9.20417 163.476 8.15868C163.425 7.74843 163.486 7.47238 163.656 7.33052C163.754 7.25135 163.829 7.20852 163.882 7.20202C163.975 7.19065 164.05 7.25531 164.108 7.39601C164.178 7.53508 164.264 7.79326 164.364 8.17054L164.551 8.87299C164.609 8.14048 164.818 7.54392 165.177 7.08329C165.549 6.60781 166.039 6.33269 166.648 6.25795C167.323 6.17508 167.842 6.24567 168.205 6.46972C168.567 6.68055 168.784 7.08372 168.858 7.67925C168.157 7.44288 167.535 7.35801 166.993 7.42463C166.476 7.488 166.05 7.68139 165.714 8.0048C165.377 8.32821 165.17 8.77015 165.091 9.33062C165.017 9.71579 165.001 10.0738 165.041 10.4047C165.085 10.762 165.173 11.0937 165.304 11.4C165.448 11.6914 165.653 12.049 165.92 12.473C166.175 12.9118 166.376 13.2901 166.523 13.608C166.682 13.9242 166.792 14.2734 166.853 14.6556C166.88 14.8805 166.821 15.0557 166.675 15.1811C166.528 15.2932 166.348 15.3623 166.137 15.3883ZM51.4295 55.6678C50.0532 55.8368 48.8263 55.7457 47.7488 55.3944C46.6829 55.0282 46.0752 54.2364 45.9257 53.0188C45.8721 52.5821 45.9524 52.1424 46.1667 51.6996C46.381 51.2569 46.7308 50.8781 47.216 50.5633C47.6997 50.2352 48.312 50.0257 49.0531 49.9347C49.6222 49.8648 50.1085 49.832 50.512 49.8362C50.9155 49.8404 51.39 49.9299 51.9353 50.1047C52.4807 50.2796 53.063 50.5909 53.6822 51.0388C53.3583 50.1516 52.9424 49.39 52.4344 48.7538C51.9264 48.1177 51.385 47.6468 50.8102 47.3412C50.2469 47.0208 49.7138 46.8915 49.211 46.9532C48.9727 46.9825 48.7535 47.0564 48.5531 47.1751C48.3643 47.2788 48.1341 47.428 47.8625 47.6226C47.5576 47.8749 47.3258 48.0109 47.167 48.0304C47.1008 48.0385 47.0388 48.026 46.981 47.9927C46.9348 47.9447 46.9077 47.8876 46.8995 47.8214C46.8345 47.292 47.0158 46.8534 47.4432 46.5053C47.8839 46.1557 48.4433 45.9527 49.1215 45.8963C50.0544 45.8355 50.9501 46.1285 51.8086 46.7753C52.6656 47.409 53.379 48.2415 53.949 49.2731C54.5322 50.303 54.888 51.3408 55.0163 52.3862C55.0375 52.5583 55.0543 52.8047 55.0668 53.1256L54.4267 53.1639C53.7987 52.2066 53.0617 51.565 52.2157 51.239C51.3812 50.8982 50.567 50.7765 49.773 50.874C48.7539 50.9991 48.0448 51.2407 47.6454 51.5987C47.2461 51.9567 47.0821 52.4268 47.1536 53.0091C47.2284 53.6179 47.5929 54.0701 48.2472 54.366C48.9014 54.6618 49.705 54.7512 50.6578 54.6342C51.1872 54.5692 51.6074 54.4907 51.9185 54.3988C52.228 54.2936 52.5483 54.167 52.8794 54.0188C53.1459 53.8921 53.3826 53.7958 53.5895 53.7301C53.7964 53.6644 54.0652 53.6113 54.3961 53.5707C54.7666 53.5252 55.0015 53.5232 55.1006 53.5648C55.213 53.6047 55.2805 53.7173 55.3033 53.9026C55.3195 54.0349 55.0685 54.2336 54.5503 54.4988C54.0321 54.7639 53.4453 55.0173 52.7899 55.259C52.1344 55.5007 51.681 55.6369 51.4295 55.6678ZM60.0853 54.605C59.9562 54.6477 59.8718 54.6715 59.8321 54.6764C59.4219 54.7268 59.1 54.4573 58.8664 53.8681C58.6461 53.2772 58.4685 52.4325 58.3336 51.3341C58.2784 50.8842 58.2055 50.1811 58.115 49.225C58.0699 48.6395 58.0296 48.2012 57.9938 47.91C56.366 48.1099 55.5294 48.0245 55.4839 47.654C55.4693 47.5349 55.4711 47.4406 55.4895 47.3712C55.5211 47.3002 55.5964 47.2573 55.7155 47.2427L57.8622 46.8381C57.7693 46.1912 57.6493 45.4873 57.5021 44.7262C57.3647 44.0445 57.2536 43.4134 57.1689 42.8327C57.151 42.6871 57.1984 42.5806 57.311 42.513C57.422 42.4322 57.5436 42.3837 57.676 42.3674C57.8348 42.3479 57.9777 42.4177 58.1047 42.5767C58.23 42.7226 58.3033 42.8815 58.3244 43.0535L58.9094 46.6692L60.5668 46.5463C60.815 46.4889 61.0324 46.5093 61.2191 46.6072C61.419 46.7036 61.5426 46.8899 61.59 47.1662C61.3267 47.3194 61.0312 47.4296 60.7036 47.4967C60.376 47.5638 59.8218 47.6453 59.041 47.7411C59.1921 48.9719 59.5003 50.9894 59.9655 53.7936C60.0013 54.0847 60.0265 54.2898 60.0411 54.409C60.0673 54.5132 60.0821 54.5786 60.0853 54.605ZM73.3048 52.9819C71.9285 53.1509 70.7015 53.0597 69.624 52.7084C68.5581 52.3423 67.9504 51.5504 67.8009 50.3329C67.7473 49.8962 67.8277 49.4564 68.042 49.0137C68.2563 48.5709 68.606 48.1921 69.0913 47.8773C69.5749 47.5493 70.1873 47.3398 70.9284 47.2488C71.4974 47.1789 71.9837 47.146 72.3873 47.1502C72.7908 47.1544 73.2652 47.2439 73.8106 47.4188C74.356 47.5936 74.9382 47.905 75.5574 48.3528C75.2336 47.4657 74.8177 46.704 74.3097 46.0679C73.8017 45.4317 73.2603 44.9608 72.6854 44.6553C72.1222 44.3349 71.5891 44.2055 71.0862 44.2673C70.848 44.2965 70.6287 44.3705 70.4283 44.4891C70.2396 44.5929 70.0094 44.7421 69.7377 44.9366C69.4329 45.189 69.2011 45.3249 69.0422 45.3444C68.9761 45.3525 68.9141 45.34 68.8563 45.3068C68.8101 45.2587 68.7829 45.2016 68.7748 45.1355C68.7098 44.6061 68.891 44.1674 69.3184 43.8194C69.7591 43.4697 70.3186 43.2667 70.9967 43.2103C71.9296 43.1495 72.8253 43.4425 73.6839 44.0894C74.5408 44.723 75.2543 45.5556 75.8243 46.5872C76.4074 47.6171 76.7632 48.6548 76.8916 49.7003C76.9127 49.8723 76.9296 50.1188 76.9421 50.4397L76.302 50.4779C75.674 49.5207 74.9369 48.8791 74.0909 48.5531C73.2565 48.2122 72.4423 48.0905 71.6482 48.188C70.6292 48.3131 69.92 48.5547 69.5207 48.9127C69.1213 49.2707 68.9574 49.7409 69.0289 50.3232C69.1036 50.9319 69.4682 51.3842 70.1224 51.68C70.7767 51.9758 71.5802 52.0652 72.5331 51.9482C73.0624 51.8832 73.4827 51.8048 73.7938 51.7128C74.1033 51.6077 74.4236 51.481 74.7546 51.3329C75.0212 51.2061 75.2579 51.1099 75.4647 51.0442C75.6716 50.9785 75.9405 50.9253 76.2713 50.8847C76.6419 50.8392 76.8767 50.8373 76.9759 50.8788C77.0882 50.9187 77.1558 51.0314 77.1785 51.2166C77.1948 51.349 76.9438 51.5477 76.4256 51.8128C75.9074 52.078 75.3205 52.3314 74.6651 52.5731C74.0097 52.8147 73.5562 52.951 73.3048 52.9819ZM88.0929 60.9994C86.9812 61.1359 86.0093 60.9329 85.1769 60.3903C84.3594 59.8593 83.7869 58.8616 83.4594 57.3973C83.4185 57.1739 83.4305 56.9978 83.4952 56.8689C83.5733 56.7385 83.6851 56.6643 83.8306 56.6464C83.9894 56.6269 84.1357 56.6694 84.2694 56.7739C84.4048 56.8916 84.4788 57.0571 84.4916 57.2705C84.5989 58.144 84.9811 58.7956 85.6384 59.2253C86.3105 59.6667 87.1164 59.8297 88.056 59.7143C88.5986 59.6477 89.0506 59.3907 89.4122 58.9433C89.7869 58.4943 90.0429 57.8987 90.1801 57.1564C90.319 56.4274 90.3323 55.6063 90.2202 54.6932C90.0236 53.0919 89.8525 51.5344 89.707 50.0209L89.6025 49.006C89.153 49.612 88.732 50.0667 88.3394 50.3702C87.96 50.672 87.4791 50.8586 86.8968 50.9301C85.8778 51.0552 85.0902 50.8766 84.5339 50.3941C83.9892 49.8968 83.647 49.0791 83.5073 47.9409C83.4277 47.2925 83.5168 46.5964 83.7748 45.8528C84.0444 45.0943 84.4543 44.4394 85.0045 43.8883C85.568 43.3355 86.2402 43.0111 87.021 42.9153C87.2857 42.8828 87.5338 42.8792 87.7652 42.9045C88.635 42.9858 89.3007 43.7033 89.7625 45.0571C90.2242 46.4109 90.5908 48.1929 90.8622 50.403C90.9369 51.0117 91.0228 51.8206 91.1198 52.8296L91.3315 54.7179C91.4241 55.4722 91.4058 56.3074 91.2764 57.2233C91.1487 58.1525 90.8277 58.9844 90.3134 59.7193C89.7992 60.4541 89.059 60.8808 88.0929 60.9994ZM86.4382 49.6565C87.4175 49.5363 88.1302 49.2137 88.5762 48.6888C89.0206 48.1506 89.1867 47.4249 89.0746 46.5118C89.06 46.3927 89.0216 46.1892 88.9594 45.9013C88.8184 45.3007 88.6011 44.8437 88.3074 44.5305C88.0254 44.2025 87.6263 44.0701 87.1101 44.1335C86.5675 44.2001 86.0948 44.4529 85.692 44.892C85.2892 45.331 84.997 45.8505 84.8154 46.4504C84.6322 47.0371 84.5706 47.5753 84.6308 48.0649C84.6909 48.5546 84.8885 48.9602 85.2235 49.2818C85.5569 49.5901 85.9618 49.715 86.4382 49.6565ZM92.6264 50.4684C92.1581 49.0617 91.7235 47.3821 91.3226 45.4298C90.9333 43.4625 90.6249 41.5526 90.3974 39.6998C90.2837 38.7734 90.2028 37.9505 90.1547 37.231C90.1336 37.0589 90.2554 36.9567 90.5201 36.9242C90.7318 36.8982 90.8707 36.9349 90.9366 37.0342C91.0158 37.132 91.0692 37.2933 91.0968 37.5183C91.36 39.6622 91.6248 41.4902 91.891 43.0024C92.1557 44.5013 92.4614 46.1161 92.8083 47.8467C93.0258 48.9619 93.1721 49.7163 93.2474 50.1101C93.2866 50.3202 93.1871 50.4399 92.9489 50.4691C92.8695 50.4789 92.762 50.4786 92.6264 50.4684ZM99.8289 49.7251C98.4526 49.8941 97.2256 49.803 96.1481 49.4517C95.0822 49.0855 94.4745 48.2937 94.325 47.0761C94.2714 46.6394 94.3517 46.1997 94.5661 45.7569C94.7804 45.3142 95.1301 44.9354 95.6154 44.6206C96.099 44.2925 96.7114 44.083 97.4525 43.992C98.0215 43.9221 98.5078 43.8893 98.9113 43.8935C99.3149 43.8977 99.7893 43.9872 100.335 44.162C100.88 44.3369 101.462 44.6482 102.082 45.0961C101.758 44.209 101.342 43.4473 100.834 42.8111C100.326 42.175 99.7844 41.7041 99.2095 41.3985C98.6463 41.0781 98.1132 40.9488 97.6103 41.0105C97.3721 41.0398 97.1528 41.1137 96.9524 41.2324C96.7637 41.3362 96.5335 41.4853 96.2618 41.6799C95.957 41.9322 95.7251 42.0682 95.5663 42.0877C95.5002 42.0958 95.4382 42.0833 95.3804 42.0501C95.3342 42.002 95.307 41.9449 95.2989 41.8787C95.2339 41.3494 95.4151 40.9107 95.8425 40.5626C96.2832 40.213 96.8426 40.01 97.5208 39.9536C98.4537 39.8928 99.3494 40.1858 100.208 40.8326C101.065 41.4663 101.778 42.2989 102.348 43.3304C102.932 44.3604 103.287 45.3981 103.416 46.4435C103.437 46.6156 103.454 46.862 103.466 47.1829L102.826 47.2212C102.198 46.2639 101.461 45.6223 100.615 45.2963C99.7806 44.9555 98.9663 44.8338 98.1723 44.9313C97.1533 45.0564 96.4441 45.298 96.0448 45.656C95.6454 46.014 95.4815 46.4841 95.553 47.0664C95.6277 47.6752 95.9922 48.1275 96.6465 48.4233C97.3008 48.7191 98.1043 48.8085 99.0572 48.6915C99.5865 48.6265 100.007 48.548 100.318 48.4561C100.627 48.3509 100.948 48.2243 101.279 48.0761C101.545 47.9494 101.782 47.8532 101.989 47.7875C102.196 47.7218 102.465 47.6686 102.795 47.628C103.166 47.5825 103.401 47.5805 103.5 47.6221C103.612 47.662 103.68 47.7746 103.703 47.9599C103.719 48.0922 103.468 48.291 102.95 48.5561C102.431 48.8212 101.845 49.0746 101.189 49.3163C100.534 49.558 100.08 49.6943 99.8289 49.7251ZM107.184 48.9026C107.005 48.9783 106.903 49.0178 106.876 49.021C106.771 49.034 106.652 48.9949 106.519 48.9036C106.003 48.3088 105.547 47.2163 105.15 45.6261C104.766 44.0343 104.503 42.6561 104.36 41.4915C104.337 41.3063 104.458 41.1974 104.723 41.1649C105.12 41.1161 105.345 41.3101 105.399 41.7468C105.414 41.866 105.419 41.966 105.416 42.047C105.501 41.7545 105.691 41.4424 105.986 41.1106C106.281 40.7788 106.635 40.4869 107.047 40.2347C107.459 39.9826 107.89 39.8289 108.34 39.7737C109.756 39.5998 110.866 40.1017 111.669 41.2793C112.47 42.4436 112.984 43.9522 113.212 45.805C113.29 46.4402 113.286 46.9578 113.201 47.3579C113.114 47.7447 112.958 47.9519 112.733 47.9795C112.495 48.0087 112.367 47.9506 112.349 47.805C112.356 47.0922 112.317 46.3984 112.234 45.7234C112.025 44.0163 111.569 42.7625 110.866 41.9622C110.161 41.1486 109.32 40.802 108.34 40.9222C107.864 40.9807 107.415 41.1567 106.995 41.4502C106.587 41.742 106.27 42.1167 106.045 42.5743C105.832 43.0303 105.759 43.5296 105.825 44.0722C105.9 44.681 105.998 45.2063 106.12 45.6481C106.241 46.0899 106.414 46.6195 106.637 47.2369C106.872 47.8394 107.055 48.3946 107.184 48.9026ZM119.805 47.2925C118.257 47.4826 117.01 47.2798 116.063 46.684C115.129 46.0733 114.57 45.0269 114.388 43.5447C114.296 42.7904 114.393 42.053 114.681 41.3326C114.98 40.5973 115.422 39.9855 116.007 39.4973C116.604 38.9942 117.272 38.6971 118.013 38.6061C118.768 38.5135 119.43 38.6001 120 38.866C120.568 39.1186 120.89 39.5493 120.965 40.158C121.017 40.5815 120.975 40.8956 120.838 41.1004C120.714 41.2903 120.559 41.3967 120.374 41.4194C120.296 40.7842 120.06 40.2892 119.668 39.9344C119.275 39.5796 118.761 39.4413 118.126 39.5193C117.49 39.5972 116.962 39.8367 116.541 40.2377C116.119 40.6254 115.816 41.1126 115.633 41.6993C115.461 42.2712 115.412 42.8548 115.485 43.4504C115.639 44.7076 116.168 45.5092 117.07 45.8551C117.985 46.1995 119.144 46.2855 120.547 46.1133C121.024 46.0548 121.642 45.9519 122.403 45.8048C122.43 45.8015 122.493 45.8207 122.592 45.8622C122.691 45.9038 122.768 45.9279 122.822 45.9347L122.837 46.0538C122.884 46.4376 122.576 46.7172 121.912 46.8927C121.249 47.0682 120.546 47.2015 119.805 47.2925ZM128.266 46.2335C127.419 46.3375 126.618 46.2679 125.863 46.0248C125.108 45.7817 124.481 45.3818 123.983 44.825C123.484 44.2683 123.186 43.5929 123.089 42.7988C122.98 41.9121 123.044 41.0647 123.281 40.2565C123.516 39.4351 123.922 38.7538 124.501 38.2126C125.091 37.6566 125.816 37.3257 126.676 37.2201C127.576 37.1096 128.293 37.3171 128.828 37.8425C129.361 38.3547 129.668 39.0491 129.748 39.9258C129.844 40.7066 129.606 41.3403 129.035 41.8269C128.476 42.3119 127.721 42.6129 126.768 42.7299C126.622 42.7478 126.402 42.7614 126.108 42.7707C125.625 42.7762 125.279 42.7449 125.069 42.6766C124.859 42.6084 124.737 42.4353 124.703 42.1574C124.691 42.0647 124.71 41.9953 124.758 41.9491C124.804 41.8897 124.907 41.8502 125.066 41.8307C125.238 41.8096 125.547 41.8119 125.993 41.8377C126.427 41.8651 126.809 41.8585 127.14 41.8179C128.357 41.6684 128.901 41.0643 128.771 40.0055C128.693 39.3703 128.512 38.882 128.228 38.5407C127.958 38.1978 127.531 38.0621 126.949 38.1336C126.314 38.2116 125.766 38.4535 125.305 38.8593C124.843 39.2519 124.506 39.7366 124.295 40.3133C124.097 40.8884 124.035 41.4803 124.11 42.0891C124.238 43.1346 124.635 43.959 125.3 44.5625C125.964 45.1527 126.904 45.373 128.122 45.2235C128.268 45.2056 128.511 45.1623 128.852 45.0936C128.996 45.0625 129.169 45.0009 129.373 44.9087C129.577 44.8165 129.723 44.7515 129.812 44.7137C130.357 44.4453 130.762 44.2949 131.026 44.2624C131.225 44.238 131.384 44.2723 131.503 44.3651C131.233 44.9086 130.783 45.3401 130.15 45.6596C129.529 45.9642 128.901 46.1555 128.266 46.2335Z" fill="#F6F8FA"/>
</svg>
