<svg width="162" height="48" viewBox="0 0 162 48" fill="none" xmlns="http://www.w3.org/2000/svg">
<path d="M0 6C0 2.68629 2.68629 0 6 0H156C159.314 0 162 2.68629 162 6V42C162 45.3137 159.314 48 156 48H6C2.68629 48 0 45.3137 0 42V6Z" fill="black"/>
<path d="M81.7632 26.1013C78.9408 26.1013 76.6404 28.2481 76.6404 31.2049C76.6404 34.1437 78.9408 36.3085 81.7632 36.3085C84.5868 36.3085 86.8872 34.1437 86.8872 31.2049C86.886 28.2481 84.5856 26.1013 81.7632 26.1013ZM81.7632 34.2997C80.2164 34.2997 78.8832 33.0241 78.8832 31.2061C78.8832 29.3689 80.2176 28.1125 81.7632 28.1125C83.31 28.1125 84.6432 29.3689 84.6432 31.2061C84.6432 33.0229 83.31 34.2997 81.7632 34.2997ZM70.5864 26.1013C67.764 26.1013 65.4636 28.2481 65.4636 31.2049C65.4636 34.1437 67.764 36.3085 70.5864 36.3085C73.41 36.3085 75.7104 34.1437 75.7104 31.2049C75.7104 28.2481 73.41 26.1013 70.5864 26.1013ZM70.5864 34.2997C69.0396 34.2997 67.7064 33.0241 67.7064 31.2061C67.7064 29.3689 69.0408 28.1125 70.5864 28.1125C72.1332 28.1125 73.4664 29.3689 73.4664 31.2061C73.4676 33.0229 72.1332 34.2997 70.5864 34.2997ZM57.2928 27.6685V29.8333H62.4744C62.3196 31.0513 61.914 31.9405 61.2948 32.5585C60.5412 33.3121 59.3616 34.1437 57.2928 34.1437C54.1032 34.1437 51.6096 31.5721 51.6096 28.3825C51.6096 25.1929 54.1032 22.6213 57.2928 22.6213C59.0136 22.6213 60.27 23.2981 61.1976 24.1681L62.7252 22.6405C61.4292 21.4033 59.7096 20.4565 57.2928 20.4565C52.9236 20.4565 49.2504 24.0133 49.2504 28.3825C49.2504 32.7517 52.9236 36.3085 57.2928 36.3085C59.6508 36.3085 61.4304 35.5345 62.8212 34.0849C64.2516 32.6545 64.6968 30.6433 64.6968 29.0197C64.6968 28.5181 64.6584 28.0537 64.5804 27.6673H57.2928V27.6685ZM111.662 29.3497C111.238 28.2097 109.942 26.1013 107.293 26.1013C104.664 26.1013 102.479 28.1701 102.479 31.2049C102.479 34.0657 104.645 36.3085 107.544 36.3085C109.883 36.3085 111.236 34.8781 111.798 34.0465L110.058 32.8861C109.478 33.7369 108.685 34.2973 107.544 34.2973C106.404 34.2973 105.592 33.7753 105.07 32.7505L111.894 29.9281L111.662 29.3497ZM104.702 31.0513C104.645 29.0785 106.23 28.0741 107.371 28.0741C108.26 28.0741 109.014 28.5193 109.266 29.1565L104.702 31.0513ZM99.1548 36.0001H101.396V20.9989H99.1548V36.0001ZM95.4804 27.2425H95.4036C94.9008 26.6425 93.9336 26.1013 92.7168 26.1013C90.1644 26.1013 87.8256 28.3441 87.8256 31.2253C87.8256 34.0861 90.1644 36.3097 92.7168 36.3097C93.9348 36.3097 94.9008 35.7685 95.4036 35.1505H95.4804V35.8849C95.4804 37.8373 94.4364 38.8813 92.7552 38.8813C91.3824 38.8813 90.5316 37.8961 90.1836 37.0645L88.2312 37.8769C88.7916 39.2293 90.2796 40.8925 92.7552 40.8925C95.3844 40.8925 97.608 39.3457 97.608 35.5753V26.4121H95.4816V27.2425H95.4804ZM92.91 34.2997C91.3632 34.2997 90.0684 33.0037 90.0684 31.2253C90.0684 29.4265 91.3632 28.1125 92.91 28.1125C94.4364 28.1125 95.6352 29.4265 95.6352 31.2253C95.6352 33.0037 94.4364 34.2997 92.91 34.2997ZM122.167 20.9989H116.802V36.0001H119.04V30.3169H122.166C124.648 30.3169 127.088 28.5205 127.088 25.6585C127.088 22.7965 124.649 20.9989 122.167 20.9989ZM122.225 28.2289H119.04V23.0869H122.225C123.899 23.0869 124.849 24.4729 124.849 25.6585C124.849 26.8201 123.899 28.2289 122.225 28.2289ZM136.063 26.0749C134.442 26.0749 132.763 26.7889 132.068 28.3717L134.056 29.2009C134.48 28.3717 135.272 28.1005 136.102 28.1005C137.26 28.1005 138.437 28.7953 138.456 30.0301V30.1849C138.05 29.9533 137.182 29.6065 136.121 29.6065C133.979 29.6065 131.797 30.7837 131.797 32.9833C131.797 34.9909 133.554 36.2833 135.522 36.2833C137.027 36.2833 137.857 35.6077 138.378 34.8157H138.455V35.9737H140.617V30.2221C140.618 27.5605 138.629 26.0749 136.063 26.0749ZM135.792 34.2961C135.06 34.2961 134.036 33.9289 134.036 33.0217C134.036 31.8637 135.311 31.4197 136.411 31.4197C137.394 31.4197 137.858 31.6321 138.456 31.9213C138.282 33.3121 137.086 34.2961 135.792 34.2961ZM148.492 26.4025L145.925 32.9065H145.848L143.184 26.4025H140.772L144.767 35.4925L142.489 40.5493H144.824L150.982 26.4025H148.492ZM128.324 36.0001H130.562V20.9989H128.324V36.0001Z" fill="white"/>
<path d="M56.9016 12.2915C56.9016 13.2971 56.604 14.0975 56.0076 14.6951C55.3308 15.4055 54.4476 15.7607 53.3628 15.7607C52.3236 15.7607 51.4392 15.4007 50.7132 14.6807C49.986 13.9595 49.6224 13.0667 49.6224 12.0011C49.6224 10.9343 49.986 10.0415 50.7132 9.32153C51.4392 8.60033 52.3236 8.24033 53.3628 8.24033C53.8788 8.24033 54.372 8.34113 54.84 8.54153C55.3092 8.74313 55.6848 9.01073 55.9656 9.34553L55.3332 9.97913C54.8568 9.40913 54.2004 9.12473 53.3616 9.12473C52.6032 9.12473 51.948 9.39113 51.3948 9.92393C50.8416 10.4567 50.5656 11.1491 50.5656 11.9999C50.5656 12.8507 50.8416 13.5431 51.3948 14.0759C51.948 14.6087 52.6032 14.8751 53.3616 14.8751C54.1656 14.8751 54.8364 14.6075 55.3728 14.0711C55.7208 13.7219 55.9224 13.2359 55.9764 12.6131H53.3616V11.7479H56.85C56.886 11.9363 56.9016 12.1175 56.9016 12.2915Z" fill="white"/>
<path d="M62.4337 9.2844H59.1554V11.5668H62.1121V12.432H59.1554V14.7144H62.4337V15.6H58.2302V8.4H62.4337V9.2844Z" fill="white"/>
<path d="M66.3348 15.6H65.4096V9.2844H63.3984V8.4H68.346V9.2844H66.3348V15.6Z" fill="white"/>
<path d="M71.9256 15.6V8.4H72.8508V15.6H71.9256Z" fill="white"/>
<path d="M76.9538 15.6H76.0286V9.2844H74.0174V8.4H78.965V9.2844H76.9538V15.6Z" fill="white"/>
<path d="M88.3307 14.67C87.6227 15.3972 86.7431 15.7608 85.6907 15.7608C84.6383 15.7608 83.7587 15.3972 83.0519 14.67C82.3439 13.9428 81.9911 13.0524 81.9911 12C81.9911 10.9476 82.3439 10.0572 83.0519 9.32999C83.7587 8.60279 84.6383 8.23799 85.6907 8.23799C86.7371 8.23799 87.6155 8.60399 88.3259 9.33479C89.0363 10.0656 89.3915 10.9536 89.3915 12C89.3915 13.0524 89.0375 13.9428 88.3307 14.67ZM83.7347 14.0664C84.2675 14.6064 84.9191 14.8752 85.6907 14.8752C86.4623 14.8752 87.1151 14.6052 87.6467 14.0664C88.1795 13.5264 88.4471 12.8376 88.4471 12C88.4471 11.1624 88.1795 10.4736 87.6467 9.93359C87.1151 9.39359 86.4623 9.12479 85.6907 9.12479C84.9191 9.12479 84.2675 9.39479 83.7347 9.93359C83.2031 10.4736 82.9355 11.1624 82.9355 12C82.9355 12.8376 83.2031 13.5264 83.7347 14.0664Z" fill="white"/>
<path d="M90.6899 15.6V8.4H91.8155L95.3147 14.0004H95.3543L95.3147 12.6132V8.4H96.2399V15.6H95.2739L91.6127 9.7272H91.5731L91.6127 11.1144V15.6H90.6899Z" fill="white"/>
<path d="M56.9016 12.2915C56.9016 13.2971 56.604 14.0975 56.0076 14.6951C55.3308 15.4055 54.4476 15.7607 53.3628 15.7607C52.3236 15.7607 51.4392 15.4007 50.7132 14.6807C49.986 13.9595 49.6224 13.0667 49.6224 12.0011C49.6224 10.9343 49.986 10.0415 50.7132 9.32153C51.4392 8.60033 52.3236 8.24033 53.3628 8.24033C53.8788 8.24033 54.372 8.34113 54.84 8.54153C55.3092 8.74313 55.6848 9.01073 55.9656 9.34553L55.3332 9.97913C54.8568 9.40913 54.2004 9.12473 53.3616 9.12473C52.6032 9.12473 51.948 9.39113 51.3948 9.92393C50.8416 10.4567 50.5656 11.1491 50.5656 11.9999C50.5656 12.8507 50.8416 13.5431 51.3948 14.0759C51.948 14.6087 52.6032 14.8751 53.3616 14.8751C54.1656 14.8751 54.8364 14.6075 55.3728 14.0711C55.7208 13.7219 55.9224 13.2359 55.9764 12.6131H53.3616V11.7479H56.85C56.886 11.9363 56.9016 12.1175 56.9016 12.2915Z" stroke="white" stroke-width="0.24" stroke-miterlimit="10"/>
<path d="M62.4337 9.2844H59.1554V11.5668H62.1121V12.432H59.1554V14.7144H62.4337V15.6H58.2302V8.4H62.4337V9.2844Z" stroke="white" stroke-width="0.24" stroke-miterlimit="10"/>
<path d="M66.3348 15.6H65.4096V9.2844H63.3984V8.4H68.346V9.2844H66.3348V15.6Z" stroke="white" stroke-width="0.24" stroke-miterlimit="10"/>
<path d="M71.9256 15.6V8.4H72.8508V15.6H71.9256Z" stroke="white" stroke-width="0.24" stroke-miterlimit="10"/>
<path d="M76.9538 15.6H76.0286V9.2844H74.0174V8.4H78.965V9.2844H76.9538V15.6Z" stroke="white" stroke-width="0.24" stroke-miterlimit="10"/>
<path d="M88.3307 14.67C87.6227 15.3972 86.7431 15.7608 85.6907 15.7608C84.6383 15.7608 83.7587 15.3972 83.0519 14.67C82.3439 13.9428 81.9911 13.0524 81.9911 12C81.9911 10.9476 82.3439 10.0572 83.0519 9.32999C83.7587 8.60279 84.6383 8.23799 85.6907 8.23799C86.7371 8.23799 87.6155 8.60399 88.3259 9.33479C89.0363 10.0656 89.3915 10.9536 89.3915 12C89.3915 13.0524 89.0375 13.9428 88.3307 14.67ZM83.7347 14.0664C84.2675 14.6064 84.9191 14.8752 85.6907 14.8752C86.4623 14.8752 87.1151 14.6052 87.6467 14.0664C88.1795 13.5264 88.4471 12.8376 88.4471 12C88.4471 11.1624 88.1795 10.4736 87.6467 9.93359C87.1151 9.39359 86.4623 9.12479 85.6907 9.12479C84.9191 9.12479 84.2675 9.39479 83.7347 9.93359C83.2031 10.4736 82.9355 11.1624 82.9355 12C82.9355 12.8376 83.2031 13.5264 83.7347 14.0664Z" stroke="white" stroke-width="0.24" stroke-miterlimit="10"/>
<path d="M90.6899 15.6V8.4H91.8155L95.3147 14.0004H95.3543L95.3147 12.6132V8.4H96.2399V15.6H95.2739L91.6127 9.7272H91.5731L91.6127 11.1144V15.6H90.6899Z" stroke="white" stroke-width="0.24" stroke-miterlimit="10"/>
<g filter="url(#filter0_ii_2_970)">
<path d="M12.5233 9.0456C12.1741 9.4152 11.9677 9.9888 11.9677 10.7316V37.2708C11.9677 38.0148 12.1741 38.5872 12.5233 38.9568L12.6121 39.0432L27.4789 24.1764V24.0012V23.826L12.6121 8.958L12.5233 9.0456Z" fill="url(#paint0_linear_2_970)"/>
<path d="M32.4337 29.1336L27.4789 24.1764V24.0012V23.826L32.4349 18.87L32.5465 18.9336L38.4181 22.2696C40.0945 23.2224 40.0945 24.7812 38.4181 25.7352L32.5465 29.0712L32.4337 29.1336Z" fill="url(#paint1_linear_2_970)"/>
<g filter="url(#filter1_i_2_970)">
<path d="M32.5464 29.07L27.4776 24.0012L12.5232 38.9568C13.0752 39.5424 13.9884 39.6144 15.0168 39.0312L32.5464 29.07Z" fill="url(#paint2_linear_2_970)"/>
</g>
<path d="M32.5464 18.9324L15.0168 8.9724C13.9884 8.388 13.0752 8.4612 12.5232 9.0468L27.4788 24.0024L32.5464 18.9324Z" fill="url(#paint3_linear_2_970)"/>
</g>
<path d="M6 1.2H156V-1.2H6V1.2ZM160.8 6V42H163.2V6H160.8ZM156 46.8H6V49.2H156V46.8ZM1.2 42V6H-1.2V42H1.2ZM6 46.8C3.34903 46.8 1.2 44.651 1.2 42H-1.2C-1.2 45.9764 2.02355 49.2 6 49.2V46.8ZM160.8 42C160.8 44.651 158.651 46.8 156 46.8V49.2C159.976 49.2 163.2 45.9765 163.2 42H160.8ZM156 1.2C158.651 1.2 160.8 3.34903 160.8 6H163.2C163.2 2.02355 159.976 -1.2 156 -1.2V1.2ZM6 -1.2C2.02355 -1.2 -1.2 2.02355 -1.2 6H1.2C1.2 3.34903 3.34903 1.2 6 1.2V-1.2Z" fill="#A6A6A6"/>
<defs>
<filter id="filter0_ii_2_970" x="11.9677" y="8.56911" width="27.7078" height="30.8649" filterUnits="userSpaceOnUse" color-interpolation-filters="sRGB">
<feFlood flood-opacity="0" result="BackgroundImageFix"/>
<feBlend mode="normal" in="SourceGraphic" in2="BackgroundImageFix" result="shape"/>
<feColorMatrix in="SourceAlpha" type="matrix" values="0 0 0 0 0 0 0 0 0 0 0 0 0 0 0 0 0 0 127 0" result="hardAlpha"/>
<feOffset dy="-0.18"/>
<feComposite in2="hardAlpha" operator="arithmetic" k2="-1" k3="1"/>
<feColorMatrix type="matrix" values="0 0 0 0 0 0 0 0 0 0 0 0 0 0 0 0 0 0 0.12 0"/>
<feBlend mode="normal" in2="shape" result="effect1_innerShadow_2_970"/>
<feColorMatrix in="SourceAlpha" type="matrix" values="0 0 0 0 0 0 0 0 0 0 0 0 0 0 0 0 0 0 127 0" result="hardAlpha"/>
<feOffset dy="0.18"/>
<feComposite in2="hardAlpha" operator="arithmetic" k2="-1" k3="1"/>
<feColorMatrix type="matrix" values="0 0 0 0 1 0 0 0 0 1 0 0 0 0 1 0 0 0 0.25 0"/>
<feBlend mode="normal" in2="effect1_innerShadow_2_970" result="effect2_innerShadow_2_970"/>
</filter>
<filter id="filter1_i_2_970" x="12.5232" y="24.0012" width="20.0232" height="15.4328" filterUnits="userSpaceOnUse" color-interpolation-filters="sRGB">
<feFlood flood-opacity="0" result="BackgroundImageFix"/>
<feBlend mode="normal" in="SourceGraphic" in2="BackgroundImageFix" result="shape"/>
<feColorMatrix in="SourceAlpha" type="matrix" values="0 0 0 0 0 0 0 0 0 0 0 0 0 0 0 0 0 0 127 0" result="hardAlpha"/>
<feOffset dy="-0.18"/>
<feComposite in2="hardAlpha" operator="arithmetic" k2="-1" k3="1"/>
<feColorMatrix type="matrix" values="0 0 0 0 0 0 0 0 0 0 0 0 0 0 0 0 0 0 0.08 0"/>
<feBlend mode="normal" in2="shape" result="effect1_innerShadow_2_970"/>
</filter>
<linearGradient id="paint0_linear_2_970" x1="26.161" y1="10.4508" x2="6.02261" y2="30.5892" gradientUnits="userSpaceOnUse">
<stop stop-color="#00A0FF"/>
<stop offset="0.0066" stop-color="#00A1FF"/>
<stop offset="0.2601" stop-color="#00BEFF"/>
<stop offset="0.5122" stop-color="#00D2FF"/>
<stop offset="0.7604" stop-color="#00DFFF"/>
<stop offset="1" stop-color="#00E3FF"/>
</linearGradient>
<linearGradient id="paint1_linear_2_970" x1="40.6003" y1="24.0012" x2="11.5652" y2="24.0012" gradientUnits="userSpaceOnUse">
<stop stop-color="#FFE000"/>
<stop offset="0.4087" stop-color="#FFBD00"/>
<stop offset="0.7754" stop-color="#FFA500"/>
<stop offset="1" stop-color="#FF9C00"/>
</linearGradient>
<linearGradient id="paint2_linear_2_970" x1="29.7937" y1="26.7539" x2="2.48352" y2="54.0641" gradientUnits="userSpaceOnUse">
<stop stop-color="#FF3A44"/>
<stop offset="1" stop-color="#C31162"/>
</linearGradient>
<linearGradient id="paint3_linear_2_970" x1="8.75687" y1="0.212158" x2="20.9516" y2="12.4069" gradientUnits="userSpaceOnUse">
<stop stop-color="#32A071"/>
<stop offset="0.0685" stop-color="#2DA771"/>
<stop offset="0.4762" stop-color="#15CF74"/>
<stop offset="0.8009" stop-color="#06E775"/>
<stop offset="1" stop-color="#00F076"/>
</linearGradient>
</defs>
</svg>
