<svg width="169" height="52" viewBox="0 0 169 52" fill="none" xmlns="http://www.w3.org/2000/svg">
<g clip-path="url(#clip0_2_939)">
<rect x="0.916748" width="52" height="52" rx="10.8333" fill="#252933"/>
<path d="M78.8926 13.1354C62.7119 27.1468 50.0471 37.0042 41.2493 42.4303C34.8039 46.4064 30.3053 48.0858 27.839 47.4435C27.4777 47.3532 27.1373 47.1937 26.8366 46.9739C26.7297 46.8946 26.6295 46.8065 26.5372 46.7105L25.515 45.6605C25.6078 45.7559 25.7079 45.844 25.8144 45.9239C26.115 46.144 26.4558 46.303 26.8175 46.3921C29.2831 47.0357 33.7817 45.3564 40.2271 41.3802C49.0256 35.9527 61.6896 26.0968 77.8711 12.084L78.8926 13.1354Z" fill="white"/>
<path d="M77.2483 11.443C77.1781 11.5028 77.1122 11.5576 77.0405 11.624L76.9551 11.5355C60.8732 25.4519 48.2779 35.2473 39.5182 40.6522C33.0735 44.6269 28.5741 46.3077 26.1085 45.664C25.7472 45.5737 25.4068 45.4142 25.1062 45.1944C24.9994 45.1152 24.899 45.0275 24.806 44.9324L23.87 43.9695C23.9627 44.0651 24.0628 44.1532 24.1694 44.2329C24.4704 44.4523 24.811 44.6112 25.1725 44.7011C27.638 45.3448 32.1367 43.6654 38.5821 39.6893C47.3791 34.261 60.0519 24.4095 76.2217 10.3908L77.2439 11.4408" fill="white"/>
<path d="M75.6009 9.74949C75.5321 9.81008 75.4648 9.8641 75.3938 9.92908L75.3076 9.84201C59.2257 23.7584 46.6319 33.5545 37.8729 38.958C31.426 42.9334 26.9289 44.6135 24.4611 43.9705C24.0998 43.8802 23.7594 43.7207 23.4587 43.5009C23.3519 43.4214 23.2517 43.3333 23.1593 43.2374L22.2225 42.276C22.3156 42.3709 22.416 42.4585 22.5227 42.538C22.8233 42.7577 23.1637 42.9172 23.525 43.0076C25.9906 43.6513 30.49 41.9704 36.9346 37.9958C45.7331 32.5682 58.3979 22.7108 74.5786 8.69948L75.6009 9.74949Z" fill="white"/>
<path d="M73.9538 8.05732C73.885 8.11792 73.8192 8.17268 73.7467 8.23693L73.662 8.15058C57.5801 22.067 44.9774 31.866 36.2258 37.2658C29.7804 41.2419 25.2818 42.9213 22.8162 42.2776C22.4545 42.1885 22.1137 42.0295 21.8131 41.8095C21.7066 41.7295 21.6065 41.6415 21.5137 41.546L20.5761 40.5824C20.6686 40.6782 20.7687 40.7663 20.8756 40.8458C21.1762 41.0659 21.5169 41.2249 21.8787 41.314C24.3457 41.9584 28.8429 40.2783 35.2883 36.3021C44.086 30.8761 56.7508 21.0187 72.9323 7.00585L73.9501 8.06463" fill="white"/>
<path d="M72.3075 6.36634C72.2395 6.42548 72.1714 6.48096 72.1005 6.54594L72.015 6.45739C55.9331 20.3738 43.3392 30.1699 34.5781 35.5741C28.1327 39.5502 23.634 41.2296 21.1685 40.5859C20.807 40.496 20.4664 40.3371 20.1654 40.1178C20.0594 40.0372 19.9593 39.9492 19.866 39.8543L18.9299 38.8914C19.0227 38.9868 19.1228 39.0749 19.2293 39.1548C19.5299 39.3749 19.8707 39.5339 20.2324 39.623C22.698 40.2667 27.1966 38.5873 33.642 34.6112C42.4405 29.1836 55.1045 19.3277 71.286 5.31486L72.3039 6.37365" fill="white"/>
<path d="M33.548 13.0089C35.1938 14.7006 32.7362 20.9887 30.1445 27.6245C27.1299 35.3409 23.7253 44.054 26.4211 46.8242L25.3989 45.7742C22.7038 43.0025 26.1076 34.2909 29.123 26.573C31.7169 19.9401 34.1715 13.6506 32.5258 11.9589L33.548 13.0089Z" fill="#7C6EE1"/>
<path d="M31.8165 11.2308C33.4616 12.9203 31.0055 19.2091 28.4123 25.8441C25.3992 33.5613 21.9946 42.2744 24.6904 45.0446L23.7528 44.081C21.0586 41.3114 24.4609 32.5991 27.4763 24.8812C30.0709 18.2469 32.5248 11.9589 30.8805 10.2679L31.8165 11.2308Z" fill="#7C6EE1"/>
<path d="M30.1713 9.53656C31.8156 11.2276 29.358 17.5156 26.7663 24.1514C23.7517 31.8678 20.3472 40.5809 23.0429 43.3511L22.1068 42.3882C19.4111 39.6179 22.8156 30.9049 25.8303 23.1884C28.4249 16.5541 30.8795 10.2646 29.233 8.57436L30.1713 9.53656Z" fill="#7C6EE1"/>
<path d="M28.524 7.84442C30.1683 9.53541 27.7122 15.8241 25.1212 22.4585C22.1058 30.1764 18.702 38.888 21.397 41.6597L20.4595 40.696C17.7645 37.9243 21.1683 29.2127 24.1829 21.4963C26.7776 14.8619 29.2322 8.57247 27.5864 6.88075L28.524 7.84442Z" fill="#7C6EE1"/>
<path d="M26.8766 6.15269C28.5224 7.84441 26.0656 14.131 23.4738 20.7668C20.4585 28.4847 17.0547 37.1963 19.7504 39.9665L18.8136 39.0051C16.1186 36.2333 19.5224 27.5217 22.5363 19.8031C25.1302 13.1702 27.5849 6.88075 25.9406 5.18976L26.8766 6.15269Z" fill="#7C6EE1"/>
<path d="M33.6621 12.8938C33.5568 12.7842 33.4338 12.6929 33.2984 12.6237C33.192 12.5687 33.0797 12.5259 32.9637 12.4962C31.0338 11.9912 27.0014 14.4437 20.9624 19.7938C15.6946 24.4663 8.72986 31.4841 0.376173 40.7255L-0.641654 39.6668C7.71204 30.4254 14.6658 23.4112 19.9439 18.7364C25.9836 13.3849 30.0152 10.9339 31.9459 11.4374C32.0617 11.4679 32.1739 11.5106 32.2805 11.565C32.4151 11.6355 32.5379 11.7266 32.6443 11.8351L33.6658 12.8865" fill="#E0F49B"/>
<path d="M31.9311 11.1147C31.8253 11.0056 31.7024 10.9144 31.5674 10.8446C31.4611 10.7894 31.3488 10.7466 31.2327 10.717C29.3021 10.2136 25.2704 12.6646 19.2292 18.0153C13.9614 22.6879 6.99743 29.7043 -1.3548 38.9464L-2.29087 37.9834C6.06136 28.7413 13.0165 21.7278 18.2932 17.0524C24.3329 11.7009 28.366 9.25063 30.2967 9.75411C30.4122 9.78356 30.524 9.82611 30.6299 9.88093C30.7645 9.95141 30.8872 10.0426 30.9936 10.151L31.9311 11.1147Z" fill="#E0F49B"/>
<path d="M30.2839 9.42126C30.1786 9.31156 30.0556 9.22026 29.9202 9.15115C29.8143 9.09625 29.7025 9.0537 29.587 9.02433C27.6571 8.51939 23.6232 10.9711 17.5842 16.3212C12.3164 20.9937 5.35167 28.0115 -3.00056 37.2537L-3.93808 36.29C4.4156 27.0486 11.3708 20.0352 16.6474 15.3597C22.6872 10.0082 26.7188 7.55719 28.6495 8.06067C28.7655 8.09036 28.8778 8.13314 28.9841 8.18821C29.1191 8.25801 29.242 8.34923 29.3478 8.45832L30.2839 9.42126Z" fill="#E0F49B"/>
<path d="M28.6381 7.73088C28.5328 7.62118 28.4099 7.52989 28.2744 7.46077C28.1684 7.40516 28.0564 7.36188 27.9405 7.33178C26.0099 6.82829 21.9782 9.27929 15.937 14.6301C10.6692 19.3026 3.70445 26.3204 -4.64705 35.5611L-5.58531 34.5989C2.76838 25.3575 9.72432 18.3426 15.0009 13.6671C21.0407 8.31563 25.0738 5.86535 27.0037 6.3703C27.1193 6.39967 27.231 6.44221 27.3369 6.4971C27.4723 6.56622 27.5953 6.65752 27.7006 6.76721L28.6381 7.73088Z" fill="#E0F49B"/>
<path d="M26.9913 6.0364C26.8849 5.92792 26.7622 5.83677 26.6276 5.76629C26.5212 5.71122 26.409 5.66843 26.293 5.63875C24.3623 5.13526 20.3307 7.58627 14.2909 12.9378C9.02307 17.6103 2.05909 24.6267 -6.2946 33.8681L-7.23064 32.9052C1.12158 23.663 8.07677 16.6496 13.3534 11.9741C19.3946 6.62333 23.4262 4.17233 25.3569 4.67581C25.4727 4.7062 25.5849 4.74896 25.6915 4.80335C25.8261 4.87384 25.9489 4.96499 26.0553 5.07347L26.9913 6.0364Z" fill="#E0F49B"/>
</g>
<path d="M76.9294 20.8173C79.4254 20.8173 80.396 21.6147 80.396 23.556C80.396 25.4973 79.356 26.364 76.9294 26.364H73.1854V20.8173H76.9294ZM80.7427 37.4227H86.5667V37.0413L81.228 29.6227C83.8627 28.652 85.3534 26.572 85.3534 23.3827C85.3534 18.876 82.6147 16.6227 77.276 16.6227H68.1587V37.4227H73.1854V30.2467H76.34L80.7427 37.4227Z" fill="white"/>
<path d="M93.6292 18.668V15.2707H88.7065V18.668H93.6292ZM93.5252 37.4227V20.9907H88.8105V37.4227H93.5252Z" fill="white"/>
<path d="M105.043 33.748C103.032 33.748 101.715 32.2227 101.715 29.9347V28.652C101.715 26.2947 102.997 24.804 105.077 24.804C107.331 24.804 108.336 26.2253 108.336 29.2413C108.336 32.2573 107.331 33.748 105.043 33.748ZM101.715 15.1667H97V37.4227H101.715V33.124H101.992C102.824 36.0013 104.592 37.908 107.331 37.908C110.867 37.908 112.981 34.892 112.981 29.2413C112.981 23.5907 110.936 20.54 107.331 20.54C104.696 20.54 102.893 22.2733 102.027 25.1507H101.715V15.1667Z" fill="white"/>
<path d="M123.561 33.748C121.55 33.748 120.233 32.2227 120.233 29.9347V28.652C120.233 26.2947 121.516 24.804 123.596 24.804C125.849 24.804 126.854 26.2253 126.854 29.2413C126.854 32.2573 125.849 33.748 123.561 33.748ZM120.233 15.1667H115.518V37.4227H120.233V33.124H120.51C121.342 36.0013 123.11 37.908 125.849 37.908C129.385 37.908 131.5 34.892 131.5 29.2413C131.5 23.5907 129.454 20.54 125.849 20.54C123.214 20.54 121.412 22.2733 120.545 25.1507H120.233V15.1667Z" fill="white"/>
<path d="M141.732 37.908C146.967 37.908 150.156 34.6147 150.156 29.2067C150.156 23.7293 146.863 20.54 141.732 20.54C136.498 20.54 133.239 23.7293 133.239 29.2067C133.239 34.6147 136.394 37.908 141.732 37.908ZM141.698 24.492C144.298 24.492 145.442 26.1907 145.442 29.172C145.442 32.1533 144.332 33.8867 141.698 33.8867C139.028 33.8867 137.954 32.1533 137.954 29.172C137.954 26.1907 139.098 24.492 141.698 24.492Z" fill="white"/>
<path d="M157.405 28.2707C157.405 26.2253 158.687 24.804 160.698 24.804C162.431 24.804 163.194 25.948 163.194 27.612V37.4227H167.909V26.2947C167.909 22.724 166.314 20.54 163.159 20.54C160.594 20.54 158.583 22.204 157.613 25.3933H157.301V20.9907H152.69V37.4227H157.405V28.2707Z" fill="white"/>
<defs>
<clipPath id="clip0_2_939">
<rect x="0.916748" width="52" height="52" rx="10.8333" fill="white"/>
</clipPath>
</defs>
</svg>
