<svg width="206" height="73" viewBox="0 0 206 73" fill="none" xmlns="http://www.w3.org/2000/svg">
<path d="M10.8315 14.6416C11.9166 14.7749 12.7757 14.7259 13.4086 14.4946C14.0415 14.2634 14.3937 13.8566 14.4652 13.2743C14.5286 12.7582 14.4043 12.2929 14.0925 11.8785C13.7823 11.4508 13.3788 11.0721 12.8819 10.7425C12.3851 10.4128 11.702 10.0132 10.8327 9.5438C10.7566 9.50759 10.5736 9.41124 10.2839 9.25476C9.10164 8.59913 8.20392 7.97843 7.59074 7.39267C6.99079 6.80853 6.73956 6.11944 6.83705 5.32541C6.94592 4.43873 7.37868 3.81348 8.13533 3.44964C8.89198 3.08581 9.81951 2.97133 10.9179 3.1062C11.7252 3.20532 12.4533 3.40219 13.1022 3.6968C13.766 3.97981 14.2745 4.32434 14.6276 4.7304C14.994 5.13809 15.1496 5.56692 15.0943 6.01687C14.9258 6.07677 14.7687 6.09779 14.6231 6.07992C14.4643 6.06042 14.303 6.00702 14.1391 5.91973C13.99 5.82082 13.7672 5.66585 13.4707 5.45481C12.9887 5.11353 12.5325 4.83586 12.102 4.6218C11.6732 4.39451 11.1544 4.2435 10.5457 4.16875C9.77809 4.0745 9.13984 4.13047 8.63092 4.33665C8.122 4.54284 7.83829 4.88414 7.7798 5.36056C7.7343 5.73111 7.85167 6.08808 8.13191 6.43145C8.42539 6.77646 8.80233 7.09813 9.26274 7.39646C9.738 7.68318 10.373 8.03654 11.1677 8.45652C12.1761 8.99677 13.0024 9.4878 13.6467 9.92961C14.291 10.3714 14.8172 10.8995 15.2254 11.5138C15.6484 12.1165 15.8136 12.7951 15.721 13.5494C15.6122 14.4361 15.1042 15.0722 14.1971 15.4579C13.2916 15.8303 12.2103 15.9394 10.953 15.785C9.96049 15.6631 8.99905 15.3973 8.06872 14.9875C7.13839 14.5778 6.36408 14.0461 5.74578 13.3925C5.12911 12.7258 4.7777 11.9774 4.69155 11.1473C4.73542 10.79 4.87205 10.4978 5.10143 10.2707C5.33244 10.0304 5.59352 9.92817 5.88466 9.96391C5.77904 10.8241 5.92707 11.5879 6.32875 12.2551C6.74528 12.9108 7.34511 13.4412 8.12825 13.8463C8.92461 14.253 9.82568 14.5182 10.8315 14.6416ZM21.5298 16.7209C20.6829 16.617 19.9224 16.3557 19.2484 15.9371C18.5744 15.5185 18.063 14.9788 17.7142 14.318C17.3655 13.6573 17.2399 12.9299 17.3374 12.1358C17.4462 11.2492 17.7132 10.4424 18.1383 9.71541C18.565 8.97523 19.1244 8.41254 19.8166 8.02735C20.5235 7.63055 21.3071 7.48496 22.1673 7.59058C23.0672 7.70107 23.713 8.0759 24.1047 8.71507C24.498 9.341 24.6278 10.0891 24.4941 10.9593C24.3982 11.7401 24.0141 12.2974 23.3417 12.6313C22.6826 12.9668 21.8766 13.076 20.9238 12.959C20.7782 12.9412 20.5615 12.9011 20.2736 12.8389C19.8037 12.7275 19.4751 12.6133 19.288 12.4962C19.1009 12.3792 19.0243 12.1818 19.0585 11.9039C19.0698 11.8112 19.1044 11.7483 19.1622 11.7151C19.2217 11.6687 19.3308 11.6552 19.4896 11.6747C19.6617 11.6958 19.9612 11.7729 20.3881 11.9059C20.8019 12.0373 21.1742 12.1233 21.505 12.164C22.7225 12.3134 23.3963 11.8588 23.5263 10.8001C23.6043 10.1649 23.5469 9.64738 23.3542 9.24758C23.1747 8.8494 22.7938 8.61457 22.2116 8.54307C21.5763 8.46507 20.9861 8.56724 20.441 8.84958C19.8975 9.11868 19.4535 9.50747 19.1089 10.0159C18.7776 10.526 18.5746 11.0855 18.4999 11.6942C18.3715 12.7397 18.557 13.6357 19.0564 14.3821C19.5575 15.1153 20.4168 15.5566 21.6343 15.7061C21.7799 15.724 22.0263 15.7408 22.3737 15.7566C22.5209 15.7612 22.7044 15.7435 22.9243 15.7033C23.1441 15.6631 23.302 15.6355 23.3979 15.6204C23.9913 15.4918 24.4204 15.4437 24.6851 15.4762C24.8836 15.5006 25.0293 15.5722 25.1221 15.6911C24.7295 16.1533 24.1878 16.4629 23.4968 16.6199C22.8207 16.7653 22.1651 16.7989 21.5298 16.7209ZM30.2691 17.794C29.4221 17.69 28.6616 17.4287 27.9876 17.0101C27.3136 16.5915 26.8022 16.0518 26.4535 15.3911C26.1047 14.7303 25.9791 14.0029 26.0766 13.2089C26.1855 12.3222 26.4524 11.5154 26.8775 10.7884C27.3043 10.0483 27.8637 9.48558 28.5558 9.10039C29.2627 8.70359 30.0463 8.558 30.9065 8.66362C31.8064 8.77411 32.4522 9.14894 32.8439 9.78811C33.2372 10.414 33.367 11.1621 33.2333 12.0323C33.1375 12.8131 32.7533 13.3704 32.081 13.7043C31.4218 14.0398 30.6158 14.1491 29.663 14.0321C29.5174 14.0142 29.3007 13.9742 29.0128 13.912C28.5429 13.8005 28.2143 13.6863 28.0272 13.5693C27.8401 13.4523 27.7636 13.2548 27.7977 12.9769C27.8091 12.8843 27.8437 12.8213 27.9015 12.7881C27.9609 12.7417 28.07 12.7282 28.2288 12.7477C28.4009 12.7689 28.7004 12.8459 29.1273 12.979C29.5411 13.1104 29.9134 13.1964 30.2442 13.237C31.4617 13.3865 32.1355 12.9319 32.2655 11.8732C32.3435 11.2379 32.2861 10.7204 32.0934 10.3206C31.9139 9.92244 31.5331 9.68761 30.9508 9.61611C30.3155 9.53811 29.7254 9.64028 29.1802 9.92262C28.6367 10.1917 28.1927 10.5805 27.8481 11.089C27.5168 11.5991 27.3138 12.1585 27.2391 12.7673C27.1107 13.8127 27.2962 14.7087 27.7957 15.4551C28.2967 16.1883 29.156 16.6297 30.3735 16.7792C30.5191 16.797 30.7655 16.8139 31.1129 16.8296C31.2601 16.8343 31.4436 16.8165 31.6635 16.7763C31.8833 16.7362 32.0412 16.7085 32.1371 16.6934C32.7305 16.5648 33.1596 16.5167 33.4243 16.5492C33.6228 16.5736 33.7685 16.6452 33.8613 16.7641C33.4687 17.2264 32.927 17.536 32.236 17.693C31.5599 17.8383 30.9043 17.872 30.2691 17.794ZM44.2291 19.5081C42.8527 19.3391 41.6843 18.9538 40.7238 18.3523C39.7781 17.7391 39.38 16.8238 39.5295 15.6063C39.5832 15.1695 39.7675 14.7623 40.0826 14.3845C40.3976 14.0068 40.8286 13.7239 41.3756 13.5358C41.9242 13.3345 42.5691 13.2793 43.3102 13.3703C43.8793 13.4402 44.3591 13.526 44.7496 13.6277C45.1401 13.7293 45.5788 13.931 46.0657 14.2326C46.5525 14.5341 47.0422 14.9771 47.5347 15.5615C47.435 14.6224 47.2157 13.7827 46.8767 13.0425C46.5378 12.3024 46.1263 11.7145 45.6425 11.279C45.1735 10.8318 44.6875 10.5774 44.1846 10.5156C43.9464 10.4864 43.7158 10.5051 43.4926 10.5717C43.2844 10.6267 43.0249 10.7158 42.7143 10.8388C42.3574 11.01 42.0996 11.0858 41.9408 11.0663C41.8746 11.0581 41.8175 11.031 41.7695 10.9848C41.7363 10.927 41.7237 10.865 41.7318 10.7988C41.7968 10.2695 42.0788 9.88763 42.5777 9.65336C43.0899 9.42071 43.6818 9.35905 44.3535 9.46839C45.2734 9.63507 46.0716 10.1361 46.7482 10.9714C47.4264 11.7935 47.9172 12.774 48.2207 13.9128C48.5374 15.0532 48.6316 16.1462 48.5032 17.1917C48.4821 17.3637 48.4388 17.6069 48.3733 17.9213L47.743 17.8036C47.3652 16.7228 46.8053 15.922 46.0633 15.401C45.3361 14.8684 44.5755 14.5533 43.7814 14.4559C42.7624 14.3307 42.0159 14.3936 41.5418 14.6443C41.0677 14.8951 40.7949 15.3116 40.7234 15.8939C40.6486 16.5027 40.8929 17.0297 41.4562 17.475C42.0194 17.9203 42.7775 18.2014 43.7303 18.3184C44.2597 18.3834 44.6864 18.4089 45.0105 18.395C45.3363 18.3678 45.6777 18.3224 46.0348 18.2588C46.3241 18.2003 46.577 18.1642 46.7936 18.1505C47.0102 18.1368 47.284 18.1502 47.6148 18.1909C47.9854 18.2364 48.2137 18.2913 48.2999 18.3556C48.3992 18.4215 48.4375 18.5471 48.4148 18.7324C48.3985 18.8647 48.1069 18.9968 47.54 19.1287C46.973 19.2606 46.3423 19.3645 45.6479 19.4405C44.9534 19.5164 44.4805 19.5389 44.2291 19.5081ZM50.7977 20.1735C50.6837 18.6953 50.6683 16.9605 50.7516 14.9691C50.8498 12.9662 51.0126 11.0383 51.2401 9.18555C51.3538 8.25917 51.4744 7.44111 51.6019 6.73135C51.623 6.55931 51.7659 6.48953 52.0306 6.52203C52.2423 6.54803 52.3682 6.61722 52.4081 6.72959C52.4613 6.84358 52.4741 7.01307 52.4464 7.23805C52.1832 9.38195 51.9978 11.2197 51.8904 12.7514C51.7845 14.2698 51.6906 15.9106 51.6084 17.6737C51.5497 18.8083 51.5092 19.5758 51.4869 19.9761C51.4741 20.1894 51.3487 20.2815 51.1104 20.2522C51.031 20.2425 50.9268 20.2163 50.7977 20.1735ZM53.9732 20.5634C53.8592 19.0852 53.8438 17.3504 53.9271 15.359C54.0253 13.3561 54.1881 11.4282 54.4156 9.57546C54.5294 8.64908 54.65 7.83101 54.7774 7.12125C54.7985 6.94921 54.9414 6.87944 55.2061 6.91194C55.4179 6.93794 55.5437 7.00712 55.5836 7.11949C55.6368 7.23349 55.6496 7.40298 55.622 7.62795C55.3587 9.77185 55.1734 11.6096 55.0659 13.1413C54.9601 14.6597 54.8661 16.3005 54.7839 18.0636C54.7252 19.1982 54.6847 19.9657 54.6624 20.366C54.6497 20.5793 54.5242 20.6714 54.286 20.6421C54.2066 20.6324 54.1023 20.6062 53.9732 20.5634ZM65.1301 31.6054C64.2302 31.4949 63.4465 31.2039 62.779 30.7324C62.1247 30.2625 61.6167 29.7501 61.2549 29.1952C60.8932 28.6403 60.7054 28.2008 60.6914 27.8767C60.6742 27.5791 60.768 27.3622 60.9728 27.2261C61.1908 27.0917 61.4438 27.0556 61.7317 27.1178C62.0217 28.1475 62.4187 28.962 62.9228 29.5612C63.4268 30.1604 64.2066 30.5383 65.2621 30.6947C66.0015 30.799 66.6489 30.3948 67.2043 29.4824C67.7712 28.5848 68.2327 27.4526 68.5885 26.0858C68.9428 24.7322 69.202 23.3871 69.3661 22.0505C69.4506 21.3623 69.4998 20.7974 69.5138 20.3558C68.3569 21.4631 66.9976 21.9208 65.436 21.7291C64.0861 21.5634 63.1261 20.7939 62.5558 19.4209C61.9988 18.0494 61.7135 16.5435 61.7 14.9029C61.6931 14.7409 61.7075 14.5143 61.7432 14.2231C61.8456 13.3894 62.1681 13.0058 62.7107 13.0724C62.7636 13.0789 62.7958 13.4187 62.8072 14.0918C62.8244 15.1551 62.8876 16.1167 62.997 16.9764C63.1064 17.8362 63.3637 18.6402 63.7688 19.3885C64.1888 20.1251 64.8091 20.5439 65.6296 20.6446C66.2781 20.7242 66.9658 20.5937 67.6927 20.2531C68.4345 19.9009 68.9901 19.4788 69.3594 18.9868C69.4829 17.981 69.4611 17.0649 69.2939 16.2383C69.1416 15.4002 69.0621 14.9538 69.0553 14.8993C69.0646 14.6049 69.0741 14.418 69.0839 14.3386C69.1164 14.0739 69.1796 13.8869 69.2737 13.7775C69.3809 13.6698 69.5206 13.6265 69.6926 13.6476C69.8779 13.6704 70.0433 14.0735 70.1889 14.8571C70.3345 15.6407 70.4252 16.6526 70.461 17.8929C70.4967 19.1332 70.4665 20.4191 70.3702 21.7506C70.3121 22.442 70.2628 22.9531 70.2222 23.284C69.9102 25.8249 69.3342 27.8901 68.4942 29.4796C67.6675 31.0707 66.5461 31.7793 65.1301 31.6054ZM76.4231 23.4811C75.6423 23.3853 74.9554 23.1263 74.3624 22.7042C73.7843 22.2705 73.3548 21.7208 73.0738 21.0549C72.8078 20.3774 72.7243 19.635 72.8234 18.8278C72.9859 17.5044 73.59 16.5777 74.6357 16.0479C75.6946 15.5197 76.9321 15.3425 78.3481 15.5164C78.9966 15.596 79.5792 15.8287 80.0961 16.2146C80.6261 16.6021 81.0266 17.1147 81.2976 17.7525C81.5686 18.3903 81.6561 19.0996 81.5602 19.8804C81.4562 20.7273 81.1469 21.4416 80.6322 22.0232C80.1191 22.5916 79.4841 23.004 78.7272 23.2603C77.9852 23.505 77.2172 23.5786 76.4231 23.4811ZM76.3437 22.3228C77.5744 22.4739 78.5416 22.3106 79.245 21.8328C79.9485 21.3549 80.3661 20.58 80.4977 19.5081C80.5871 18.7802 80.4128 18.1207 79.9749 17.5296C79.5502 16.9402 78.8946 16.591 78.0079 16.4821C77.4124 16.409 76.7964 16.4475 76.16 16.5978C75.5236 16.748 74.9793 17.0237 74.527 17.4249C74.0748 17.8261 73.8097 18.3444 73.7317 18.9796C73.6667 19.5089 73.7381 20.0215 73.9459 20.5172C74.1553 20.9996 74.4679 21.4074 74.8838 21.7406C75.3145 22.0621 75.8011 22.2562 76.3437 22.3228ZM91.6144 25.2255C91.3762 25.1963 91.1965 25.0734 91.0753 24.8571C90.9689 24.6291 90.8888 24.2968 90.835 23.8603C90.7827 23.4106 90.7099 22.636 90.6165 21.5364C90.2827 22.3954 89.7723 23.0515 89.0853 23.5044C88.3999 23.9442 87.6073 24.1088 86.7074 23.9983C85.8869 23.8976 85.227 23.5278 84.7278 22.8888C84.2435 22.2383 83.9201 21.4261 83.7575 20.4524C83.5966 19.4654 83.5836 18.4227 83.7185 17.3243C83.7802 16.8214 83.8793 16.397 84.0158 16.0511C84.1672 15.6935 84.3271 15.4311 84.4954 15.2637C84.6769 15.0979 84.8397 15.0305 84.9836 15.0617C85.1424 15.0812 85.2088 15.1968 85.1828 15.4085C85.1617 15.5806 85.0821 15.8462 84.944 16.2053C84.8009 16.6042 84.6969 17.0683 84.6319 17.5977C84.5344 18.3917 84.5519 19.1797 84.6842 19.9617C84.8298 20.7453 85.0975 21.4095 85.4874 21.9544C85.8921 22.4877 86.4054 22.7925 87.0274 22.8689C87.5435 22.9323 88.032 22.8378 88.4929 22.5854C88.9537 22.333 89.3317 21.9899 89.6268 21.5559C89.9351 21.1236 90.1169 20.6825 90.1721 20.2325L90.5597 17.0762C90.7394 16.8162 90.955 16.7016 91.2064 16.7325C91.4314 16.7601 91.56 16.9707 91.5923 17.3642C91.6246 17.7577 91.5976 18.3052 91.5115 19.0066C91.4384 19.6021 91.3757 20.0579 91.3235 20.3739C91.3493 20.8204 91.4139 21.2783 91.5175 21.7478C91.6343 22.2188 91.7835 22.7544 91.9651 23.3543C92.1833 24.0931 92.2827 24.5418 92.2632 24.7007C92.2144 25.0977 91.9982 25.2726 91.6144 25.2255ZM95.3607 25.7862C94.9481 24.6609 94.6707 23.3641 94.5286 21.8958C94.3997 20.4292 94.3995 19.1731 94.5278 18.1277C94.5782 17.7174 94.7033 17.4641 94.9032 17.3677C95.0172 17.3146 95.1007 17.2912 95.1536 17.2977C95.2463 17.3091 95.3035 17.39 95.3253 17.5405C95.3604 17.6925 95.3808 17.9637 95.3867 18.354L95.3982 19.0808C95.6315 18.3841 95.9785 17.8557 96.4391 17.4959C96.9146 17.1244 97.4567 16.976 98.0654 17.0508C98.7404 17.1336 99.227 17.3277 99.5254 17.633C99.8253 17.9251 99.9388 18.3689 99.8657 18.9644C99.243 18.5655 98.6603 18.3328 98.1177 18.2662C97.6016 18.2028 97.1412 18.2873 96.7365 18.5197C96.3318 18.7522 96.0234 19.1307 95.8112 19.6554C95.6466 20.0114 95.544 20.3548 95.5034 20.6856C95.4595 21.0429 95.4644 21.3861 95.518 21.7151C95.5865 22.0324 95.699 22.4291 95.8555 22.9051C95.9972 23.3926 96.1006 23.8083 96.1658 24.1522C96.2443 24.4977 96.2666 24.8631 96.2327 25.2485C96.2051 25.4735 96.1054 25.6292 95.9336 25.7155C95.7634 25.7887 95.5724 25.8122 95.3607 25.7862ZM106.28 27.2076C106.089 27.2378 105.979 27.2513 105.953 27.248C105.847 27.235 105.741 27.1683 105.635 27.0478C105.278 26.3457 105.099 25.1752 105.099 23.5363C105.112 21.899 105.19 20.498 105.333 19.3334C105.356 19.1482 105.499 19.0718 105.764 19.1043C106.161 19.153 106.333 19.3958 106.279 19.8325C106.264 19.9516 106.246 20.05 106.223 20.1278C106.376 19.8645 106.636 19.6076 107.002 19.3571C107.369 19.1066 107.783 18.9089 108.244 18.764C108.705 18.6191 109.161 18.5743 109.611 18.6295C111.027 18.8034 111.982 19.5587 112.476 20.8956C112.971 22.2192 113.106 23.8074 112.878 25.6601C112.8 26.2954 112.671 26.7967 112.492 27.1643C112.314 27.5186 112.113 27.6819 111.888 27.6543C111.649 27.625 111.539 27.5376 111.557 27.3921C111.736 26.702 111.867 26.0196 111.95 25.3446C112.159 23.6374 112.02 22.3106 111.532 21.364C111.045 20.4042 110.312 19.8642 109.333 19.7439C108.856 19.6855 108.378 19.7477 107.899 19.9306C107.433 20.1152 107.035 20.4022 106.705 20.7916C106.389 21.1826 106.197 21.6494 106.13 22.1919C106.056 22.8007 106.024 23.3341 106.035 23.7922C106.046 24.2503 106.085 24.8059 106.152 25.459C106.235 26.1005 106.277 26.6833 106.28 27.2076ZM118.142 28.6036C117.361 28.5077 116.674 28.2487 116.081 27.8266C115.503 27.393 115.074 26.8432 114.793 26.1773C114.526 25.4998 114.443 24.7575 114.542 23.9502C114.705 22.6268 115.309 21.7002 116.354 21.1703C117.413 20.6421 118.651 20.4649 120.067 20.6388C120.715 20.7184 121.298 20.9512 121.815 21.337C122.345 21.7245 122.745 22.2371 123.016 22.8749C123.287 23.5127 123.375 24.222 123.279 25.0028C123.175 25.8498 122.866 26.564 122.351 27.1456C121.838 27.714 121.203 28.1264 120.446 28.3827C119.704 28.6274 118.936 28.7011 118.142 28.6036ZM118.062 27.4452C119.293 27.5964 120.26 27.433 120.964 26.9552C121.667 26.4774 122.085 25.7025 122.216 24.6305C122.306 23.9026 122.132 23.2432 121.694 22.6521C121.269 22.0626 120.613 21.7134 119.727 21.6045C119.131 21.5314 118.515 21.57 117.879 21.7202C117.242 21.8704 116.698 22.1461 116.246 22.5473C115.794 22.9486 115.528 23.4668 115.45 24.102C115.385 24.6314 115.457 25.1439 115.665 25.6396C115.874 26.122 116.187 26.5298 116.603 26.863C117.033 27.1845 117.52 27.3786 118.062 27.4452ZM127.386 29.7184C127.25 29.7286 127.162 29.7313 127.123 29.7264C126.712 29.676 126.465 29.3367 126.381 28.7085C126.31 28.0818 126.342 27.2193 126.477 26.1209C126.532 25.6709 126.632 24.9711 126.775 24.0216C126.873 23.4425 126.94 23.0074 126.976 22.7163C125.348 22.5164 124.557 22.2312 124.602 21.8606C124.617 21.7415 124.642 21.6505 124.676 21.5876C124.724 21.5263 124.808 21.503 124.927 21.5176L127.107 21.6443C127.174 20.9942 127.228 20.2821 127.269 19.5081C127.301 18.8134 127.345 18.1741 127.404 17.5902C127.422 17.4446 127.493 17.3527 127.619 17.3144C127.746 17.2628 127.876 17.2452 128.008 17.2614C128.167 17.2809 128.289 17.3832 128.374 17.5682C128.46 17.74 128.493 17.912 128.471 18.084L128.164 21.7338L129.802 22.0155C130.057 22.0199 130.263 22.0922 130.42 22.2325C130.591 22.3743 130.666 22.585 130.645 22.8645C130.353 22.9495 130.039 22.9849 129.705 22.9708C129.371 22.9566 128.814 22.9016 128.033 22.8057C127.882 24.0365 127.693 26.0686 127.466 28.9021C127.43 29.1932 127.405 29.3983 127.39 29.5174C127.39 29.6249 127.389 29.6919 127.386 29.7184ZM132.027 30.3084C131.723 30.2711 131.532 29.7977 131.456 28.8882C131.381 27.9656 131.357 27.1768 131.384 26.5218C131.41 25.8668 131.463 24.8323 131.543 23.4181C131.557 23.1915 131.587 22.8995 131.63 22.5422C131.686 22.0923 131.757 21.7853 131.844 21.6214C131.945 21.4591 132.081 21.3885 132.253 21.4097C132.399 21.4275 132.507 21.4744 132.578 21.5504C132.665 21.6147 132.733 21.7171 132.782 21.8575L132.665 22.6491C132.561 23.4961 132.503 24.3016 132.489 25.0657C132.489 25.8314 132.504 26.8609 132.533 28.1541C132.571 28.7229 132.588 29.1884 132.583 29.5506C132.587 29.7391 132.531 29.9203 132.416 30.0942C132.302 30.2549 132.173 30.3263 132.027 30.3084ZM132.871 19.3295C132.58 19.2937 132.376 19.1544 132.258 18.9116C132.153 18.6704 132.121 18.3843 132.161 18.0535C132.179 17.9079 132.199 17.8029 132.22 17.7383C132.233 17.5249 132.365 17.4337 132.617 17.4646C132.802 17.4873 132.981 17.5564 133.155 17.6718C133.344 17.7755 133.396 17.8424 133.312 17.8724C133.402 18.2327 133.435 18.5121 133.411 18.7106C133.39 18.8827 133.333 19.0167 133.24 19.1129C133.15 19.1958 133.027 19.268 132.871 19.3295ZM143.438 20.5262C143.239 20.5018 143.068 20.4203 142.924 20.2817C142.793 20.1447 142.625 19.9293 142.419 19.6353C142.12 19.2225 141.843 18.9064 141.588 18.687C141.346 18.4693 141.014 18.3344 140.59 18.2824C139.862 18.193 139.212 18.4557 138.64 19.0705C138.069 19.6721 137.682 20.4172 137.478 21.3057C137.388 21.7111 137.318 22.1189 137.268 22.5292C137.185 23.2041 137.155 23.8318 137.178 24.4122C137.346 24.4598 137.746 24.5424 138.376 24.6601C139.007 24.7778 139.525 24.8751 139.932 24.9519C140.078 24.9698 140.348 25.0164 140.741 25.0916L140.787 24.5532C140.8 24.3398 140.828 24.0611 140.87 23.717C140.927 23.2538 140.999 22.9403 141.086 22.7763C141.188 22.6008 141.325 22.5236 141.497 22.5447C141.643 22.5626 141.751 22.6095 141.823 22.6854C141.909 22.7497 141.977 22.8521 142.027 22.9926L141.922 23.6849C141.829 24.4393 141.773 25.1712 141.753 25.8807C141.748 26.5786 141.763 27.4402 141.798 28.4655L141.828 30.6857C141.832 30.8742 141.776 31.0554 141.66 31.2293C141.547 31.39 141.417 31.4614 141.271 31.4435C140.927 31.4013 140.723 30.8187 140.66 29.6959C140.598 28.5599 140.611 27.2989 140.701 25.9128C140.48 25.9662 140.184 25.9701 139.813 25.9246C139.112 25.8385 138.254 25.6056 137.239 25.2257C137.311 25.8391 137.429 26.4111 137.593 26.9416C137.757 27.4589 137.976 28.0836 138.249 28.8156C138.44 29.3361 138.578 29.7427 138.663 30.0352C138.75 30.3145 138.782 30.5468 138.759 30.7321C138.741 30.8776 138.682 30.9778 138.581 31.0326C138.482 31.0742 138.347 31.0844 138.175 31.0633C137.817 31.0194 137.526 30.6008 137.301 29.8075C137.091 29.0025 136.87 27.9007 136.639 26.5021L136.425 25.2871C136.131 25.2778 135.757 25.3125 135.304 25.3912C135.263 25.3996 135.119 25.4222 134.873 25.4591C134.641 25.4844 134.433 25.4857 134.248 25.463C134.036 25.437 133.946 25.2982 133.976 25.0468C134.017 24.716 134.216 24.5187 134.573 24.4551C134.932 24.3782 135.264 24.3519 135.57 24.376C135.878 24.3869 136.072 24.3906 136.153 24.3871C136.188 23.881 136.23 23.4294 136.279 23.0324C136.489 21.3252 136.928 19.8813 137.597 18.7007C138.281 17.5085 139.317 16.9977 140.707 17.1683C141.302 17.2414 141.853 17.4635 142.358 17.8345C142.865 18.1923 143.255 18.623 143.529 19.1269C143.816 19.6323 143.932 20.1166 143.875 20.5798L143.438 20.5262ZM141.021 21.4989C140.73 21.4632 140.526 21.3239 140.408 21.081C140.303 20.8398 140.271 20.5538 140.312 20.2229C140.329 20.0773 140.349 19.9723 140.37 19.9077C140.383 19.6944 140.515 19.6031 140.767 19.634C140.952 19.6567 141.132 19.7258 141.306 19.8412C141.494 19.945 141.547 20.0118 141.462 20.0418C141.552 20.4021 141.585 20.6815 141.561 20.88C141.54 21.0521 141.483 21.1862 141.391 21.2823C141.3 21.3652 141.177 21.4374 141.021 21.4989ZM151.605 32.7123C150.056 32.5222 148.895 32.0236 148.121 31.2166C147.362 30.398 147.073 29.2475 147.255 27.7653C147.348 27.011 147.621 26.3191 148.074 25.6897C148.543 25.0486 149.12 24.562 149.805 24.2297C150.506 23.8859 151.226 23.7594 151.967 23.8504C152.722 23.9431 153.343 24.1873 153.832 24.5831C154.322 24.9657 154.53 25.4614 154.455 26.0702C154.403 26.4937 154.287 26.7883 154.105 26.9541C153.938 27.1083 153.762 27.174 153.577 27.1512C153.655 26.516 153.547 25.9787 153.251 25.5395C152.956 25.1002 152.491 24.8416 151.855 24.7636C151.22 24.6856 150.65 24.7902 150.144 25.0774C149.641 25.3514 149.229 25.7508 148.909 26.2758C148.604 26.7891 148.415 27.3436 148.342 27.9391C148.188 29.1963 148.506 30.1019 149.298 30.6559C150.103 31.2114 151.207 31.5753 152.61 31.7476C153.086 31.8061 153.711 31.856 154.486 31.8973C154.512 31.9005 154.568 31.9343 154.654 31.9986C154.741 32.0629 154.809 32.105 154.861 32.1247L154.846 32.2438C154.799 32.6276 154.432 32.8244 153.746 32.8341C153.06 32.8439 152.346 32.8033 151.605 32.7123ZM160.487 33.7828C159.111 33.6138 157.942 33.2285 156.982 32.627C156.036 32.0138 155.638 31.0985 155.788 29.881C155.841 29.4442 156.026 29.037 156.341 28.6593C156.656 28.2815 157.087 27.9986 157.634 27.8105C158.182 27.6092 158.827 27.554 159.568 27.645C160.137 27.7149 160.617 27.8007 161.008 27.9024C161.398 28.0041 161.837 28.2057 162.324 28.5073C162.811 28.8089 163.3 29.2518 163.793 29.8362C163.693 28.8971 163.474 28.0574 163.135 27.3173C162.796 26.5771 162.385 25.9892 161.901 25.5537C161.432 25.1065 160.946 24.8521 160.443 24.7903C160.205 24.7611 159.974 24.7798 159.751 24.8464C159.543 24.9014 159.283 24.9905 158.972 25.1135C158.616 25.2847 158.358 25.3605 158.199 25.341C158.133 25.3329 158.076 25.3057 158.028 25.2595C157.994 25.2017 157.982 25.1397 157.99 25.0735C158.055 24.5442 158.337 24.1623 158.836 23.9281C159.348 23.6954 159.94 23.6338 160.612 23.7431C161.532 23.9098 162.33 24.4108 163.006 25.2461C163.685 26.0683 164.175 27.0487 164.479 28.1875C164.796 29.328 164.89 30.4209 164.761 31.4664C164.74 31.6384 164.697 31.8816 164.632 32.196L164.001 32.0783C163.623 30.9975 163.063 30.1967 162.321 29.6757C161.594 29.1431 160.834 28.8281 160.04 28.7306C159.021 28.6054 158.274 28.6683 157.8 28.919C157.326 29.1698 157.053 29.5863 156.982 30.1686C156.907 30.7774 157.151 31.3044 157.714 31.7497C158.278 32.195 159.036 32.4761 159.989 32.5931C160.518 32.6581 160.945 32.6837 161.269 32.6697C161.594 32.6425 161.936 32.5971 162.293 32.5335C162.582 32.475 162.835 32.4389 163.052 32.4252C163.268 32.4115 163.542 32.425 163.873 32.4656C164.244 32.5111 164.472 32.566 164.558 32.6303C164.657 32.6962 164.696 32.8218 164.673 33.0071C164.657 33.1394 164.365 33.2716 163.798 33.4034C163.231 33.5353 162.6 33.6392 161.906 33.7152C161.212 33.7911 160.739 33.8136 160.487 33.7828ZM169.143 34.8456C169.007 34.8558 168.92 34.8585 168.88 34.8536C168.47 34.8032 168.223 34.4639 168.139 33.8356C168.068 33.209 168.1 32.3465 168.235 31.2481C168.29 30.7981 168.389 30.0983 168.533 29.1487C168.631 28.5697 168.698 28.1346 168.733 27.8434C167.106 27.6436 166.314 27.3584 166.36 26.9878C166.375 26.8687 166.399 26.7777 166.434 26.7148C166.482 26.6535 166.565 26.6302 166.684 26.6448L168.865 26.7715C168.931 26.1214 168.985 25.4093 169.026 24.6353C169.058 23.9406 169.103 23.3013 169.161 22.7174C169.179 22.5718 169.251 22.4799 169.376 22.4416C169.504 22.39 169.633 22.3724 169.766 22.3886C169.925 22.4081 170.046 22.5104 170.131 22.6954C170.217 22.8672 170.25 23.0392 170.229 23.2112L169.922 26.861L171.56 27.1427C171.814 27.1471 172.021 27.2194 172.178 27.3596C172.349 27.5015 172.423 27.7122 172.403 27.9917C172.11 28.0767 171.797 28.1121 171.463 28.098C171.129 28.0838 170.571 28.0288 169.79 27.9329C169.639 29.1637 169.45 31.1958 169.223 34.0292C169.187 34.3204 169.162 34.5255 169.148 34.6446C169.148 34.7521 169.146 34.8191 169.143 34.8456ZM173.784 35.4356C173.48 35.3982 173.29 34.9248 173.213 34.0154C173.139 33.0928 173.114 32.304 173.141 31.649C173.168 30.994 173.221 29.9595 173.301 28.5453C173.315 28.3187 173.344 28.0267 173.388 27.6694C173.443 27.2195 173.514 26.9125 173.602 26.7486C173.702 26.5863 173.839 26.5157 174.011 26.5368C174.156 26.5547 174.265 26.6016 174.336 26.6775C174.422 26.7418 174.49 26.8442 174.54 26.9847L174.423 27.7763C174.319 28.6233 174.26 29.4288 174.247 30.1929C174.247 30.9586 174.262 31.9881 174.291 33.2813C174.328 33.8501 174.345 34.3156 174.341 34.6778C174.345 34.8663 174.289 35.0475 174.173 35.2214C174.06 35.3821 173.93 35.4535 173.784 35.4356ZM174.629 24.4567C174.338 24.4209 174.133 24.2816 174.015 24.0388C173.91 23.7975 173.878 23.5115 173.919 23.1807C173.937 23.0351 173.956 22.93 173.978 22.8655C173.991 22.6521 174.123 22.5609 174.374 22.5917C174.559 22.6145 174.739 22.6836 174.913 22.7989C175.102 22.9027 175.154 22.9696 175.07 22.9995C175.16 23.3599 175.193 23.6393 175.168 23.8378C175.147 24.0098 175.09 24.1439 174.998 24.24C174.907 24.3229 174.784 24.3951 174.629 24.4567ZM179.972 36.1953C179.191 36.0994 178.504 35.8405 177.911 35.4184C177.333 34.9847 176.903 34.4349 176.622 33.7691C176.356 33.0916 176.273 32.3492 176.372 31.5419C176.535 30.2185 177.139 29.2919 178.184 28.7621C179.243 28.2339 180.481 28.0567 181.897 28.2305C182.545 28.3102 183.128 28.5429 183.645 28.9288C184.175 29.3163 184.575 29.8289 184.846 30.4667C185.117 31.1044 185.205 31.8137 185.109 32.5945C185.005 33.4415 184.696 34.1558 184.181 34.7374C183.668 35.3058 183.033 35.7181 182.276 35.9745C181.534 36.2192 180.766 36.2928 179.972 36.1953ZM179.892 35.037C181.123 35.1881 182.09 35.0248 182.794 34.5469C183.497 34.0691 183.915 33.2942 184.046 32.2223C184.136 31.4944 183.961 30.8349 183.524 30.2438C183.099 29.6543 182.443 29.3052 181.557 29.1963C180.961 29.1232 180.345 29.1617 179.709 29.3119C179.072 29.4622 178.528 29.7379 178.076 30.1391C177.623 30.5403 177.358 31.0585 177.28 31.6938C177.215 32.2231 177.287 32.7356 177.494 33.2313C177.704 33.7138 178.017 34.1216 178.432 34.4547C178.863 34.7763 179.35 34.9704 179.892 35.037ZM187.896 37.2287C187.704 37.2589 187.595 37.2723 187.568 37.2691C187.462 37.2561 187.356 37.1893 187.25 37.0688C186.893 36.3668 186.714 35.1963 186.714 33.5573C186.727 31.9201 186.805 30.5191 186.948 29.3545C186.971 29.1693 187.115 29.0929 187.379 29.1254C187.776 29.1741 187.948 29.4168 187.894 29.8536C187.88 29.9727 187.861 30.0711 187.838 30.1489C187.991 29.8856 188.251 29.6287 188.618 29.3782C188.984 29.1276 189.398 28.9299 189.859 28.7851C190.32 28.6402 190.776 28.5953 191.226 28.6506C192.642 28.8245 193.597 29.5798 194.091 30.9167C194.587 32.2403 194.721 33.8285 194.493 35.6812C194.415 36.3164 194.287 36.8178 194.107 37.1854C193.929 37.5397 193.728 37.703 193.503 37.6754C193.265 37.6461 193.154 37.5587 193.172 37.4131C193.351 36.7231 193.482 36.0406 193.565 35.3657C193.774 33.6585 193.635 32.3317 193.147 31.3851C192.66 30.4253 191.927 29.8853 190.948 29.765C190.471 29.7065 189.994 29.7688 189.514 29.9517C189.048 30.1363 188.651 30.4233 188.321 30.8127C188.004 31.2037 187.812 31.6704 187.746 32.213C187.671 32.8218 187.639 33.3552 187.65 33.8133C187.661 34.2714 187.7 34.827 187.768 35.4801C187.85 36.1216 187.893 36.7044 187.896 37.2287ZM196.037 35.77C196.24 35.6472 196.428 35.5964 196.6 35.6175C196.759 35.637 196.905 35.702 197.04 35.8125C197.187 35.9246 197.331 36.0632 197.472 36.2283C197.615 36.3802 197.728 36.4948 197.813 36.5724C198.088 36.848 198.482 37.0844 198.995 37.2818C199.508 37.4791 200.062 37.6143 200.658 37.6875C201.333 37.7703 201.951 37.7185 202.511 37.5321C203.086 37.334 203.4 37.0167 203.454 36.5799C203.503 36.1829 203.395 35.854 203.132 35.5933C202.87 35.3194 202.54 35.1043 202.143 34.948C201.746 34.7918 201.215 34.6259 200.552 34.4504C199.652 34.2324 198.94 34.0107 198.417 33.7852C197.907 33.5614 197.515 33.2514 197.241 32.8551C196.969 32.4455 196.874 31.9099 196.955 31.2482C197.043 30.5336 197.445 30.0456 198.163 29.7844C198.881 29.51 199.677 29.4264 200.551 29.5336C201.345 29.6311 201.999 29.886 202.512 30.2984C203.041 30.6991 203.273 31.2113 203.21 31.8349C203.193 32.1954 203.105 32.4735 202.947 32.669C202.79 32.8512 202.619 32.931 202.434 32.9082C202.328 32.8952 202.24 32.8442 202.17 32.755C202.114 32.6675 202.094 32.5575 202.11 32.4252C202.136 32.2135 202.237 31.9908 202.414 31.7572C202.387 31.4315 202.198 31.1665 201.846 30.9622C201.509 30.7595 201.088 30.6273 200.585 30.5655C199.844 30.4745 199.238 30.5412 198.767 30.7655C198.298 30.9765 198.041 31.2673 197.995 31.6379C197.947 32.0349 198.068 32.3588 198.36 32.6095C198.651 32.8603 199.016 33.0596 199.455 33.2075C199.908 33.3437 200.554 33.5036 201.391 33.687C202.081 33.8657 202.636 34.0481 203.057 34.2341C203.49 34.4216 203.836 34.726 204.093 35.1472C204.352 35.5551 204.438 36.1098 204.352 36.8112C204.263 37.539 203.855 38.0733 203.128 38.4139C202.403 38.7413 201.57 38.8473 200.631 38.7319C199.426 38.584 198.373 38.2465 197.47 37.7192C196.581 37.1936 196.103 36.5439 196.037 35.77ZM35.2757 44.604C33.8994 44.435 32.7309 44.0497 31.7704 43.4482C30.8248 42.835 30.4267 41.9197 30.5762 40.7022C30.6298 40.2655 30.8141 39.8582 31.1292 39.4805C31.4442 39.1027 31.8753 38.8198 32.4223 38.6317C32.9709 38.4304 33.6157 38.3753 34.3569 38.4663C34.9259 38.5361 35.4057 38.6219 35.7962 38.7236C36.1867 38.8253 36.6254 39.0269 37.1123 39.3285C37.5992 39.6301 38.0888 40.073 38.5813 40.6574C38.4817 39.7183 38.2624 38.8786 37.9234 38.1385C37.5844 37.3983 37.173 36.8104 36.6891 36.3749C36.2201 35.9277 35.7342 35.6733 35.2313 35.6115C34.9931 35.5823 34.7624 35.601 34.5393 35.6676C34.331 35.7227 34.0716 35.8117 33.7609 35.9348C33.4041 36.1059 33.1462 36.1817 32.9874 36.1622C32.9213 36.1541 32.8642 36.1269 32.8161 36.0807C32.7829 36.0229 32.7704 35.9609 32.7785 35.8947C32.8435 35.3654 33.1254 34.9836 33.6244 34.7493C34.1365 34.5166 34.7285 34.455 35.4002 34.5643C36.32 34.731 37.1183 35.232 37.7948 36.0674C38.473 36.8895 38.9639 37.8699 39.2673 39.0087C39.5841 40.1492 39.6782 41.2421 39.5499 42.2876C39.5287 42.4596 39.4854 42.7029 39.42 43.0172L38.7896 42.8995C38.4118 41.8188 37.8519 41.0179 37.1099 40.4969C36.3827 39.9643 35.6221 39.6493 34.8281 39.5518C33.8091 39.4267 33.0625 39.4895 32.5884 39.7402C32.1143 39.991 31.8415 40.4075 31.77 40.9898C31.6953 41.5986 31.9395 42.1256 32.5028 42.5709C33.0661 43.0162 33.8241 43.2973 34.777 43.4143C35.3063 43.4793 35.7331 43.5049 36.0572 43.4909C36.3829 43.4638 36.7243 43.4184 37.0814 43.3547C37.3707 43.2962 37.6236 43.2601 37.8403 43.2464C38.0569 43.2327 38.3306 43.2462 38.6615 43.2868C39.032 43.3323 39.2604 43.3872 39.3465 43.4515C39.4459 43.5174 39.4842 43.643 39.4614 43.8283C39.4452 43.9607 39.1536 44.0928 38.5866 44.2247C38.0196 44.3565 37.3889 44.4605 36.6945 44.5364C36.0001 44.6123 35.5271 44.6349 35.2757 44.604ZM42.6116 45.5853C42.4198 45.6155 42.3107 45.629 42.2842 45.6257C42.1783 45.6127 42.0723 45.546 41.9662 45.4255C41.6091 44.7234 41.4305 43.5529 41.4302 41.914C41.4432 40.2767 41.5211 38.8757 41.6641 37.7112C41.6869 37.5259 41.8306 37.4495 42.0953 37.482C42.4923 37.5307 42.664 37.7735 42.6104 38.2102C42.5957 38.3293 42.5769 38.4277 42.5539 38.5055C42.7072 38.2422 42.9671 37.9853 43.3337 37.7348C43.7003 37.4843 44.1141 37.2866 44.5752 37.1417C45.0363 36.9968 45.4918 36.952 45.9418 37.0072C47.3578 37.1811 48.3129 37.9365 48.807 39.2733C49.3027 40.5969 49.4368 42.1851 49.2093 44.0378C49.1313 44.6731 49.0026 45.1745 48.8231 45.542C48.6453 45.8963 48.4439 46.0596 48.2189 46.032C47.9807 46.0028 47.8705 45.9154 47.8884 45.7698C48.0672 45.0798 48.198 44.3973 48.2809 43.7223C48.4905 42.0152 48.3511 40.6883 47.8629 39.7417C47.3762 38.7819 46.6432 38.2419 45.6639 38.1217C45.1875 38.0632 44.7097 38.1254 44.2305 38.3084C43.7645 38.493 43.3666 38.7799 43.0367 39.1693C42.72 39.5603 42.5283 40.0271 42.4617 40.5697C42.387 41.1784 42.355 41.7119 42.366 42.1699C42.3769 42.628 42.4161 43.1836 42.4837 43.8367C42.5662 44.4782 42.6088 45.0611 42.6116 45.5853ZM53.7634 46.8538C53.1414 46.7775 52.6248 46.4991 52.2136 46.0187C51.8156 45.54 51.539 44.9486 51.3837 44.2444C51.2415 43.5418 51.2152 42.8266 51.3046 42.0987C51.4605 40.8283 51.8568 39.7888 52.4934 38.9804C53.1433 38.1736 54.0174 37.8376 55.1158 37.9725C55.7775 38.0537 56.3386 38.2435 56.799 38.5418C57.2743 38.8286 57.8822 39.2928 58.6229 39.9345L59.0951 40.3552C59.0826 39.9103 59.0451 39.3952 58.9826 38.8099C58.9201 38.2246 58.882 37.8237 58.8683 37.607C58.7701 36.5472 58.6989 35.7593 58.6548 35.2434C58.6255 34.7159 58.6353 34.2537 58.684 33.8566C58.7701 33.1552 59.0117 32.8289 59.4087 32.8777C59.5153 33.2131 59.6037 33.9158 59.6738 34.9857C59.7456 36.0423 59.8231 37.4892 59.9065 39.3264C59.9902 41.2711 60.0771 42.8602 60.1675 44.0937C60.2578 45.3273 60.3637 46.106 60.4852 46.4299C60.4478 46.7342 60.2041 46.8588 59.7542 46.8036C59.4101 46.7613 59.1962 46.5335 59.1127 46.1203C59.0423 45.7086 59.0548 45.0049 59.1502 44.0091L58.9914 43.9896C58.3121 44.9272 57.4893 45.6657 56.523 46.2053C55.5567 46.7449 54.6368 46.9611 53.7634 46.8538ZM54.1409 45.9128C54.6835 45.9795 55.2934 45.826 55.9706 45.4524C56.6627 45.0672 57.267 44.5772 57.7833 43.9823C58.3013 43.3743 58.5927 42.8055 58.6577 42.2762L58.7309 41.6807C57.5433 40.084 56.3738 39.215 55.2224 39.0737C54.4152 38.9745 53.7566 39.1959 53.2468 39.7378C52.7385 40.2665 52.4259 41.0073 52.3089 41.9601L52.2776 42.3794C52.2335 43.3949 52.361 44.2166 52.66 44.8444C52.9591 45.4722 53.4527 45.8283 54.1409 45.9128ZM72.7576 35.0204C73.3531 35.0936 73.9035 35.3156 74.4087 35.6866C74.9155 36.0444 75.3059 36.4752 75.5799 36.979C75.8671 37.4844 75.9823 37.9687 75.9254 38.4319L75.4887 38.3783C75.2902 38.3539 75.1188 38.2724 74.9747 38.1338C74.8437 37.9969 74.6754 37.7814 74.4697 37.4875C74.1711 37.0747 73.8942 36.7586 73.639 36.5392C73.3971 36.3214 73.0644 36.1865 72.6409 36.1345C71.913 36.0452 71.2629 36.3079 70.6903 36.9227C70.1194 37.5243 69.7324 38.2693 69.5293 39.1579C69.4392 39.5632 69.369 39.971 69.3186 40.3813C69.2357 41.0562 69.2057 41.6839 69.2284 42.2643C69.3972 42.3119 69.7968 42.3946 70.4272 42.5123C71.0575 42.63 71.5762 42.7272 71.9832 42.8041C72.1288 42.822 72.4117 42.8701 72.8319 42.9486C72.9643 42.9648 73.0528 43.0093 73.0976 43.082C73.1573 43.143 73.1782 43.2464 73.1603 43.3919C73.1165 43.7492 72.6909 43.8783 71.8836 43.7792C71.1822 43.6931 70.3176 43.4593 69.2898 43.0779C69.3622 43.6913 69.48 44.2632 69.6433 44.7938C69.8081 45.311 70.027 45.9357 70.2998 46.6677C70.4911 47.1883 70.6293 47.5948 70.7142 47.8873C70.8009 48.1666 70.8328 48.3989 70.81 48.5842C70.7922 48.7298 70.7328 48.83 70.6321 48.8848C70.5329 48.9263 70.3974 48.9365 70.2253 48.9154C69.868 48.8715 69.5768 48.4529 69.3518 47.6596C69.1417 46.8547 68.921 45.7529 68.6897 44.3543L68.4762 43.1392C68.1818 43.1299 67.8081 43.1646 67.3552 43.2433C67.3138 43.2517 67.17 43.2743 66.9237 43.3113C66.6922 43.3366 66.4838 43.3379 66.2985 43.3151C66.0868 43.2891 65.9964 43.1504 66.0272 42.8989C66.0679 42.5681 66.2667 42.3709 66.6238 42.3072C66.9825 42.2304 67.3149 42.204 67.6209 42.2282C67.9285 42.2391 68.1228 42.2428 68.2039 42.2393C68.2391 41.7332 68.2812 41.2816 68.3299 40.8846C68.5395 39.1774 68.9788 37.7335 69.6476 36.5529C70.3313 35.3606 71.368 34.8498 72.7576 35.0204ZM76.3536 49.6477C75.941 48.5224 75.6637 47.2256 75.5215 45.7573C75.3926 44.2907 75.3924 43.0346 75.5208 41.9891C75.5711 41.5789 75.6963 41.3256 75.8962 41.2292C76.0102 41.176 76.0936 41.1527 76.1466 41.1592C76.2392 41.1706 76.2964 41.2515 76.3183 41.4019C76.3533 41.554 76.3738 41.8252 76.3796 42.2155L76.3911 42.9423C76.6244 42.2455 76.9714 41.7172 77.432 41.3573C77.9075 40.9859 78.4496 40.8375 79.0584 40.9122C79.7333 40.9951 80.2199 41.1892 80.5183 41.4945C80.8183 41.7866 80.9317 42.2304 80.8586 42.8259C80.2359 42.427 79.6532 42.1943 79.1106 42.1277C78.5945 42.0643 78.1341 42.1488 77.7294 42.3812C77.3248 42.6136 77.0163 42.9922 76.8041 43.5169C76.6395 43.8729 76.5369 44.2162 76.4963 44.5471C76.4524 44.9044 76.4573 45.2476 76.5109 45.5765C76.5794 45.8939 76.6919 46.2906 76.8484 46.7665C76.9901 47.2541 77.0935 47.6698 77.1588 48.0137C77.2372 48.3591 77.2595 48.7246 77.2257 49.11C77.198 49.335 77.0983 49.4906 76.9265 49.577C76.7563 49.6501 76.5654 49.6737 76.3536 49.6477ZM81.9208 50.3514C81.6164 50.3141 81.426 49.8407 81.3496 48.9312C81.2748 48.0086 81.2508 47.2198 81.2774 46.5648C81.3041 45.9098 81.3573 44.8753 81.4369 43.4611C81.4513 43.2345 81.4804 42.9425 81.5243 42.5852C81.5795 42.1353 81.6508 41.8283 81.7381 41.6644C81.8386 41.5021 81.9749 41.4315 82.1469 41.4527C82.2925 41.4705 82.4009 41.5174 82.4722 41.5934C82.5584 41.6577 82.6264 41.7601 82.6763 41.9005L82.559 42.6921C82.455 43.5391 82.3964 44.3446 82.3831 45.1087C82.3832 45.8744 82.3978 46.9039 82.4271 48.1971C82.4647 48.7659 82.4814 49.2314 82.4773 49.5936C82.481 49.7821 82.4252 49.9633 82.3098 50.1372C82.196 50.2979 82.0663 50.3693 81.9208 50.3514ZM82.7651 39.3725C82.4739 39.3367 82.2694 39.1974 82.1514 38.9546C82.0467 38.7134 82.0146 38.4273 82.0553 38.0965C82.0731 37.9509 82.0928 37.8458 82.1141 37.7813C82.1269 37.5679 82.259 37.4767 82.5104 37.5076C82.6957 37.5303 82.8753 37.5994 83.0492 37.7148C83.238 37.8185 83.2902 37.8854 83.2059 37.9154C83.296 38.2757 83.3289 38.5551 83.3045 38.7536C83.2834 38.9257 83.2266 39.0597 83.1342 39.1559C83.0434 39.2387 82.9204 39.311 82.7651 39.3725ZM88.6862 51.162C87.8392 51.058 87.0787 50.7967 86.4047 50.3781C85.7307 49.9595 85.2193 49.4198 84.8706 48.7591C84.5218 48.0983 84.3962 47.3709 84.4937 46.5769C84.6026 45.6902 84.8696 44.8834 85.2946 44.1564C85.7214 43.4162 86.2808 42.8536 86.9729 42.4684C87.6798 42.0716 88.4634 41.926 89.3236 42.0316C90.2235 42.1421 90.8693 42.5169 91.261 43.1561C91.6543 43.782 91.7842 44.5301 91.6504 45.4003C91.5546 46.1811 91.1704 46.7384 90.4981 47.0723C89.8389 47.4078 89.033 47.5171 88.0801 47.4001C87.9345 47.3822 87.7178 47.3421 87.4299 47.2799C86.96 47.1685 86.6315 47.0543 86.4443 46.9373C86.2572 46.8203 86.1807 46.6228 86.2148 46.3449C86.2262 46.2522 86.2608 46.1893 86.3186 46.1561C86.378 46.1097 86.4871 46.0962 86.6459 46.1157C86.818 46.1368 87.1175 46.2139 87.5445 46.3469C87.9582 46.4783 88.3305 46.5644 88.6613 46.605C89.8789 46.7545 90.5526 46.2999 90.6826 45.2411C90.7606 44.6059 90.7033 44.0884 90.5105 43.6886C90.3311 43.2904 89.9502 43.0556 89.3679 42.9841C88.7327 42.9061 88.1425 43.0083 87.5973 43.2906C87.0538 43.5597 86.6098 43.9485 86.2653 44.457C85.934 44.967 85.7309 45.5265 85.6562 46.1352C85.5278 47.1807 85.7133 48.0767 86.2128 48.8231C86.7138 49.5563 87.5731 49.9976 88.7906 50.1471C88.9362 50.165 89.1827 50.1818 89.53 50.1976C89.6772 50.2023 89.8607 50.1845 90.0806 50.1443C90.3005 50.1041 90.4583 50.0765 90.5542 50.0614C91.1476 49.9328 91.5767 49.8847 91.8414 49.9172C92.0399 49.9416 92.1856 50.0132 92.2785 50.1321C91.8859 50.5943 91.3441 50.904 90.6531 51.0609C89.9771 51.2063 89.3214 51.24 88.6862 51.162ZM94.6166 51.9707C94.4249 52.0009 94.3158 52.0144 94.2893 52.0111C94.1834 51.9981 94.0774 51.9314 93.9713 51.8109C93.6142 51.1088 93.4355 49.9383 93.4353 48.2994C93.4482 46.6621 93.5262 45.2612 93.6692 44.0966C93.692 43.9113 93.8357 43.8349 94.1003 43.8674C94.4974 43.9162 94.6691 44.1589 94.6154 44.5956C94.6008 44.7147 94.582 44.8132 94.559 44.8909C94.7123 44.6277 94.9722 44.3707 95.3388 44.1202C95.7054 43.8697 96.1192 43.672 96.5803 43.5271C97.0414 43.3822 97.4969 43.3374 97.9469 43.3927C99.3629 43.5665 100.318 44.3219 100.812 45.6587C101.308 46.9823 101.442 48.5705 101.214 50.4233C101.136 51.0585 101.008 51.5599 100.828 51.9274C100.65 52.2817 100.449 52.4451 100.224 52.4174C99.9858 52.3882 99.8756 52.3008 99.8935 52.1552C100.072 51.4652 100.203 50.7827 100.286 50.1078C100.496 48.4006 100.356 47.0737 99.8679 46.1272C99.3813 45.1674 98.6483 44.6273 97.669 44.5071C97.1926 44.4486 96.7148 44.5108 96.2356 44.6938C95.7696 44.8784 95.3716 45.1654 95.0417 45.5547C94.7251 45.9457 94.5334 46.4125 94.4668 46.9551C94.392 47.5639 94.3601 48.0973 94.3711 48.5554C94.382 49.0134 94.4212 49.569 94.4888 50.2221C94.5712 50.8636 94.6139 51.4465 94.6166 51.9707ZM105.768 53.2393C105.146 53.1629 104.63 52.8845 104.219 52.4042C103.821 51.9254 103.544 51.334 103.389 50.6298C103.247 49.9272 103.22 49.212 103.31 48.4842C103.466 47.2137 103.862 46.1742 104.499 45.3658C105.148 44.559 106.022 44.223 107.121 44.3579C107.783 44.4391 108.344 44.6289 108.804 44.9272C109.279 45.214 109.887 45.6782 110.628 46.3199L111.1 46.7406C111.088 46.2957 111.05 45.7807 110.988 45.1954C110.925 44.6101 110.887 44.2091 110.873 43.9925C110.775 42.9326 110.704 42.1447 110.66 41.6288C110.631 41.1013 110.64 40.6391 110.689 40.2421C110.775 39.5407 111.017 39.2143 111.414 39.2631C111.52 39.5986 111.609 40.3012 111.679 41.3711C111.751 42.4277 111.828 43.8746 111.912 45.7118C111.995 47.6565 112.082 49.2456 112.173 50.4791C112.263 51.7127 112.369 52.4914 112.49 52.8153C112.453 53.1197 112.209 53.2442 111.759 53.189C111.415 53.1467 111.201 52.919 111.118 52.5057C111.047 52.0941 111.06 51.3903 111.155 50.3945L110.996 50.375C110.317 51.3126 109.494 52.0511 108.528 52.5907C107.562 53.1303 106.642 53.3465 105.768 53.2393ZM106.146 52.2982C106.689 52.3649 107.298 52.2114 107.976 51.8378C108.668 51.4526 109.272 50.9626 109.788 50.3678C110.306 49.7597 110.598 49.191 110.663 48.6616L110.736 48.0661C109.548 46.4694 108.379 45.6004 107.227 45.4591C106.42 45.36 105.762 45.5813 105.252 46.1233C104.744 46.6519 104.431 47.3927 104.314 48.3455L104.283 48.7648C104.239 49.7804 104.366 50.602 104.665 51.2298C104.964 51.8576 105.458 52.2138 106.146 52.2982ZM114.009 44.9618C114.016 44.9089 114.106 44.7185 114.281 44.3907C114.469 44.0645 114.594 43.6433 114.658 43.1272C114.697 42.8096 114.702 42.4408 114.672 42.0208C114.666 41.9662 114.67 41.8794 114.684 41.7603C114.715 41.5088 114.808 41.2986 114.963 41.1296C115.133 40.9489 115.357 40.8757 115.635 40.9098C115.807 40.9309 115.912 41.0646 115.949 41.311C116 41.5457 115.999 41.888 115.943 42.338C115.891 42.7615 115.763 43.2025 115.559 43.6611C115.355 44.1196 115.127 44.5013 114.875 44.8062C114.624 45.0978 114.406 45.2322 114.221 45.2095C114.062 45.19 113.991 45.1074 114.009 44.9618ZM115.642 52.0941C115.846 51.9712 116.033 51.9204 116.205 51.9415C116.364 51.961 116.511 52.026 116.645 52.1365C116.792 52.2487 116.936 52.3873 117.077 52.5523C117.22 52.7042 117.333 52.8189 117.418 52.8964C117.693 53.172 118.087 53.4085 118.6 53.6058C119.113 53.8031 119.668 53.9384 120.263 54.0115C120.938 54.0943 121.556 54.0426 122.116 53.8561C122.691 53.6581 123.005 53.3407 123.059 52.9039C123.108 52.5069 123 52.1781 122.737 51.9173C122.475 51.6434 122.145 51.4283 121.748 51.272C121.351 51.1158 120.82 50.9499 120.157 50.7744C119.257 50.5564 118.545 50.3347 118.022 50.1093C117.512 49.8855 117.12 49.5754 116.847 49.1791C116.575 48.7695 116.479 48.2339 116.56 47.5722C116.648 46.8576 117.051 46.3697 117.768 46.1084C118.487 45.834 119.283 45.7504 120.156 45.8576C120.95 45.9551 121.604 46.2101 122.117 46.6224C122.646 47.0231 122.879 47.5353 122.815 48.1589C122.798 48.5195 122.71 48.7975 122.552 48.993C122.395 49.1752 122.224 49.255 122.039 49.2323C121.933 49.2193 121.845 49.1682 121.776 49.079C121.719 48.9915 121.699 48.8816 121.715 48.7492C121.741 48.5375 121.843 48.3148 122.019 48.0813C121.992 47.7555 121.803 47.4905 121.452 47.2862C121.114 47.0835 120.693 46.9513 120.191 46.8895C119.449 46.7985 118.844 46.8652 118.373 47.0895C117.903 47.3005 117.646 47.5913 117.601 47.9619C117.552 48.3589 117.673 48.6828 117.965 48.9335C118.257 49.1843 118.622 49.3836 119.06 49.5315C119.514 49.6678 120.159 49.8276 120.996 50.011C121.686 50.1897 122.241 50.3721 122.662 50.5581C123.096 50.7457 123.441 51.05 123.698 51.4712C123.957 51.8791 124.044 52.4338 123.958 53.1352C123.868 53.863 123.46 54.3973 122.733 54.7379C122.008 55.0653 121.175 55.1713 120.236 55.0559C119.031 54.908 117.978 54.5705 117.076 54.0432C116.186 53.5176 115.709 52.8679 115.642 52.0941ZM131.475 63.5893C131.211 63.5568 130.98 62.8098 130.783 61.3482C130.6 59.8883 130.469 58.2737 130.391 56.5043C130.324 54.7497 130.318 53.6475 130.374 53.1975C130.538 51.8609 131.107 50.9435 132.082 50.4452C133.058 49.9337 134.254 49.7649 135.67 49.9388C136.424 50.0314 137.12 50.2779 137.756 50.6784C138.393 51.0657 138.881 51.5756 139.22 52.2083C139.56 52.8277 139.684 53.5146 139.592 54.2689C139.476 55.2086 139.064 55.8296 138.355 56.1322C137.66 56.4363 136.816 56.5275 135.823 56.4056C134.791 56.2789 133.932 55.9988 133.246 55.5653C132.576 55.1202 132.278 54.5933 132.352 53.9846L132.397 53.7885C132.502 53.694 132.608 53.6533 132.714 53.6663C132.806 53.6776 132.901 53.7295 132.997 53.8219C133.108 53.9027 133.224 53.9976 133.345 54.1064C133.718 54.4612 134.091 54.7556 134.466 54.9896C134.853 55.2253 135.351 55.3805 135.96 55.4552C136.794 55.5576 137.401 55.4843 137.78 55.2354C138.175 54.9749 138.412 54.5204 138.492 53.872C138.55 53.3955 138.444 52.9525 138.171 52.543C137.899 52.1334 137.524 51.7985 137.045 51.5383C136.567 51.278 136.063 51.1154 135.534 51.0504C134.303 50.8993 133.344 51.0502 132.657 51.5032C131.972 51.943 131.587 52.7757 131.504 54.0013C131.37 56.0804 131.342 57.8368 131.421 59.2705C131.514 60.7058 131.824 61.9529 132.352 63.0118L132.367 63.054C132.364 63.0805 132.328 63.1029 132.258 63.1212C132.2 63.1544 132.157 63.1826 132.127 63.2058C131.937 63.4378 131.72 63.5656 131.475 63.5893ZM141.148 57.4624C141.033 55.9841 141.018 54.2493 141.101 52.2579C141.2 50.255 141.362 48.3271 141.59 46.4744C141.704 45.548 141.824 44.7299 141.952 44.0202C141.973 43.8481 142.116 43.7784 142.38 43.8109C142.592 43.8368 142.718 43.906 142.758 44.0184C142.811 44.1324 142.824 44.3019 142.796 44.5269C142.533 46.6708 142.348 48.5085 142.24 50.0402C142.134 51.5586 142.04 53.1994 141.958 54.9625C141.899 56.0972 141.859 56.8646 141.837 57.2649C141.824 57.4782 141.698 57.5703 141.46 57.5411C141.381 57.5313 141.277 57.5051 141.148 57.4624ZM148.316 58.4836C146.94 58.3146 145.771 57.9293 144.811 57.3278C143.865 56.7146 143.467 55.7993 143.616 54.5818C143.67 54.145 143.854 53.7378 144.169 53.36C144.484 52.9823 144.915 52.6994 145.462 52.5113C146.011 52.31 146.656 52.2548 147.397 52.3458C147.966 52.4157 148.446 52.5015 148.836 52.6032C149.227 52.7049 149.666 52.9065 150.152 53.2081C150.639 53.5097 151.129 53.9526 151.621 54.537C151.522 53.5979 151.303 52.7582 150.964 52.018C150.625 51.2779 150.213 50.69 149.729 50.2545C149.26 49.8073 148.774 49.5529 148.271 49.4911C148.033 49.4619 147.803 49.4806 147.579 49.5472C147.371 49.6022 147.112 49.6913 146.801 49.8143C146.444 49.9855 146.186 50.0613 146.028 50.0418C145.961 50.0337 145.904 50.0065 145.856 49.9603C145.823 49.9025 145.811 49.8405 145.819 49.7743C145.884 49.245 146.166 48.8631 146.665 48.6289C147.177 48.3962 147.769 48.3346 148.44 48.4439C149.36 48.6106 150.158 49.1116 150.835 49.9469C151.513 50.7691 152.004 51.7495 152.307 52.8883C152.624 54.0288 152.718 55.1217 152.59 56.1672C152.569 56.3392 152.526 56.5824 152.46 56.8968L151.83 56.7791C151.452 55.6983 150.892 54.8975 150.15 54.3765C149.423 53.8439 148.662 53.5289 147.868 53.4314C146.849 53.3062 146.103 53.3691 145.629 53.6198C145.154 53.8706 144.882 54.2871 144.81 54.8694C144.735 55.4782 144.98 56.0052 145.543 56.4505C146.106 56.8958 146.864 57.1769 147.817 57.2939C148.346 57.3589 148.773 57.3845 149.097 57.3705C149.423 57.3433 149.764 57.2979 150.122 57.2343C150.411 57.1758 150.664 57.1397 150.88 57.126C151.097 57.1123 151.371 57.1258 151.702 57.1664C152.072 57.2119 152.301 57.2668 152.387 57.3311C152.486 57.397 152.524 57.5226 152.502 57.7079C152.485 57.8402 152.194 57.9724 151.627 58.1042C151.06 58.2361 150.429 58.34 149.735 58.416C149.04 58.4919 148.567 58.5144 148.316 58.4836ZM155.652 59.4649C155.46 59.4951 155.351 59.5086 155.324 59.5053C155.218 59.4923 155.113 59.4256 155.006 59.3051C154.649 58.603 154.471 57.4325 154.47 55.7936C154.483 54.1563 154.561 52.7553 154.704 51.5907C154.727 51.4055 154.871 51.3291 155.135 51.3616C155.532 51.4103 155.704 51.6531 155.651 52.0898C155.636 52.2089 155.617 52.3073 155.594 52.3851C155.747 52.1218 156.007 51.8649 156.374 51.6144C156.74 51.3639 157.154 51.1662 157.615 51.0213C158.076 50.8764 158.532 50.8316 158.982 50.8868C160.398 51.0607 161.353 51.816 161.847 53.1529C162.343 54.4765 162.477 56.0647 162.25 57.9174C162.172 58.5527 162.043 59.054 161.863 59.4216C161.685 59.7759 161.484 59.9392 161.259 59.9116C161.021 59.8824 160.911 59.7949 160.929 59.6494C161.107 58.9593 161.238 58.2769 161.321 57.6019C161.531 55.8948 161.391 54.5679 160.903 53.6213C160.416 52.6615 159.683 52.1215 158.704 52.0013C158.228 51.9428 157.75 52.005 157.271 52.188C156.805 52.3725 156.407 52.6595 156.077 53.0489C155.76 53.4399 155.568 53.9067 155.502 54.4493C155.427 55.058 155.395 55.5914 155.406 56.0495C155.417 56.5076 155.456 57.0632 155.524 57.7163C155.606 58.3578 155.649 58.9407 155.652 59.4649ZM163.793 58.0063C163.997 57.8834 164.184 57.8326 164.356 57.8537C164.515 57.8732 164.662 57.9382 164.796 58.0487C164.943 58.1609 165.087 58.2995 165.228 58.4645C165.371 58.6164 165.484 58.7311 165.569 58.8086C165.844 59.0842 166.238 59.3207 166.751 59.518C167.264 59.7153 167.819 59.8506 168.414 59.9237C169.089 60.0066 169.707 59.9548 170.267 59.7683C170.842 59.5703 171.156 59.2529 171.21 58.8162C171.259 58.4191 171.151 58.0903 170.888 57.8295C170.626 57.5556 170.296 57.3405 169.899 57.1842C169.502 57.028 168.971 56.8621 168.308 56.6866C167.408 56.4686 166.696 56.2469 166.173 56.0215C165.663 55.7977 165.271 55.4876 164.998 55.0913C164.726 54.6817 164.63 54.1461 164.711 53.4844C164.799 52.7698 165.202 52.2819 165.919 52.0207C166.638 51.7462 167.434 51.6626 168.307 51.7699C169.101 51.8673 169.755 52.1223 170.269 52.5346C170.797 52.9353 171.03 53.4475 170.967 54.0711C170.949 54.4317 170.861 54.7097 170.703 54.9052C170.546 55.0875 170.375 55.1672 170.19 55.1445C170.084 55.1315 169.996 55.0804 169.927 54.9912C169.87 54.9037 169.85 54.7938 169.866 54.6614C169.892 54.4497 169.994 54.227 170.17 53.9935C170.143 53.6677 169.954 53.4027 169.603 53.1984C169.265 52.9957 168.845 52.8635 168.342 52.8017C167.601 52.7108 166.995 52.7774 166.524 53.0017C166.054 53.2127 165.797 53.5036 165.752 53.8741C165.703 54.2711 165.824 54.595 166.116 54.8457C166.408 55.0965 166.773 55.2958 167.211 55.4437C167.665 55.58 168.31 55.7398 169.147 55.9232C169.837 56.102 170.393 56.2843 170.813 56.4703C171.247 56.6579 171.592 56.9622 171.849 57.3834C172.108 57.7913 172.195 58.346 172.109 59.0474C172.019 59.7752 171.611 60.3095 170.884 60.6501C170.159 60.9775 169.326 61.0835 168.387 60.9681C167.182 60.8202 166.129 60.4827 165.227 59.9554C164.337 59.4298 163.86 58.7801 163.793 58.0063Z" fill="#F6F8FA"/>
</svg>
