<svg width="595" height="969" viewBox="0 0 595 969" fill="none" xmlns="http://www.w3.org/2000/svg">
<g clip-path="url(#clip0_2_1542)">
<path d="M319.049 453.231C303.783 488.047 376.373 568.906 452.96 654.253C542.029 753.493 642.609 865.551 617.584 922.548L627.078 900.937C652.078 843.929 551.52 731.891 462.429 632.631C385.827 547.338 313.267 466.426 328.539 431.628L319.049 453.231Z" fill="#7C6EE1"/>
<path d="M335.131 416.634C319.859 451.397 392.449 532.312 469.04 617.616C558.09 716.877 658.67 828.935 633.651 885.929L642.352 866.106C667.357 809.13 566.812 697.073 477.727 597.811C401.104 512.498 328.559 431.608 343.818 396.829L335.131 416.634Z" fill="#7C6EE1"/>
<path d="M350.393 381.816C335.134 416.594 407.735 497.485 484.318 582.819C573.387 682.059 673.967 794.117 648.942 851.114L657.627 831.303C682.648 774.314 582.068 662.257 493.002 563.008C416.379 477.696 343.815 396.792 359.115 362.012L350.393 381.816Z" fill="#7C6EE1"/>
<path d="M365.686 346.997C350.438 381.806 423.009 462.673 499.573 547.993C588.658 647.256 689.225 759.297 664.219 816.308L672.919 796.484C697.925 739.474 597.365 627.43 508.295 528.189C431.672 442.877 359.114 361.971 374.387 327.173L365.686 346.997Z" fill="#7C6EE1"/>
<path d="M380.974 312.171C365.708 346.987 438.291 427.849 514.863 513.173C603.954 612.433 704.515 724.477 679.488 781.468L688.196 761.683C713.196 704.675 612.635 592.631 523.564 493.349C446.962 408.057 374.404 327.151 389.661 292.366L380.974 312.171Z" fill="#7C6EE1"/>
<path d="M317.747 455.042C318.711 452.796 320.046 450.727 321.695 448.922C322.989 447.489 324.442 446.207 326.026 445.102C352.289 426.58 426.981 440.739 548.318 487.223C654.188 527.853 1163.05 775.046 1341.29 867.081L1350.66 845.37C1172.43 753.333 663.752 506.133 557.713 465.532C436.354 419.028 361.702 404.881 335.412 423.387C333.838 424.502 332.388 425.781 331.086 427.204C329.46 429.027 328.128 431.092 327.139 433.324L317.67 454.947" fill="#E0F49B"/>
<path d="M333.811 418.429C334.787 416.19 336.12 414.123 337.758 412.308C339.05 410.876 340.502 409.596 342.084 408.491C368.367 389.988 443.044 404.125 564.417 450.61C670.286 491.24 1179.13 738.387 1357.35 830.468L1366.03 810.665C1187.82 718.609 679.117 471.43 573.095 430.802C451.769 384.292 377.073 370.176 350.777 388.684C349.199 389.782 347.753 391.056 346.465 392.482C344.838 394.305 343.506 396.37 342.517 398.603L333.811 418.429Z" fill="#E0F49B"/>
<path d="M349.101 383.611C350.065 381.364 351.399 379.295 353.049 377.49C354.333 376.063 355.777 374.789 357.355 373.694C383.623 355.169 458.347 369.302 579.655 415.763C685.527 456.399 1194.4 703.591 1372.62 795.647L1381.32 775.823C1203.08 683.788 694.378 436.608 588.357 395.98C467.007 349.48 392.336 335.341 366.052 353.844C364.47 354.949 363.016 356.228 361.719 357.657C360.083 359.475 358.751 361.543 357.773 363.784L349.086 383.589" fill="#E0F49B"/>
<path d="M364.387 348.799C365.352 346.553 366.686 344.484 368.335 342.678C369.62 341.242 371.065 339.957 372.641 338.848C398.931 320.343 473.602 334.482 594.972 380.961C700.841 421.59 1209.71 668.79 1387.9 760.826L1396.63 741.022C1218.39 648.979 709.674 401.786 603.653 361.158C482.303 314.658 407.612 300.54 381.359 319.087C379.781 320.185 378.335 321.459 377.047 322.885C375.398 324.69 374.064 326.759 373.099 329.006L364.399 348.83" fill="#E0F49B"/>
<path d="M379.641 313.969C380.63 311.736 381.962 309.671 383.588 307.848C384.882 306.418 386.334 305.139 387.916 304.037C414.2 285.534 488.871 299.673 610.227 346.171C716.096 386.801 1224.95 633.979 1403.18 726.016L1411.87 706.211C1233.65 614.155 724.947 366.97 618.928 326.347C497.588 279.857 422.915 265.712 396.633 284.221C395.055 285.332 393.602 286.61 392.3 288.034C390.673 289.857 389.341 291.922 388.352 294.155L379.665 313.96" fill="#E0F49B"/>
</g>
<defs>
<clipPath id="clip0_2_1542">
<rect width="1228.19" height="883.359" fill="white" transform="translate(0 425.581) rotate(-20.2741)"/>
</clipPath>
</defs>
</svg>
