<svg width="619" height="876" viewBox="0 0 619 876" fill="none" xmlns="http://www.w3.org/2000/svg">
<g clip-path="url(#clip0_2_1556)">
<path d="M299.141 421.981C314.407 387.165 241.818 306.306 165.23 220.959C76.1609 121.719 -24.4188 9.66093 0.606117 -47.336L-8.88802 -25.7252C-33.8879 31.2831 66.6706 143.321 155.762 242.581C232.363 327.874 304.924 408.786 289.651 443.584L299.141 421.981Z" fill="white"/>
<path d="M283.059 458.578C298.331 423.815 225.742 342.9 149.15 257.596C60.1 158.335 -40.4796 46.277 -15.4608 -10.7176L-24.1614 9.10629C-49.1664 66.082 51.3782 178.139 140.463 277.401C217.086 362.714 289.631 443.604 274.372 478.383L283.059 458.578Z" fill="white"/>
<path d="M267.797 493.396C283.056 458.617 210.455 377.727 133.872 292.393C44.8029 193.153 -55.7768 81.0949 -30.7519 24.098L-39.4364 43.909C-64.4575 100.898 36.1222 212.955 125.188 312.204C201.811 397.516 274.375 478.42 259.075 513.2L267.797 493.396Z" fill="white"/>
<path d="M252.504 528.215C267.752 493.406 195.181 412.539 118.617 327.219C29.5324 227.956 -71.0345 115.914 -46.0286 58.9038L-54.7291 78.7278C-79.735 135.738 20.8258 247.782 109.895 347.023C186.518 432.335 259.077 513.241 243.804 548.039L252.504 528.215Z" fill="white"/>
<path d="M237.216 563.041C252.482 528.225 179.899 447.363 103.327 362.039C14.2362 262.778 -86.3245 150.734 -61.2973 93.7436L-70.0054 113.529C-95.0052 170.537 5.55545 282.581 94.6265 381.862C171.228 467.155 243.786 548.061 228.53 582.846L237.216 563.041Z" fill="white"/>
<path d="M300.443 420.17C299.479 422.416 298.145 424.485 296.496 426.29C295.202 427.723 293.748 429.004 292.164 430.11C265.902 448.632 191.21 434.473 69.8723 387.989C-35.9971 347.359 -544.861 100.165 -723.099 8.13069L-732.473 29.8418C-554.241 121.879 -45.5614 369.079 60.4776 409.68C181.836 456.184 256.489 470.33 282.779 451.825C284.353 450.71 285.803 449.431 287.104 448.008C288.73 446.185 290.062 444.12 291.052 441.887L300.521 420.265" fill="#7C6EE1"/>
<path d="M284.38 456.783C283.403 459.022 282.07 461.089 280.432 462.904C279.14 464.336 277.689 465.616 276.107 466.721C249.823 485.224 175.146 471.087 53.774 424.601C-52.0954 383.972 -560.935 136.824 -739.162 44.7441L-747.843 64.5469C-569.625 156.603 -60.926 403.782 45.0954 444.41C166.421 490.92 241.118 505.035 267.414 486.528C268.991 485.43 270.438 484.156 271.726 482.73C273.352 480.907 274.684 478.842 275.673 476.609L284.38 456.783Z" fill="#7C6EE1"/>
<path d="M269.089 491.601C268.126 493.848 266.791 495.917 265.142 497.722C263.858 499.149 262.413 500.423 260.836 501.518C234.567 520.043 159.843 505.909 38.5355 459.449C-67.3361 418.813 -576.206 171.621 -754.425 79.5652L-763.125 99.3892C-584.887 191.424 -76.188 438.603 29.8334 479.232C151.184 525.732 225.854 539.871 252.138 521.368C253.721 520.263 255.174 518.984 256.472 517.555C258.107 515.737 259.439 513.669 260.417 511.428L269.104 491.623" fill="#7C6EE1"/>
<path d="M253.803 526.413C252.839 528.659 251.504 530.728 249.856 532.533C248.57 533.969 247.126 535.255 245.549 536.364C219.259 554.869 144.588 540.73 23.2184 494.251C-82.651 453.621 -591.517 206.422 -769.714 114.385L-778.436 134.19C-600.202 226.233 -91.4839 473.426 14.5375 514.054C135.888 560.554 210.578 574.672 236.832 556.125C238.409 555.027 239.856 553.753 241.144 552.327C242.792 550.521 244.127 548.452 245.091 546.206L253.792 526.382" fill="#7C6EE1"/>
<path d="M238.55 561.243C237.56 563.476 236.228 565.541 234.602 567.364C233.309 568.794 231.857 570.073 230.274 571.175C203.991 589.678 129.32 575.538 7.96335 529.04C-97.9061 488.411 -606.757 241.233 -784.989 149.196L-793.676 169.001C-615.458 261.057 -106.756 508.242 -0.737333 548.865C120.602 595.355 195.275 609.5 221.557 590.991C223.135 589.88 224.588 588.602 225.891 587.178C227.517 585.355 228.849 583.29 229.838 581.057L238.525 561.252" fill="#7C6EE1"/>
</g>
<defs>
<clipPath id="clip0_2_1556">
<rect width="1228.19" height="883.359" fill="white" transform="translate(618.19 449.631) rotate(159.726)"/>
</clipPath>
</defs>
</svg>
