<svg width="122" height="62" viewBox="0 0 122 62" fill="none" xmlns="http://www.w3.org/2000/svg">
<path d="M13.6192 4.32017C13.6273 4.254 13.7141 4.20419 13.8794 4.17076C14.0463 4.12409 14.2026 4.10969 14.3481 4.12756C14.454 4.14056 14.5302 4.17678 14.5766 4.23622C14.6246 4.28242 14.6165 4.34859 14.5522 4.43472C14.4203 4.63347 14.1269 5.05417 13.6718 5.69684C12.9893 6.66084 12.4354 7.50632 12.0103 8.23326C11.5852 8.96021 11.1862 9.85827 10.8131 10.9274C10.44 11.9966 10.1665 13.2392 9.99266 14.6552L9.87358 15.7892C9.85733 15.9215 9.78559 16.0135 9.65836 16.065C9.54436 16.1182 9.40134 16.1342 9.2293 16.1131C9.09696 16.0968 9.01338 16.0664 8.97855 16.0218C8.95696 15.9789 8.95104 15.9177 8.96079 15.8383C8.97054 15.7589 8.97785 15.6993 8.98272 15.6596C9.00639 15.1386 9.04667 14.6466 9.10354 14.1834C9.23191 13.1379 9.44723 12.1501 9.7495 11.22C9.0757 10.1432 8.52961 9.22983 8.11122 8.47992C7.70768 7.7184 7.33955 6.88734 7.00683 5.98674C6.6741 5.08615 6.38409 4.05646 6.1368 2.89769C6.16165 2.91417 6.2948 2.9238 6.53626 2.92658C6.77772 2.92936 6.91168 2.93238 6.93815 2.93563L7.4247 4.22453C8.00354 5.74642 8.47163 6.91216 8.82897 7.72174C9.18792 8.51809 9.62872 9.30433 10.1514 10.0805C10.5593 9.05589 11.0137 8.14448 11.5147 7.34625C12.0306 6.53642 12.6274 5.66935 13.3051 4.74505L13.6192 4.32017ZM17.6288 16.419C16.848 16.3231 16.1612 16.0642 15.5682 15.6421C14.99 15.2084 14.5605 14.6586 14.2796 13.9927C14.0135 13.3153 13.93 12.5729 14.0291 11.7656C14.1916 10.4422 14.7957 9.51561 15.8414 8.98576C16.9003 8.45754 18.1378 8.28037 19.5539 8.45423C20.2023 8.53385 20.785 8.7666 21.3018 9.15246C21.8319 9.53994 22.2324 10.0526 22.5033 10.6904C22.7743 11.3281 22.8618 12.0374 22.766 12.8182C22.662 13.6652 22.3526 14.3795 21.8379 14.9611C21.3248 15.5295 20.6898 15.9418 19.9329 16.1982C19.1909 16.4429 18.4229 16.5165 17.6288 16.419ZM17.5494 15.2607C18.7802 15.4118 19.7473 15.2485 20.4508 14.7706C21.1542 14.2928 21.5718 13.5179 21.7034 12.446C21.7928 11.7181 21.6185 11.0586 21.1806 10.4675C20.756 9.87801 20.1003 9.52884 19.2136 9.41997C18.6181 9.34685 18.0021 9.3854 17.3658 9.53563C16.7294 9.68586 16.185 9.96158 15.7328 10.3628C15.2805 10.764 15.0154 11.2822 14.9374 11.9174C14.8724 12.4468 14.9438 12.9593 15.1516 13.455C15.361 13.9375 15.6737 14.3453 16.0895 14.6784C16.5202 15 17.0068 15.1941 17.5494 15.2607ZM32.8201 18.1634C32.5819 18.1341 32.4022 18.0113 32.281 17.7949C32.1747 17.5669 32.0946 17.2347 32.0407 16.7982C31.9884 16.3485 31.9156 15.5738 31.8223 14.4743C31.4884 15.3333 30.978 15.9893 30.291 16.4423C29.6056 16.8821 28.813 17.0467 27.9131 16.9362C27.0926 16.8354 26.4328 16.4656 25.9336 15.8267C25.4492 15.1761 25.1258 14.364 24.9633 13.3903C24.8023 12.4033 24.7893 11.3606 24.9242 10.2622C24.9859 9.7593 25.0851 9.33488 25.2216 8.98894C25.3729 8.63139 25.5328 8.36891 25.7011 8.20151C25.8827 8.03573 26.0454 7.9684 26.1894 7.99951C26.3482 8.01901 26.4146 8.13463 26.3886 8.34637C26.3675 8.51841 26.2878 8.78402 26.1497 9.1432C26.0067 9.54208 25.9027 10.0062 25.8377 10.5356C25.7402 11.3296 25.7576 12.1176 25.89 12.8995C26.0356 13.6831 26.3033 14.3474 26.6931 14.8923C27.0978 15.4256 27.6111 15.7304 28.2331 15.8068C28.7493 15.8701 29.2377 15.7756 29.6986 15.5233C30.1595 15.2709 30.5374 14.9277 30.8325 14.4938C31.1408 14.0615 31.3226 13.6203 31.3779 13.1704L31.7654 10.0141C31.9451 9.75404 32.1607 9.63945 32.4121 9.67033C32.6371 9.69795 32.7657 9.90853 32.798 10.3021C32.8303 10.6956 32.8034 11.2431 32.7173 11.9445C32.6441 12.54 32.5815 12.9958 32.5292 13.3117C32.555 13.7582 32.6197 14.2162 32.7232 14.6856C32.84 15.1567 32.9892 15.6922 33.1708 16.2921C33.389 17.0309 33.4884 17.4797 33.4689 17.6385C33.4202 18.0355 33.2039 18.2105 32.8201 18.1634ZM36.5664 18.7241C36.1538 17.5988 35.8765 16.302 35.7344 14.8337C35.6055 13.3671 35.6052 12.111 35.7336 11.0655C35.7839 10.6553 35.9091 10.402 36.109 10.3056C36.223 10.2524 36.3064 10.2291 36.3594 10.2356C36.452 10.247 36.5092 10.3279 36.5311 10.4783C36.5661 10.6304 36.5866 10.9016 36.5924 11.2919L36.6039 12.0187C36.8372 11.3219 37.1842 10.7936 37.6448 10.4337C38.1203 10.0622 38.6624 9.91386 39.2712 9.98861C39.9461 10.0715 40.4328 10.2656 40.7311 10.5709C41.0311 10.8629 41.1445 11.3067 41.0714 11.9023C40.4487 11.5034 39.866 11.2707 39.3234 11.204C38.8073 11.1407 38.3469 11.2252 37.9423 11.4576C37.5376 11.69 37.2291 12.0686 37.0169 12.5933C36.8523 12.9492 36.7497 13.2926 36.7091 13.6235C36.6652 13.9808 36.6701 14.3239 36.7238 14.6529C36.7923 14.9703 36.9048 15.367 37.0612 15.8429C37.2029 16.3305 37.3063 16.7462 37.3716 17.09C37.4501 17.4355 37.4724 17.801 37.4385 18.1864C37.4108 18.4113 37.3111 18.567 37.1393 18.6534C36.9691 18.7265 36.7782 18.7501 36.5664 18.7241ZM45.9968 17.5043C46.1999 17.3815 46.3875 17.3306 46.5596 17.3517C46.7184 17.3712 46.8649 17.4362 46.9991 17.5467C47.1465 17.6589 47.2907 17.7975 47.4316 17.9626C47.5742 18.1144 47.6877 18.2291 47.7722 18.3066C48.0474 18.5822 48.4415 18.8187 48.9546 19.016C49.4677 19.2133 50.022 19.3486 50.6176 19.4217C51.2925 19.5046 51.9101 19.4528 52.4703 19.2663C53.0454 19.0683 53.3598 18.7509 53.4134 18.3142C53.4621 17.9171 53.3547 17.5883 53.0912 17.3275C52.8293 17.0536 52.4997 16.8385 52.1025 16.6822C51.7052 16.526 51.1748 16.3601 50.5113 16.1846C49.6111 15.9666 48.8995 15.7449 48.3764 15.5195C47.8666 15.2957 47.4748 14.9856 47.201 14.5893C46.9289 14.1798 46.8335 13.6441 46.9147 12.9824C47.0025 12.2678 47.4049 11.7799 48.1221 11.5187C48.8409 11.2442 49.637 11.1606 50.5105 11.2679C51.3045 11.3654 51.9583 11.6203 52.4719 12.0326C53.0003 12.4333 53.233 12.9455 53.1698 13.5691C53.1524 13.9297 53.0646 14.2077 52.9062 14.4032C52.7495 14.5855 52.5785 14.6652 52.3932 14.6425C52.2874 14.6295 52.1996 14.5784 52.1299 14.4892C52.0735 14.4017 52.0534 14.2918 52.0697 14.1594C52.0957 13.9477 52.1969 13.725 52.3734 13.4915C52.3462 13.1657 52.1571 12.9007 51.806 12.6964C51.4682 12.4937 51.0479 12.3615 50.545 12.2998C49.8039 12.2088 49.1979 12.2754 48.727 12.4997C48.2578 12.7108 48.0005 13.0016 47.955 13.3721C47.9062 13.7691 48.0277 14.093 48.3193 14.3438C48.6109 14.5945 48.976 14.7938 49.4146 14.9417C49.868 15.078 50.5133 15.2378 51.3506 15.4212C52.0406 15.6 52.5958 15.7823 53.0163 15.9683C53.45 16.1559 53.7955 16.4602 54.0527 16.8814C54.3116 17.2893 54.398 17.844 54.3119 18.5454C54.2225 19.2733 53.8144 19.8075 53.0874 20.1481C52.3621 20.4755 51.5297 20.5815 50.5901 20.4661C49.3858 20.3183 48.3324 19.9807 47.4299 19.4535C46.5407 18.9278 46.063 18.2781 45.9968 17.5043ZM59.6578 21.5795C58.877 21.4836 58.1901 21.2247 57.5971 20.8026C57.019 20.3689 56.5894 19.8191 56.3085 19.1532C56.0424 18.4758 55.9589 17.7334 56.058 16.9261C56.2205 15.6027 56.8246 14.6761 57.8703 14.1463C58.9292 13.618 60.1667 13.4409 61.5828 13.6147C62.2312 13.6944 62.8139 13.9271 63.3307 14.313C63.8608 14.7004 64.2613 15.2131 64.5322 15.8509C64.8032 16.4886 64.8907 17.1979 64.7949 17.9787C64.6909 18.8257 64.3815 19.54 63.8668 20.1216C63.3537 20.69 62.7187 21.1023 61.9618 21.3587C61.2198 21.6034 60.4518 21.677 59.6578 21.5795ZM59.5783 20.4212C60.8091 20.5723 61.7762 20.409 62.4797 19.9311C63.1832 19.4533 63.6007 18.6784 63.7323 17.6065C63.8217 16.8786 63.6474 16.2191 63.2095 15.628C62.7849 15.0385 62.1292 14.6893 61.2425 14.5805C60.647 14.5073 60.0311 14.5459 59.3947 14.6961C58.7583 14.8464 58.214 15.1221 57.7617 15.5233C57.3094 15.9245 57.0443 16.4427 56.9663 17.0779C56.9013 17.6073 56.9727 18.1198 57.1805 18.6155C57.3899 19.098 57.7026 19.5058 58.1184 19.8389C58.5491 20.1605 59.0357 20.3546 59.5783 20.4212ZM70.5863 22.9214C69.0379 22.7312 67.8767 22.2327 67.1026 21.4257C66.3434 20.607 66.0548 19.4566 66.2368 17.9744C66.3294 17.2201 66.6024 16.5282 67.0558 15.8988C67.5241 15.2577 68.1011 14.7711 68.7867 14.4388C69.4871 14.0949 70.2079 13.9685 70.949 14.0595C71.7033 14.1521 72.3249 14.3964 72.8136 14.7922C73.304 15.1748 73.5118 15.6705 73.437 16.2793C73.385 16.7028 73.2683 16.9974 73.0867 17.1632C72.92 17.3173 72.744 17.383 72.5587 17.3603C72.6367 16.7251 72.5281 16.1878 72.2327 15.7485C71.9374 15.3093 71.4721 15.0506 70.8369 14.9726C70.2017 14.8947 69.6313 14.9993 69.1259 15.2865C68.6221 15.5604 68.2103 15.9599 67.8906 16.4849C67.5858 16.9982 67.3968 17.5526 67.3237 18.1482C67.1693 19.4054 67.488 20.311 68.2797 20.8649C69.0847 21.4205 70.1886 21.7844 71.5914 21.9567C72.0678 22.0152 72.693 22.0651 73.4671 22.1064C73.4936 22.1096 73.5499 22.1434 73.636 22.2077C73.7222 22.272 73.7909 22.314 73.8422 22.3338L73.8276 22.4529C73.7804 22.8367 73.4137 23.0334 72.7274 23.0432C72.0411 23.053 71.3274 23.0124 70.5863 22.9214ZM75.6947 23.5486C75.3903 23.5112 75.1999 23.0378 75.1235 22.1284C75.0487 21.2057 75.0247 20.4169 75.0513 19.762C75.078 19.107 75.1312 18.0724 75.2108 16.6583C75.2252 16.4317 75.2543 16.1397 75.2982 15.7824C75.3534 15.3324 75.4247 15.0255 75.512 14.8616C75.6125 14.6993 75.7488 14.6287 75.9208 14.6498C76.0664 14.6677 76.1748 14.7146 76.2461 14.7905C76.3323 14.8548 76.4003 14.9572 76.4502 15.0977L76.3329 15.8893C76.2289 16.7362 76.1703 17.5418 76.157 18.3059C76.1571 19.0716 76.1717 20.101 76.201 21.3942C76.2386 21.9631 76.2553 22.4286 76.2512 22.7908C76.2549 22.9793 76.1991 23.1605 76.0837 23.3344C75.9699 23.4951 75.8402 23.5665 75.6947 23.5486ZM76.539 12.5696C76.2478 12.5339 76.0433 12.3946 75.9253 12.1517C75.8206 11.9105 75.7885 11.6245 75.8292 11.2936C75.847 11.1481 75.8667 11.043 75.888 10.9785C75.9008 10.7651 76.0329 10.6738 76.2843 10.7047C76.4696 10.7275 76.6492 10.7965 76.8231 10.9119C77.0119 11.0157 77.0641 11.0826 76.9798 11.1125C77.0699 11.4728 77.1028 11.7523 77.0784 11.9508C77.0573 12.1228 77.0005 12.2569 76.9081 12.353C76.8173 12.4359 76.6943 12.5081 76.539 12.5696ZM82.8769 24.4103C81.5006 24.2413 80.3322 23.8561 79.3717 23.2545C78.426 22.6414 78.0279 21.726 78.1774 20.5085C78.231 20.0718 78.4154 19.6645 78.7304 19.2868C79.0455 18.909 79.4765 18.6261 80.0235 18.438C80.5721 18.2367 81.217 18.1816 81.9581 18.2726C82.5271 18.3425 83.0069 18.4282 83.3974 18.5299C83.788 18.6316 84.2267 18.8332 84.7135 19.1348C85.2004 19.4364 85.6901 19.8794 86.1825 20.4637C86.0829 19.5246 85.8636 18.685 85.5246 17.9448C85.1856 17.2046 84.7742 16.6168 84.2903 16.1812C83.8213 15.7341 83.3354 15.4796 82.8325 15.4179C82.5943 15.3886 82.3636 15.4073 82.1405 15.474C81.9322 15.529 81.6728 15.618 81.3622 15.7411C81.0053 15.9122 80.7475 15.988 80.5887 15.9685C80.5225 15.9604 80.4654 15.9332 80.4173 15.887C80.3841 15.8292 80.3716 15.7672 80.3797 15.7011C80.4447 15.1717 80.7267 14.7899 81.2256 14.5556C81.7378 14.323 82.3297 14.2613 83.0014 14.3706C83.9213 14.5373 84.7195 15.0383 85.3961 15.8737C86.0743 16.6958 86.5651 17.6763 86.8686 18.8151C87.1853 19.9555 87.2795 21.0484 87.1511 22.0939C87.13 22.266 87.0867 22.5092 87.0212 22.8235L86.3908 22.7058C86.0131 21.6251 85.4532 20.8242 84.7111 20.3032C83.9839 19.7706 83.2233 19.4556 82.4293 19.3581C81.4103 19.233 80.6637 19.2958 80.1896 19.5466C79.7155 19.7973 79.4428 20.2138 79.3713 20.7961C79.2965 21.4049 79.5408 21.9319 80.104 22.3772C80.6673 22.8225 81.4253 23.1037 82.3782 23.2207C82.9076 23.2857 83.3343 23.3112 83.6584 23.2973C83.9841 23.2701 84.3256 23.2247 84.6826 23.1611C84.9719 23.1025 85.2249 23.0664 85.4415 23.0527C85.6581 23.039 85.9318 23.0525 86.2627 23.0931C86.6332 23.1386 86.8616 23.1935 86.9477 23.2578C87.0471 23.3238 87.0854 23.4494 87.0627 23.6346C87.0464 23.767 86.7548 23.8991 86.1878 24.031C85.6209 24.1629 84.9902 24.2668 84.2957 24.3427C83.6013 24.4187 83.1284 24.4412 82.8769 24.4103ZM89.4456 25.0758C89.3316 23.5975 89.3162 21.8627 89.3995 19.8714C89.4977 17.8684 89.6605 15.9406 89.888 14.0878C90.0017 13.1614 90.1223 12.3434 90.2498 11.6336C90.2709 11.4616 90.4138 11.3918 90.6785 11.4243C90.8902 11.4503 91.0161 11.5195 91.056 11.6318C91.1092 11.7458 91.1219 11.9153 91.0943 12.1403C90.8311 14.2842 90.6457 16.122 90.5383 17.6536C90.4324 19.172 90.3384 20.8128 90.2563 22.576C90.1976 23.7106 90.1571 24.478 90.1348 24.8783C90.122 25.0917 89.9965 25.1837 89.7583 25.1545C89.6789 25.1447 89.5747 25.1185 89.4456 25.0758ZM97.425 26.0555C97.311 24.5773 97.2956 22.8425 97.3789 20.8511C97.4771 18.8482 97.6399 16.9203 97.8674 15.0676C97.9812 14.1412 98.1018 13.3231 98.2292 12.6133C98.2503 12.4413 98.3932 12.3715 98.6579 12.404C98.8697 12.43 98.9955 12.4992 99.0354 12.6116C99.0886 12.7256 99.1014 12.8951 99.0738 13.12C98.8105 15.2639 98.6252 17.1017 98.5177 18.6334C98.4119 20.1518 98.3179 21.7926 98.2357 23.5557C98.177 24.6903 98.1365 25.4578 98.1142 25.8581C98.1015 26.0714 97.976 26.1635 97.7378 26.1342C97.6584 26.1245 97.5541 26.0983 97.425 26.0555ZM100.819 26.6335C100.515 26.5961 100.324 26.1227 100.248 25.2133C100.173 24.2906 100.149 23.5018 100.176 22.8469C100.203 22.1919 100.256 21.1573 100.335 19.7432C100.35 19.5166 100.379 19.2246 100.423 18.8673C100.478 18.4173 100.549 18.1104 100.637 17.9465C100.737 17.7842 100.873 17.7136 101.045 17.7347C101.191 17.7526 101.299 17.7995 101.371 17.8754C101.457 17.9397 101.525 18.0421 101.575 18.1826L101.457 18.9742C101.353 19.8212 101.295 20.6267 101.282 21.3908C101.282 22.1565 101.296 23.1859 101.326 24.4791C101.363 25.048 101.38 25.5135 101.376 25.8757C101.379 26.0642 101.324 26.2454 101.208 26.4193C101.095 26.58 100.965 26.6514 100.819 26.6335ZM101.664 15.6546C101.372 15.6188 101.168 15.4795 101.05 15.2367C100.945 14.9954 100.913 14.7094 100.954 14.3785C100.972 14.233 100.991 14.1279 101.013 14.0634C101.025 13.85 101.157 13.7588 101.409 13.7896C101.594 13.8124 101.774 13.8814 101.948 13.9968C102.136 14.1006 102.189 14.1675 102.104 14.1974C102.195 14.5578 102.227 14.8372 102.203 15.0357C102.182 15.2077 102.125 15.3418 102.033 15.4379C101.942 15.5208 101.819 15.593 101.664 15.6546ZM109.499 13.4934C110.095 13.5665 110.645 13.7885 111.15 14.1595C111.657 14.5173 112.047 14.9481 112.321 15.4519C112.609 15.9574 112.724 16.4417 112.667 16.9049L112.23 16.8512C112.032 16.8269 111.86 16.7454 111.716 16.6068C111.585 16.4698 111.417 16.2543 111.211 15.9604C110.913 15.5476 110.636 15.2315 110.381 15.0121C110.139 14.7943 109.806 14.6594 109.382 14.6075C108.655 14.5181 108.004 14.7808 107.432 15.3956C106.861 15.9972 106.474 16.7422 106.271 17.6308C106.181 18.0362 106.111 18.444 106.06 18.8542C105.977 19.5291 105.947 20.1568 105.97 20.7373C106.139 20.7849 106.538 20.8675 107.169 20.9852C107.799 21.1029 108.318 21.2002 108.725 21.277C108.87 21.2949 109.153 21.3431 109.573 21.4215C109.706 21.4378 109.794 21.4822 109.839 21.5549C109.899 21.616 109.92 21.7193 109.902 21.8648C109.858 22.2222 109.432 22.3513 108.625 22.2521C107.924 22.166 107.059 21.9322 106.031 21.5508C106.104 22.1642 106.222 22.7362 106.385 23.2667C106.55 23.784 106.769 24.4086 107.041 25.1407C107.233 25.6612 107.371 26.0677 107.456 26.3603C107.542 26.6396 107.574 26.8718 107.552 27.0571C107.534 27.2027 107.474 27.3029 107.374 27.3577C107.274 27.3992 107.139 27.4095 106.967 27.3883C106.61 27.3445 106.318 26.9259 106.093 26.1325C105.883 25.3276 105.663 24.2258 105.431 22.8272L105.218 21.6121C104.923 21.6028 104.55 21.6376 104.097 21.7163C104.055 21.7246 103.912 21.7473 103.665 21.7842C103.434 21.8095 103.225 21.8108 103.04 21.788C102.828 21.762 102.738 21.6233 102.769 21.3719C102.809 21.041 103.008 20.8438 103.365 20.7802C103.724 20.7033 104.056 20.6769 104.362 20.7011C104.67 20.712 104.864 20.7157 104.945 20.7122C104.981 20.2061 105.023 19.7545 105.071 19.3575C105.281 17.6503 105.72 16.2064 106.389 15.0258C107.073 13.8335 108.11 13.3227 109.499 13.4934ZM116.634 28.5552C115.787 28.4512 115.027 28.1899 114.353 27.7713C113.679 27.3527 113.167 26.813 112.818 26.1522C112.47 25.4915 112.344 24.7641 112.442 23.9701C112.55 23.0834 112.817 22.2766 113.243 21.5496C113.669 20.8094 114.229 20.2468 114.921 19.8616C115.628 19.4648 116.411 19.3192 117.272 19.4248C118.171 19.5353 118.817 19.9101 119.209 20.5493C119.602 21.1752 119.732 21.9233 119.598 22.7935C119.502 23.5743 119.118 24.1316 118.446 24.4655C117.787 24.801 116.981 24.9103 116.028 24.7933C115.882 24.7754 115.666 24.7353 115.378 24.6731C114.908 24.5617 114.579 24.4475 114.392 24.3305C114.205 24.2134 114.129 24.016 114.163 23.7381C114.174 23.6454 114.209 23.5825 114.266 23.5493C114.326 23.5029 114.435 23.4894 114.594 23.5089C114.766 23.53 115.065 23.6071 115.492 23.7401C115.906 23.8715 116.278 23.9575 116.609 23.9982C117.827 24.1477 118.501 23.6931 118.631 22.6343C118.709 21.9991 118.651 21.4816 118.458 21.0818C118.279 20.6836 117.898 20.4488 117.316 20.3773C116.681 20.2993 116.09 20.4015 115.545 20.6838C115.002 20.9529 114.558 21.3417 114.213 21.8501C113.882 22.3602 113.679 22.9197 113.604 23.5284C113.476 24.5739 113.661 25.4699 114.161 26.2163C114.662 26.9495 115.521 27.3908 116.739 27.5403C116.884 27.5582 117.131 27.575 117.478 27.5908C117.625 27.5955 117.809 27.5777 118.028 27.5375C118.248 27.4973 118.406 27.4697 118.502 27.4546C119.096 27.326 119.525 27.2779 119.789 27.3104C119.988 27.3348 120.133 27.4064 120.226 27.5253C119.834 27.9875 119.292 28.2972 118.601 28.4541C117.925 28.5995 117.269 28.6332 116.634 28.5552ZM7.83069 41.391C6.45436 41.2221 5.28594 40.8368 4.32542 40.2352C3.37976 39.6221 2.98168 38.7068 3.13117 37.4892C3.18479 37.0525 3.36913 36.6453 3.68418 36.2675C3.99923 35.8898 4.43026 35.6069 4.97726 35.4188C5.52588 35.2175 6.17074 35.1623 6.91184 35.2533C7.4809 35.3232 7.96069 35.409 8.35121 35.5107C8.74173 35.6123 9.18043 35.814 9.6673 36.1156C10.1542 36.4171 10.6438 36.8601 11.1363 37.4445C11.0367 36.5053 10.8174 35.6657 10.4784 34.9255C10.1394 34.1854 9.72796 33.5975 9.2441 33.162C8.7751 32.7148 8.28915 32.4604 7.78626 32.3986C7.54805 32.3694 7.31739 32.3881 7.09427 32.4547C6.88601 32.5097 6.62656 32.5988 6.31591 32.7218C5.95906 32.8929 5.70124 32.9688 5.54243 32.9493C5.47626 32.9411 5.41914 32.914 5.37108 32.8678C5.33788 32.81 5.32534 32.748 5.33347 32.6818C5.39846 32.1524 5.68043 31.7706 6.17937 31.5363C6.69154 31.3037 7.28346 31.242 7.95515 31.3514C8.87502 31.5181 9.67325 32.0191 10.3498 32.8544C11.028 33.6765 11.5189 34.657 11.8223 35.7958C12.139 36.9362 12.2332 38.0292 12.1048 39.0747C12.0837 39.2467 12.0404 39.4899 11.975 39.8043L11.3446 39.6866C10.9668 38.6058 10.4069 37.8049 9.66489 37.284C8.93771 36.7514 8.1771 36.4363 7.38306 36.3388C6.36405 36.2137 5.6175 36.2765 5.1434 36.5273C4.66931 36.7781 4.39651 37.1946 4.32502 37.7769C4.25027 38.3856 4.49453 38.9127 5.05779 39.358C5.62106 39.8033 6.37911 40.0844 7.33195 40.2014C7.86131 40.2664 8.28805 40.2919 8.61216 40.278C8.9379 40.2508 9.27931 40.2054 9.6364 40.1418C9.92568 40.0833 10.1786 40.0472 10.3953 40.0335C10.6119 40.0198 10.8856 40.0332 11.2165 40.0739C11.587 40.1193 11.8153 40.1743 11.9015 40.2386C12.0009 40.3045 12.0392 40.4301 12.0164 40.6154C12.0002 40.7477 11.7086 40.8798 11.1416 41.0117C10.5746 41.1436 9.94393 41.2475 9.2495 41.3235C8.55507 41.3994 8.08214 41.4219 7.83069 41.391ZM14.3993 42.0565C14.2853 40.5783 14.2699 38.8435 14.3532 36.8521C14.4514 34.8491 14.6142 32.9213 14.8417 31.0685C14.9555 30.1422 15.0761 29.3241 15.2035 28.6143C15.2246 28.4423 15.3675 28.3725 15.6322 28.405C15.844 28.431 15.9698 28.5002 16.0097 28.6126C16.0629 28.7266 16.0757 28.8961 16.0481 29.121C15.7848 31.2649 15.5995 33.1027 15.492 34.6344C15.3862 36.1528 15.2922 37.7936 15.21 39.5567C15.1513 40.6913 15.1108 41.4588 15.0885 41.859C15.0758 42.0724 14.9503 42.1645 14.7121 42.1352C14.6327 42.1255 14.5284 42.0992 14.3993 42.0565ZM17.5749 42.4464C17.4608 40.9682 17.4455 39.2334 17.5288 37.242C17.6269 35.2391 17.7898 33.3112 18.0173 31.4584C18.131 30.5321 18.2516 29.714 18.379 29.0042C18.4002 28.8322 18.5431 28.7624 18.8078 28.7949C19.0195 28.8209 19.1453 28.8901 19.1853 29.0025C19.2384 29.1165 19.2512 29.286 19.2236 29.5109C18.9604 31.6548 18.775 33.4926 18.6675 35.0243C18.5617 36.5427 18.4677 38.1835 18.3856 39.9466C18.3268 41.0812 18.2863 41.8487 18.2641 42.249C18.2513 42.4623 18.1258 42.5544 17.8876 42.5251C17.8082 42.5154 17.704 42.4891 17.5749 42.4464ZM25.773 43.6142C25.4686 43.5769 25.2783 43.1035 25.2018 42.194C25.1271 41.2714 25.103 40.4826 25.1297 39.8276C25.1564 39.1727 25.2095 38.1381 25.2891 36.7239C25.3035 36.4973 25.3327 36.2053 25.3765 35.848C25.4318 35.3981 25.503 35.0911 25.5903 34.9272C25.6909 34.7649 25.8272 34.6943 25.9992 34.7155C26.1448 34.7333 26.2532 34.7802 26.3245 34.8562C26.4106 34.9205 26.4786 35.0229 26.5286 35.1633L26.4112 35.9549C26.3072 36.8019 26.2486 37.6074 26.2354 38.3715C26.2354 39.1372 26.2501 40.1667 26.2793 41.4599C26.317 42.0287 26.3337 42.4942 26.3295 42.8564C26.3332 43.0449 26.2774 43.2262 26.162 43.4001C26.0483 43.5607 25.9186 43.6321 25.773 43.6142ZM26.6173 32.6353C26.3262 32.5995 26.1216 32.4602 26.0037 32.2174C25.899 31.9762 25.8669 31.6901 25.9075 31.3593C25.9254 31.2137 25.945 31.1087 25.9664 31.0441C25.9791 30.8307 26.1112 30.7395 26.3627 30.7704C26.548 30.7931 26.7276 30.8622 26.9015 30.9776C27.0902 31.0813 27.1425 31.1482 27.0582 31.1782C27.1483 31.5385 27.1811 31.8179 27.1568 32.0164C27.1356 32.1885 27.0789 32.3225 26.9865 32.4187C26.8957 32.5016 26.7726 32.5738 26.6173 32.6353ZM29.7297 44.1605C29.5379 44.1907 29.4288 44.2042 29.4023 44.2009C29.2965 44.1879 29.1905 44.1212 29.0844 44.0007C28.7273 43.2986 28.5486 42.1281 28.5483 40.4892C28.5613 38.8519 28.6393 37.4509 28.7823 36.2864C28.805 36.1011 28.9487 36.0247 29.2134 36.0572C29.6104 36.1059 29.7821 36.3487 29.7285 36.7854C29.7139 36.9045 29.6951 37.0029 29.6721 37.0807C29.8253 36.8174 30.0852 36.5605 30.4518 36.31C30.8184 36.0595 31.2323 35.8618 31.6934 35.7169C32.1544 35.572 32.61 35.5272 33.0599 35.5824C34.476 35.7563 35.431 36.5116 35.9251 37.8485C36.4208 39.1721 36.555 40.7603 36.3275 42.613C36.2495 43.2483 36.1207 43.7497 35.9413 44.1172C35.7634 44.4715 35.562 44.6348 35.3371 44.6072C35.0988 44.578 34.9887 44.4905 35.0065 44.345C35.1853 43.6549 35.3161 42.9725 35.399 42.2975C35.6086 40.5904 35.4693 39.2635 34.981 38.3169C34.4943 37.3571 33.7613 36.8171 32.782 36.6969C32.3056 36.6384 31.8278 36.7006 31.3486 36.8836C30.8826 37.0682 30.4847 37.3551 30.1548 37.7445C29.8381 38.1355 29.6465 38.6023 29.5798 39.1449C29.5051 39.7536 29.4732 40.287 29.4841 40.7451C29.495 41.2032 29.5343 41.7588 29.6018 42.4119C29.6843 43.0534 29.7269 43.6363 29.7297 44.1605ZM46.3952 46.1463C45.6144 46.0505 44.9275 45.7915 44.3345 45.3694C43.7564 44.9357 43.3269 44.3859 43.0459 43.7201C42.7798 43.0426 42.6963 42.3002 42.7955 41.4929C42.958 40.1695 43.5621 39.2429 44.6078 38.7131C45.6667 38.1849 46.9042 38.0077 48.3202 38.1816C48.9687 38.2612 49.5513 38.4939 50.0681 38.8798C50.5982 39.2673 50.9987 39.7799 51.2697 40.4177C51.5406 41.0554 51.6282 41.7647 51.5323 42.5455C51.4283 43.3925 51.119 44.1068 50.6042 44.6884C50.0911 45.2568 49.4562 45.6691 48.6993 45.9255C47.9573 46.1702 47.1892 46.2438 46.3952 46.1463ZM46.3158 44.988C47.5465 45.1391 48.5136 44.9758 49.2171 44.4979C49.9206 44.0201 50.3381 43.2452 50.4698 42.1733C50.5591 41.4454 50.3849 40.7859 49.947 40.1948C49.5223 39.6053 48.8666 39.2562 47.98 39.1473C47.3844 39.0742 46.7685 39.1127 46.1321 39.263C45.4957 39.4132 44.9514 39.6889 44.4991 40.0901C44.0469 40.4913 43.7817 41.0095 43.7037 41.6448C43.6387 42.1741 43.7101 42.6866 43.9179 43.1823C44.1274 43.6648 44.44 44.0726 44.8558 44.4058C45.2865 44.7273 45.7732 44.9214 46.3158 44.988ZM54.3189 47.1797C54.1272 47.2099 54.018 47.2233 53.9916 47.2201C53.8857 47.2071 53.7797 47.1403 53.6736 47.0199C53.3165 46.3178 53.1378 45.1473 53.1376 43.5083C53.1505 41.8711 53.2285 40.4701 53.3715 39.3055C53.3942 39.1203 53.538 39.0439 53.8026 39.0764C54.1997 39.1251 54.3714 39.3678 54.3177 39.8046C54.3031 39.9237 54.2843 40.0221 54.2613 40.0999C54.4146 39.8366 54.6745 39.5797 55.0411 39.3292C55.4077 39.0787 55.8215 38.8809 56.2826 38.7361C56.7437 38.5912 57.1992 38.5464 57.6492 38.6016C59.0652 38.7755 60.0203 39.5308 60.5144 40.8677C61.0101 42.1913 61.1442 43.7795 60.9167 45.6322C60.8387 46.2674 60.71 46.7688 60.5305 47.1364C60.3527 47.4907 60.1513 47.654 59.9263 47.6264C59.6881 47.5971 59.5779 47.5097 59.5958 47.3642C59.7746 46.6741 59.9054 45.9916 59.9882 45.3167C60.1979 43.6095 60.0585 42.2827 59.5702 41.3361C59.0836 40.3763 58.3506 39.8363 57.3713 39.716C56.8949 39.6575 56.417 39.7198 55.9378 39.9027C55.4719 40.0873 55.0739 40.3743 54.744 40.7637C54.4274 41.1547 54.2357 41.6214 54.1691 42.164C54.0943 42.7728 54.0624 43.3062 54.0733 43.7643C54.0843 44.2224 54.1235 44.778 54.1911 45.4311C54.2735 46.0726 54.3161 46.6554 54.3189 47.1797ZM66.7586 48.6265C65.9117 48.5225 65.1512 48.2612 64.4772 47.8426C63.8031 47.424 63.2918 46.8843 62.943 46.2236C62.5943 45.5628 62.4687 44.8354 62.5662 44.0414C62.675 43.1547 62.942 42.3479 63.3671 41.6209C63.7938 40.8808 64.3532 40.3181 65.0453 39.9329C65.7523 39.5361 66.5359 39.3905 67.3961 39.4961C68.296 39.6066 68.9418 39.9814 69.3335 40.6206C69.7268 41.2465 69.8566 41.9946 69.7229 42.8648C69.627 43.6456 69.2429 44.2029 68.5705 44.5368C67.9114 44.8723 67.1054 44.9816 66.1526 44.8646C66.007 44.8467 65.7903 44.8067 65.5024 44.7445C65.0324 44.633 64.7039 44.5188 64.5168 44.4018C64.3296 44.2848 64.2531 44.0873 64.2873 43.8094C64.2986 43.7168 64.3332 43.6538 64.391 43.6206C64.4505 43.5742 64.5596 43.5607 64.7184 43.5802C64.8904 43.6014 65.19 43.6784 65.6169 43.8115C66.0307 43.9429 66.403 44.0289 66.7338 44.0695C67.9513 44.219 68.6251 43.7644 68.7551 42.7057C68.8331 42.0704 68.7757 41.5529 68.583 41.1531C68.4035 40.7549 68.0226 40.5201 67.4403 40.4486C66.8051 40.3706 66.2149 40.4728 65.6698 40.7551C65.1263 41.0242 64.6823 41.413 64.3377 41.9215C64.0064 42.4316 63.8034 42.991 63.7286 43.5998C63.6003 44.6452 63.7858 45.5412 64.2852 46.2876C64.7863 47.0208 65.6456 47.4622 66.8631 47.6117C67.0087 47.6295 67.2551 47.6464 67.6024 47.6621C67.7496 47.6668 67.9332 47.649 68.153 47.6088C68.3729 47.5687 68.5308 47.541 68.6267 47.5259C69.2201 47.3973 69.6492 47.3492 69.9138 47.3817C70.1124 47.4061 70.258 47.4777 70.3509 47.5966C69.9583 48.0589 69.4166 48.3685 68.7256 48.5255C68.0495 48.6708 67.3939 48.7045 66.7586 48.6265ZM77.0916 57.0687C76.827 57.0362 76.5963 56.2892 76.3996 54.8277C76.2162 53.3677 76.0853 51.7531 76.007 49.9837C75.9403 48.2292 75.9346 47.1269 75.9899 46.677C76.154 45.3403 76.7234 44.4229 77.698 43.9246C78.6743 43.4131 79.8705 43.2443 81.2865 43.4182C82.0408 43.5108 82.736 43.7573 83.3719 44.1578C84.0095 44.5451 84.4976 45.055 84.8364 45.6877C85.1768 46.3071 85.3006 46.994 85.208 47.7484C85.0926 48.688 84.6805 49.309 83.9717 49.6116C83.2761 49.9157 82.4321 50.0069 81.4395 49.885C80.4073 49.7583 79.5483 49.4782 78.8627 49.0447C78.192 48.5997 77.894 48.0728 77.9687 47.464L78.0129 47.2679C78.1186 47.1734 78.2243 47.1327 78.3302 47.1457C78.4228 47.157 78.5172 47.2089 78.6133 47.3013C78.7243 47.3821 78.8403 47.477 78.9613 47.5859C79.3341 47.9406 79.7077 48.235 80.082 48.469C80.4695 48.7047 80.9676 48.8599 81.5764 48.9346C82.4101 49.037 83.0169 48.9637 83.3967 48.7148C83.7914 48.4543 84.0286 47.9998 84.1082 47.3514C84.1667 46.8749 84.0599 46.432 83.7878 46.0224C83.5156 45.6129 83.1403 45.278 82.6618 45.0177C82.1833 44.7574 81.6794 44.5948 81.15 44.5298C79.9192 44.3787 78.9604 44.5296 78.2734 44.9826C77.588 45.4224 77.2037 46.2551 77.1203 47.4807C76.986 49.5598 76.9584 51.3162 77.0376 52.7499C77.13 54.1852 77.4403 55.4323 77.9686 56.4913L77.9835 56.5334C77.9803 56.5599 77.9439 56.5823 77.8745 56.6006C77.8167 56.6338 77.773 56.662 77.7432 56.6852C77.5536 56.9172 77.3364 57.045 77.0916 57.0687ZM86.7639 50.9418C86.6498 49.4635 86.6345 47.7287 86.7178 45.7374C86.8159 43.7344 86.9788 41.8065 87.2063 39.9538C87.32 39.0274 87.4406 38.2093 87.568 37.4996C87.5892 37.3275 87.7321 37.2578 87.9968 37.2903C88.2085 37.3163 88.3343 37.3854 88.3743 37.4978C88.4274 37.6118 88.4402 37.7813 88.4126 38.0063C88.1494 40.1502 87.964 41.988 87.8565 43.5196C87.7507 45.038 87.6567 46.6788 87.5746 48.4419C87.5158 49.5766 87.4753 50.344 87.4531 50.7443C87.4403 50.9577 87.3148 51.0497 87.0766 51.0205C86.9972 51.0107 86.893 50.9845 86.7639 50.9418ZM93.9322 51.963C92.5559 51.794 91.3875 51.4087 90.4269 50.8072C89.4813 50.194 89.0832 49.2787 89.2327 48.0612C89.2863 47.6245 89.4707 47.2172 89.7857 46.8395C90.1008 46.4617 90.5318 46.1788 91.0788 45.9907C91.6274 45.7894 92.2723 45.7343 93.0134 45.8253C93.5824 45.8951 94.0622 45.9809 94.4527 46.0826C94.8433 46.1843 95.2819 46.3859 95.7688 46.6875C96.2557 46.9891 96.7454 47.432 97.2378 48.0164C97.1382 47.0773 96.9189 46.2376 96.5799 45.4975C96.2409 44.7573 95.8295 44.1694 95.3456 43.7339C94.8766 43.2867 94.3907 43.0323 93.8878 42.9705C93.6496 42.9413 93.4189 42.96 93.1958 43.0266C92.9875 43.0817 92.7281 43.1707 92.4174 43.2938C92.0606 43.4649 91.8028 43.5407 91.644 43.5212C91.5778 43.5131 91.5207 43.4859 91.4726 43.4397C91.4394 43.3819 91.4269 43.3199 91.435 43.2537C91.5 42.7244 91.782 42.3426 92.2809 42.1083C92.7931 41.8756 93.385 41.814 94.0567 41.9233C94.9765 42.09 95.7748 42.591 96.4513 43.4264C97.1295 44.2485 97.6204 45.2289 97.9239 46.3677C98.2406 47.5082 98.3347 48.6011 98.2064 49.6466C98.1852 49.8186 98.1419 50.0619 98.0765 50.3762L97.4461 50.2585C97.0684 49.1778 96.5085 48.3769 95.7664 47.8559C95.0392 47.3233 94.2786 47.0083 93.4846 46.9108C92.4656 46.7857 91.719 46.8485 91.2449 47.0992C90.7708 47.35 90.498 47.7665 90.4265 48.3488C90.3518 48.9576 90.596 49.4846 91.1593 49.9299C91.7226 50.3752 92.4806 50.6563 93.4335 50.7733C93.9628 50.8383 94.3896 50.8639 94.7137 50.8499C95.0394 50.8228 95.3808 50.7774 95.7379 50.7137C96.0272 50.6552 96.2802 50.6191 96.4968 50.6054C96.7134 50.5917 96.9871 50.6052 97.318 50.6458C97.6885 50.6913 97.9169 50.7462 98.003 50.8105C98.1024 50.8764 98.1407 51.002 98.1179 51.1873C98.1017 51.3197 97.8101 51.4518 97.2431 51.5837C96.6762 51.7155 96.0455 51.8195 95.351 51.8954C94.6566 51.9713 94.1837 51.9939 93.9322 51.963ZM104.273 53.2528C102.725 53.0627 101.563 52.5641 100.789 51.7571C100.03 50.9385 99.7414 49.7881 99.9234 48.3059C100.016 47.5515 100.289 46.8596 100.742 46.2302C101.211 45.5892 101.788 45.1025 102.473 44.7703C103.174 44.4264 103.894 44.3 104.636 44.391C105.39 44.4836 106.011 44.7278 106.5 45.1237C106.991 45.5063 107.198 46.002 107.124 46.6107C107.072 47.0342 106.955 47.3288 106.773 47.4946C106.607 47.6488 106.431 47.7145 106.245 47.6917C106.323 47.0565 106.215 46.5193 105.919 46.08C105.624 45.6407 105.159 45.3821 104.523 45.3041C103.888 45.2261 103.318 45.3307 102.812 45.6179C102.309 45.8919 101.897 46.2914 101.577 46.8163C101.272 47.3297 101.083 47.8841 101.01 48.4796C100.856 49.7368 101.175 50.6424 101.966 51.1964C102.771 51.752 103.875 52.1159 105.278 52.2881C105.754 52.3466 106.38 52.3965 107.154 52.4378C107.18 52.4411 107.236 52.4748 107.323 52.5392C107.409 52.6035 107.477 52.6455 107.529 52.6652L107.514 52.7843C107.467 53.1681 107.1 53.3649 106.414 53.3747C105.728 53.3844 105.014 53.3438 104.273 53.2528ZM112.738 54.2721C111.892 54.1681 111.131 53.9068 110.457 53.4882C109.783 53.0696 109.272 52.53 108.923 51.8692C108.574 51.2084 108.449 50.481 108.546 49.687C108.655 48.8003 108.922 47.9935 109.347 47.2666C109.774 46.5264 110.333 45.9637 111.025 45.5785C111.732 45.1817 112.516 45.0361 113.376 45.1417C114.276 45.2522 114.922 45.6271 115.313 46.2662C115.707 46.8922 115.836 47.6402 115.703 48.5104C115.607 49.2912 115.223 49.8486 114.55 50.1824C113.891 50.5179 113.085 50.6272 112.132 50.5102C111.987 50.4923 111.77 50.4523 111.482 50.3901C111.012 50.2786 110.684 50.1644 110.497 50.0474C110.31 49.9304 110.233 49.7329 110.267 49.455C110.278 49.3624 110.313 49.2995 110.371 49.2663C110.43 49.2198 110.539 49.2064 110.698 49.2259C110.87 49.247 111.17 49.3241 111.597 49.4571C112.011 49.5885 112.383 49.6745 112.714 49.7151C113.931 49.8646 114.605 49.41 114.735 48.3513C114.813 47.716 114.756 47.1985 114.563 46.7987C114.383 46.4006 114.002 46.1657 113.42 46.0942C112.785 46.0162 112.195 46.1184 111.65 46.4007C111.106 46.6698 110.662 47.0586 110.318 47.5671C109.986 48.0772 109.783 48.6366 109.709 49.2454C109.58 50.2909 109.766 51.1868 110.265 51.9332C110.766 52.6664 111.625 53.1078 112.843 53.2573C112.989 53.2751 113.235 53.292 113.582 53.3078C113.73 53.3124 113.913 53.2946 114.133 53.2545C114.353 53.2143 114.511 53.1867 114.607 53.1716C115.2 53.0429 115.629 52.9949 115.894 53.0274C116.092 53.0517 116.238 53.1233 116.331 53.2422C115.938 53.7045 115.396 54.0141 114.705 54.1711C114.029 54.3164 113.374 54.3501 112.738 54.2721Z" fill="#F6F8FA"/>
</svg>
